<ttFont>
    <TTGlyph name="A" xMin="8" yMin="0" xMax="634" yMax="730">
      <contour>
        <pt x="233" y="730" on="1"/>
        <pt x="410" y="730" on="1"/>
        <pt x="634" y="0" on="1"/>
        <pt x="503" y="0" on="1"/>
        <pt x="441" y="202" on="1"/>
        <pt x="201" y="202" on="1"/>
        <pt x="140" y="0" on="1"/>
        <pt x="8" y="0" on="1"/>
      </contour>
      <contour>
        <pt x="321" y="601" on="1"/>
        <pt x="232" y="305" on="1"/>
        <pt x="410" y="305" on="1"/>
      </contour>
    </TTGlyph>
    <TTGlyph name="AE" xMin="11" yMin="0" xMax="901" yMax="730">
      <contour>
        <pt x="881" y="730" on="1"/>
        <pt x="881" y="625" on="1"/>
        <pt x="605" y="625" on="1"/>
        <pt x="605" y="403" on="1"/>
        <pt x="856" y="403" on="1"/>
        <pt x="856" y="299" on="1"/>
        <pt x="605" y="299" on="1"/>
        <pt x="605" y="105" on="1"/>
        <pt x="901" y="105" on="1"/>
        <pt x="901" y="0" on="1"/>
        <pt x="469" y="0" on="1"/>
        <pt x="469" y="299" on="1"/>
        <pt x="266" y="299" on="1"/>
        <pt x="143" y="0" on="1"/>
        <pt x="11" y="0" on="1"/>
        <pt x="316" y="730" on="1"/>
      </contour>
      <contour>
        <pt x="469" y="625" on="1"/>
        <pt x="400" y="625" on="1"/>
        <pt x="308" y="403" on="1"/>
        <pt x="469" y="403" on="1"/>
      </contour>
    </TTGlyph>
    <TTGlyph name="Aacute" xMin="8" yMin="0" xMax="634" yMax="983">
      <contour>
        <pt x="233" y="730" on="1"/>
        <pt x="410" y="730" on="1"/>
        <pt x="634" y="0" on="1"/>
        <pt x="503" y="0" on="1"/>
        <pt x="441" y="202" on="1"/>
        <pt x="201" y="202" on="1"/>
        <pt x="140" y="0" on="1"/>
        <pt x="8" y="0" on="1"/>
      </contour>
      <contour>
        <pt x="321" y="601" on="1"/>
        <pt x="232" y="305" on="1"/>
        <pt x="410" y="305" on="1"/>
      </contour>
      <contour>
        <pt x="254" y="778" on="1"/>
        <pt x="209" y="850" on="1"/>
        <pt x="404" y="983" on="1"/>
        <pt x="464" y="887" on="1"/>
      </contour>
    </TTGlyph>
    <TTGlyph name="Acircumflex" xMin="8" yMin="0" xMax="634" yMax="979">
      <contour>
        <pt x="233" y="730" on="1"/>
        <pt x="410" y="730" on="1"/>
        <pt x="634" y="0" on="1"/>
        <pt x="503" y="0" on="1"/>
        <pt x="441" y="202" on="1"/>
        <pt x="201" y="202" on="1"/>
        <pt x="140" y="0" on="1"/>
        <pt x="8" y="0" on="1"/>
      </contour>
      <contour>
        <pt x="321" y="601" on="1"/>
        <pt x="232" y="305" on="1"/>
        <pt x="410" y="305" on="1"/>
      </contour>
      <contour>
        <pt x="221" y="784" on="1"/>
        <pt x="173" y="832" on="1"/>
        <pt x="301" y="979" on="1"/>
        <pt x="362" y="979" on="1"/>
        <pt x="490" y="832" on="1"/>
        <pt x="442" y="784" on="1"/>
        <pt x="331" y="868" on="1"/>
      </contour>
    </TTGlyph>
    <TTGlyph name="Adieresis" xMin="8" yMin="0" xMax="634" yMax="950">
      <contour>
        <pt x="233" y="730" on="1"/>
        <pt x="410" y="730" on="1"/>
        <pt x="634" y="0" on="1"/>
        <pt x="503" y="0" on="1"/>
        <pt x="441" y="202" on="1"/>
        <pt x="201" y="202" on="1"/>
        <pt x="140" y="0" on="1"/>
        <pt x="8" y="0" on="1"/>
      </contour>
      <contour>
        <pt x="321" y="601" on="1"/>
        <pt x="232" y="305" on="1"/>
        <pt x="410" y="305" on="1"/>
      </contour>
      <contour>
        <pt x="244" y="801" on="0"/>
        <pt x="198" y="801" on="0"/>
        <pt x="170" y="813" on="0"/>
        <pt x="164" y="825" on="1"/>
        <pt x="154" y="845" on="0"/>
        <pt x="154" y="891" on="0"/>
        <pt x="158" y="912" on="0"/>
        <pt x="164" y="924" on="1"/>
        <pt x="176" y="950" on="0"/>
        <pt x="221" y="950" on="1"/>
        <pt x="268" y="950" on="0"/>
        <pt x="280" y="924" on="1"/>
        <pt x="290" y="904" on="0"/>
        <pt x="290" y="858" on="0"/>
        <pt x="286" y="837" on="0"/>
        <pt x="274" y="813" on="0"/>
      </contour>
      <contour>
        <pt x="462" y="801" on="0"/>
        <pt x="416" y="801" on="0"/>
        <pt x="388" y="813" on="0"/>
        <pt x="382" y="825" on="1"/>
        <pt x="372" y="845" on="0"/>
        <pt x="372" y="891" on="0"/>
        <pt x="376" y="912" on="0"/>
        <pt x="382" y="924" on="1"/>
        <pt x="394" y="950" on="0"/>
        <pt x="439" y="950" on="1"/>
        <pt x="486" y="950" on="0"/>
        <pt x="498" y="924" on="1"/>
        <pt x="508" y="904" on="0"/>
        <pt x="508" y="858" on="0"/>
        <pt x="504" y="837" on="0"/>
        <pt x="492" y="813" on="0"/>
      </contour>
    </TTGlyph>
    <TTGlyph name="Agrave" xMin="8" yMin="0" xMax="634" yMax="983">
      <contour>
        <pt x="233" y="730" on="1"/>
        <pt x="410" y="730" on="1"/>
        <pt x="634" y="0" on="1"/>
        <pt x="503" y="0" on="1"/>
        <pt x="441" y="202" on="1"/>
        <pt x="201" y="202" on="1"/>
        <pt x="140" y="0" on="1"/>
        <pt x="8" y="0" on="1"/>
      </contour>
      <contour>
        <pt x="321" y="601" on="1"/>
        <pt x="232" y="305" on="1"/>
        <pt x="410" y="305" on="1"/>
      </contour>
      <contour>
        <pt x="454" y="850" on="1"/>
        <pt x="409" y="778" on="1"/>
        <pt x="199" y="887" on="1"/>
        <pt x="259" y="983" on="1"/>
      </contour>
    </TTGlyph>
    <TTGlyph name="Aring" xMin="8" yMin="0" xMax="634" yMax="995">
      <contour>
        <pt x="233" y="730" on="1"/>
        <pt x="410" y="730" on="1"/>
        <pt x="634" y="0" on="1"/>
        <pt x="503" y="0" on="1"/>
        <pt x="441" y="202" on="1"/>
        <pt x="201" y="202" on="1"/>
        <pt x="140" y="0" on="1"/>
        <pt x="8" y="0" on="1"/>
      </contour>
      <contour>
        <pt x="321" y="601" on="1"/>
        <pt x="232" y="305" on="1"/>
        <pt x="410" y="305" on="1"/>
      </contour>
      <contour>
        <pt x="330" y="834" on="1"/>
        <pt x="371" y="834" on="0"/>
        <pt x="371" y="932" on="0"/>
        <pt x="330" y="932" on="1"/>
        <pt x="293" y="932" on="0"/>
        <pt x="293" y="834" on="0"/>
      </contour>
      <contour>
        <pt x="330" y="770" on="1"/>
        <pt x="219" y="770" on="0"/>
        <pt x="219" y="995" on="0"/>
        <pt x="330" y="995" on="1"/>
        <pt x="395" y="995" on="0"/>
        <pt x="445" y="928" on="0"/>
        <pt x="445" y="836" on="0"/>
        <pt x="395" y="770" on="0"/>
      </contour>
    </TTGlyph>
    <TTGlyph name="Atilde" xMin="8" yMin="0" xMax="634" yMax="960">
      <contour>
        <pt x="233" y="730" on="1"/>
        <pt x="410" y="730" on="1"/>
        <pt x="634" y="0" on="1"/>
        <pt x="503" y="0" on="1"/>
        <pt x="441" y="202" on="1"/>
        <pt x="201" y="202" on="1"/>
        <pt x="140" y="0" on="1"/>
        <pt x="8" y="0" on="1"/>
      </contour>
      <contour>
        <pt x="321" y="601" on="1"/>
        <pt x="232" y="305" on="1"/>
        <pt x="410" y="305" on="1"/>
      </contour>
      <contour>
        <pt x="491" y="873" on="0"/>
        <pt x="440" y="819" on="0"/>
        <pt x="380" y="819" on="0"/>
        <pt x="286" y="855" on="0"/>
        <pt x="271" y="855" on="1"/>
        <pt x="242" y="855" on="0"/>
        <pt x="229" y="811" on="1"/>
        <pt x="154" y="835" on="1"/>
        <pt x="171" y="898" on="0"/>
        <pt x="222" y="952" on="0"/>
        <pt x="282" y="952" on="0"/>
        <pt x="377" y="916" on="0"/>
        <pt x="392" y="916" on="1"/>
        <pt x="421" y="916" on="0"/>
        <pt x="434" y="960" on="1"/>
        <pt x="508" y="936" on="1"/>
      </contour>
    </TTGlyph>
    <TTGlyph name="B" xMin="94" yMin="0" xMax="591" yMax="730">
      <contour>
        <pt x="358" y="0" on="1"/>
        <pt x="94" y="0" on="1"/>
        <pt x="94" y="730" on="1"/>
        <pt x="324" y="730" on="1"/>
        <pt x="459" y="730" on="0"/>
        <pt x="512" y="670" on="1"/>
        <pt x="559" y="616" on="0"/>
        <pt x="559" y="543" on="1"/>
        <pt x="559" y="418" on="0"/>
        <pt x="452" y="377" on="1"/>
        <pt x="524" y="357" on="0"/>
        <pt x="591" y="257" on="0"/>
        <pt x="591" y="195" on="1"/>
        <pt x="591" y="118" on="0"/>
        <pt x="544" y="63" on="1"/>
        <pt x="520" y="34" on="0"/>
        <pt x="424" y="0" on="0"/>
      </contour>
      <contour>
        <pt x="230" y="105" on="1"/>
        <pt x="350" y="105" on="1"/>
        <pt x="402" y="105" on="0"/>
        <pt x="455" y="163" on="0"/>
        <pt x="455" y="263" on="0"/>
        <pt x="402" y="321" on="0"/>
        <pt x="350" y="321" on="1"/>
        <pt x="230" y="321" on="1"/>
      </contour>
      <contour>
        <pt x="230" y="425" on="1"/>
        <pt x="322" y="425" on="1"/>
        <pt x="370" y="425" on="0"/>
        <pt x="423" y="478" on="0"/>
        <pt x="423" y="571" on="0"/>
        <pt x="370" y="625" on="0"/>
        <pt x="322" y="625" on="1"/>
        <pt x="230" y="625" on="1"/>
      </contour>
    </TTGlyph>
    <TTGlyph name="C" xMin="56" yMin="-14" xMax="598" yMax="744">
      <contour>
        <pt x="352" y="634" on="1"/>
        <pt x="258" y="634" on="0"/>
        <pt x="192" y="511" on="0"/>
        <pt x="192" y="220" on="0"/>
        <pt x="258" y="96" on="0"/>
        <pt x="352" y="96" on="1"/>
        <pt x="425" y="96" on="0"/>
        <pt x="486" y="176" on="0"/>
        <pt x="488" y="252" on="1"/>
        <pt x="598" y="247" on="1"/>
        <pt x="590" y="118" on="0"/>
        <pt x="483" y="-14" on="0"/>
        <pt x="352" y="-14" on="1"/>
        <pt x="181" y="-14" on="0"/>
        <pt x="116" y="86" on="1"/>
        <pt x="83" y="136" on="0"/>
        <pt x="56" y="269" on="0"/>
        <pt x="56" y="461" on="0"/>
        <pt x="83" y="594" on="0"/>
        <pt x="116" y="644" on="1"/>
        <pt x="181" y="744" on="0"/>
        <pt x="352" y="744" on="1"/>
        <pt x="475" y="744" on="0"/>
        <pt x="583" y="634" on="0"/>
        <pt x="595" y="527" on="1"/>
        <pt x="485" y="510" on="1"/>
        <pt x="479" y="570" on="0"/>
        <pt x="417" y="634" on="0"/>
      </contour>
    </TTGlyph>
    <TTGlyph name="Ccedilla" xMin="56" yMin="-241" xMax="598" yMax="744">
      <contour>
        <pt x="352" y="634" on="1"/>
        <pt x="258" y="634" on="0"/>
        <pt x="192" y="511" on="0"/>
        <pt x="192" y="220" on="0"/>
        <pt x="258" y="96" on="0"/>
        <pt x="352" y="96" on="1"/>
        <pt x="425" y="96" on="0"/>
        <pt x="486" y="176" on="0"/>
        <pt x="488" y="252" on="1"/>
        <pt x="598" y="247" on="1"/>
        <pt x="590" y="118" on="0"/>
        <pt x="483" y="-14" on="0"/>
        <pt x="352" y="-14" on="1"/>
        <pt x="181" y="-14" on="0"/>
        <pt x="116" y="86" on="1"/>
        <pt x="83" y="136" on="0"/>
        <pt x="56" y="269" on="0"/>
        <pt x="56" y="461" on="0"/>
        <pt x="83" y="594" on="0"/>
        <pt x="116" y="644" on="1"/>
        <pt x="181" y="744" on="0"/>
        <pt x="352" y="744" on="1"/>
        <pt x="475" y="744" on="0"/>
        <pt x="583" y="634" on="0"/>
        <pt x="595" y="527" on="1"/>
        <pt x="485" y="510" on="1"/>
        <pt x="479" y="570" on="0"/>
        <pt x="417" y="634" on="0"/>
      </contour>
      <contour>
        <pt x="212" y="-130" on="1"/>
        <pt x="296" y="-130" on="1"/>
        <pt x="296" y="-167" on="0"/>
        <pt x="328" y="-167" on="1"/>
        <pt x="342" y="-167" on="0"/>
        <pt x="358" y="-154" on="0"/>
        <pt x="361" y="-140" on="0"/>
        <pt x="361" y="-129" on="1"/>
        <pt x="361" y="-98" on="0"/>
        <pt x="325" y="-92" on="1"/>
        <pt x="272" y="-83" on="1"/>
        <pt x="281" y="-35" on="1"/>
        <pt x="325" y="-35" on="1"/>
        <pt x="382" y="-35" on="0"/>
        <pt x="443" y="-76" on="0"/>
        <pt x="443" y="-186" on="0"/>
        <pt x="392" y="-241" on="0"/>
        <pt x="327" y="-241" on="1"/>
        <pt x="212" y="-241" on="0"/>
      </contour>
    </TTGlyph>
    <TTGlyph name="D" xMin="94" yMin="0" xMax="632" yMax="730">
      <contour>
        <pt x="94" y="730" on="1"/>
        <pt x="337" y="730" on="1"/>
        <pt x="514" y="730" on="0"/>
        <pt x="577" y="622" on="1"/>
        <pt x="608" y="570" on="0"/>
        <pt x="632" y="448" on="0"/>
        <pt x="632" y="299" on="0"/>
        <pt x="618" y="197" on="0"/>
        <pt x="579" y="100" on="0"/>
        <pt x="547" y="69" on="1"/>
        <pt x="476" y="0" on="0"/>
        <pt x="337" y="0" on="1"/>
        <pt x="94" y="0" on="1"/>
      </contour>
      <contour>
        <pt x="319" y="625" on="1"/>
        <pt x="230" y="625" on="1"/>
        <pt x="230" y="105" on="1"/>
        <pt x="319" y="105" on="1"/>
        <pt x="426" y="105" on="0"/>
        <pt x="464" y="182" on="1"/>
        <pt x="496" y="249" on="0"/>
        <pt x="496" y="481" on="0"/>
        <pt x="464" y="548" on="1"/>
        <pt x="426" y="625" on="0"/>
      </contour>
    </TTGlyph>
    <TTGlyph name="Delta" xMin="-30" yMin="0" xMax="636" yMax="730">
      <contour>
        <pt x="229" y="730" on="1"/>
        <pt x="377" y="730" on="1"/>
        <pt x="636" y="0" on="1"/>
        <pt x="-30" y="0" on="1"/>
      </contour>
      <contour>
        <pt x="303" y="580" on="1"/>
        <pt x="135" y="88" on="1"/>
        <pt x="471" y="88" on="1"/>
      </contour>
    </TTGlyph>
    <TTGlyph name="E" xMin="94" yMin="0" xMax="526" yMax="730">
      <contour>
        <pt x="94" y="730" on="1"/>
        <pt x="506" y="730" on="1"/>
        <pt x="506" y="625" on="1"/>
        <pt x="230" y="625" on="1"/>
        <pt x="230" y="423" on="1"/>
        <pt x="481" y="423" on="1"/>
        <pt x="481" y="319" on="1"/>
        <pt x="230" y="319" on="1"/>
        <pt x="230" y="105" on="1"/>
        <pt x="526" y="105" on="1"/>
        <pt x="526" y="0" on="1"/>
        <pt x="94" y="0" on="1"/>
      </contour>
    </TTGlyph>
    <TTGlyph name="Eacute" xMin="94" yMin="0" xMax="526" yMax="983">
      <contour>
        <pt x="94" y="730" on="1"/>
        <pt x="506" y="730" on="1"/>
        <pt x="506" y="625" on="1"/>
        <pt x="230" y="625" on="1"/>
        <pt x="230" y="423" on="1"/>
        <pt x="481" y="423" on="1"/>
        <pt x="481" y="319" on="1"/>
        <pt x="230" y="319" on="1"/>
        <pt x="230" y="105" on="1"/>
        <pt x="526" y="105" on="1"/>
        <pt x="526" y="0" on="1"/>
        <pt x="94" y="0" on="1"/>
      </contour>
      <contour>
        <pt x="245" y="778" on="1"/>
        <pt x="200" y="850" on="1"/>
        <pt x="395" y="983" on="1"/>
        <pt x="455" y="887" on="1"/>
      </contour>
    </TTGlyph>
    <TTGlyph name="Ecircumflex" xMin="94" yMin="0" xMax="526" yMax="979">
      <contour>
        <pt x="94" y="730" on="1"/>
        <pt x="506" y="730" on="1"/>
        <pt x="506" y="625" on="1"/>
        <pt x="230" y="625" on="1"/>
        <pt x="230" y="423" on="1"/>
        <pt x="481" y="423" on="1"/>
        <pt x="481" y="319" on="1"/>
        <pt x="230" y="319" on="1"/>
        <pt x="230" y="105" on="1"/>
        <pt x="526" y="105" on="1"/>
        <pt x="526" y="0" on="1"/>
        <pt x="94" y="0" on="1"/>
      </contour>
      <contour>
        <pt x="204" y="784" on="1"/>
        <pt x="156" y="832" on="1"/>
        <pt x="284" y="979" on="1"/>
        <pt x="345" y="979" on="1"/>
        <pt x="473" y="832" on="1"/>
        <pt x="425" y="784" on="1"/>
        <pt x="314" y="868" on="1"/>
      </contour>
    </TTGlyph>
    <TTGlyph name="Edieresis" xMin="94" yMin="0" xMax="526" yMax="950">
      <contour>
        <pt x="94" y="730" on="1"/>
        <pt x="506" y="730" on="1"/>
        <pt x="506" y="625" on="1"/>
        <pt x="230" y="625" on="1"/>
        <pt x="230" y="423" on="1"/>
        <pt x="481" y="423" on="1"/>
        <pt x="481" y="319" on="1"/>
        <pt x="230" y="319" on="1"/>
        <pt x="230" y="105" on="1"/>
        <pt x="526" y="105" on="1"/>
        <pt x="526" y="0" on="1"/>
        <pt x="94" y="0" on="1"/>
      </contour>
      <contour>
        <pt x="227" y="801" on="0"/>
        <pt x="181" y="801" on="0"/>
        <pt x="153" y="813" on="0"/>
        <pt x="147" y="825" on="1"/>
        <pt x="137" y="845" on="0"/>
        <pt x="137" y="891" on="0"/>
        <pt x="141" y="912" on="0"/>
        <pt x="147" y="924" on="1"/>
        <pt x="159" y="950" on="0"/>
        <pt x="204" y="950" on="1"/>
        <pt x="251" y="950" on="0"/>
        <pt x="263" y="924" on="1"/>
        <pt x="273" y="904" on="0"/>
        <pt x="273" y="858" on="0"/>
        <pt x="269" y="837" on="0"/>
        <pt x="257" y="813" on="0"/>
      </contour>
      <contour>
        <pt x="445" y="801" on="0"/>
        <pt x="399" y="801" on="0"/>
        <pt x="371" y="813" on="0"/>
        <pt x="365" y="825" on="1"/>
        <pt x="355" y="845" on="0"/>
        <pt x="355" y="891" on="0"/>
        <pt x="359" y="912" on="0"/>
        <pt x="365" y="924" on="1"/>
        <pt x="377" y="950" on="0"/>
        <pt x="422" y="950" on="1"/>
        <pt x="469" y="950" on="0"/>
        <pt x="481" y="924" on="1"/>
        <pt x="491" y="904" on="0"/>
        <pt x="491" y="858" on="0"/>
        <pt x="487" y="837" on="0"/>
        <pt x="475" y="813" on="0"/>
      </contour>
    </TTGlyph>
    <TTGlyph name="Egrave" xMin="94" yMin="0" xMax="526" yMax="983">
      <contour>
        <pt x="94" y="730" on="1"/>
        <pt x="506" y="730" on="1"/>
        <pt x="506" y="625" on="1"/>
        <pt x="230" y="625" on="1"/>
        <pt x="230" y="423" on="1"/>
        <pt x="481" y="423" on="1"/>
        <pt x="481" y="319" on="1"/>
        <pt x="230" y="319" on="1"/>
        <pt x="230" y="105" on="1"/>
        <pt x="526" y="105" on="1"/>
        <pt x="526" y="0" on="1"/>
        <pt x="94" y="0" on="1"/>
      </contour>
      <contour>
        <pt x="437" y="850" on="1"/>
        <pt x="392" y="778" on="1"/>
        <pt x="182" y="887" on="1"/>
        <pt x="242" y="983" on="1"/>
      </contour>
    </TTGlyph>
    <TTGlyph name="Eth" xMin="52" yMin="0" xMax="632" yMax="730">
      <contour>
        <pt x="52" y="316" on="1"/>
        <pt x="52" y="408" on="1"/>
        <pt x="94" y="408" on="1"/>
        <pt x="94" y="730" on="1"/>
        <pt x="337" y="730" on="1"/>
        <pt x="514" y="730" on="0"/>
        <pt x="577" y="622" on="1"/>
        <pt x="608" y="570" on="0"/>
        <pt x="632" y="448" on="0"/>
        <pt x="632" y="299" on="0"/>
        <pt x="618" y="197" on="0"/>
        <pt x="579" y="100" on="0"/>
        <pt x="547" y="69" on="1"/>
        <pt x="476" y="0" on="0"/>
        <pt x="337" y="0" on="1"/>
        <pt x="94" y="0" on="1"/>
        <pt x="94" y="316" on="1"/>
      </contour>
      <contour>
        <pt x="319" y="625" on="1"/>
        <pt x="230" y="625" on="1"/>
        <pt x="230" y="408" on="1"/>
        <pt x="404" y="408" on="1"/>
        <pt x="404" y="316" on="1"/>
        <pt x="230" y="316" on="1"/>
        <pt x="230" y="105" on="1"/>
        <pt x="319" y="105" on="1"/>
        <pt x="426" y="105" on="0"/>
        <pt x="464" y="182" on="1"/>
        <pt x="496" y="249" on="0"/>
        <pt x="496" y="481" on="0"/>
        <pt x="464" y="548" on="1"/>
        <pt x="426" y="625" on="0"/>
      </contour>
    </TTGlyph>
    <TTGlyph name="Euro" xMin="29" yMin="-14" xMax="606" yMax="744">
      <contour>
        <pt x="29" y="401" on="1"/>
        <pt x="29" y="492" on="1"/>
        <pt x="100" y="492" on="1"/>
        <pt x="138" y="744" on="0"/>
        <pt x="364" y="744" on="1"/>
        <pt x="484" y="744" on="0"/>
        <pt x="603" y="643" on="0"/>
        <pt x="605" y="550" on="1"/>
        <pt x="487" y="542" on="1"/>
        <pt x="487" y="588" on="0"/>
        <pt x="418" y="638" on="0"/>
        <pt x="305" y="638" on="0"/>
        <pt x="244" y="563" on="0"/>
        <pt x="233" y="492" on="1"/>
        <pt x="419" y="492" on="1"/>
        <pt x="419" y="401" on="1"/>
        <pt x="226" y="401" on="1"/>
        <pt x="226" y="329" on="1"/>
        <pt x="419" y="329" on="1"/>
        <pt x="419" y="238" on="1"/>
        <pt x="233" y="238" on="1"/>
        <pt x="244" y="166" on="0"/>
        <pt x="305" y="91" on="0"/>
        <pt x="419" y="91" on="0"/>
        <pt x="488" y="143" on="0"/>
        <pt x="488" y="190" on="1"/>
        <pt x="606" y="182" on="1"/>
        <pt x="604" y="88" on="0"/>
        <pt x="484" y="-14" on="0"/>
        <pt x="241" y="-14" on="0"/>
        <pt x="118" y="119" on="0"/>
        <pt x="100" y="238" on="1"/>
        <pt x="29" y="238" on="1"/>
        <pt x="29" y="329" on="1"/>
        <pt x="92" y="329" on="1"/>
        <pt x="92" y="401" on="1"/>
      </contour>
    </TTGlyph>
    <TTGlyph name="F" xMin="94" yMin="0" xMax="486" yMax="730">
      <contour>
        <pt x="94" y="730" on="1"/>
        <pt x="486" y="730" on="1"/>
        <pt x="486" y="625" on="1"/>
        <pt x="230" y="625" on="1"/>
        <pt x="230" y="423" on="1"/>
        <pt x="453" y="423" on="1"/>
        <pt x="453" y="319" on="1"/>
        <pt x="230" y="319" on="1"/>
        <pt x="230" y="0" on="1"/>
        <pt x="94" y="0" on="1"/>
      </contour>
    </TTGlyph>
    <TTGlyph name="G" xMin="56" yMin="-14" xMax="611" yMax="744">
      <contour>
        <pt x="348" y="96" on="1"/>
        <pt x="492" y="96" on="0"/>
        <pt x="494" y="252" on="1"/>
        <pt x="494" y="286" on="1"/>
        <pt x="382" y="286" on="1"/>
        <pt x="382" y="373" on="1"/>
        <pt x="611" y="373" on="1"/>
        <pt x="611" y="0" on="1"/>
        <pt x="543" y="0" on="1"/>
        <pt x="520" y="73" on="1"/>
        <pt x="456" y="-14" on="0"/>
        <pt x="340" y="-14" on="1"/>
        <pt x="176" y="-14" on="0"/>
        <pt x="114" y="88" on="1"/>
        <pt x="82" y="140" on="0"/>
        <pt x="56" y="272" on="0"/>
        <pt x="56" y="461" on="0"/>
        <pt x="83" y="594" on="0"/>
        <pt x="116" y="644" on="1"/>
        <pt x="181" y="744" on="0"/>
        <pt x="352" y="744" on="1"/>
        <pt x="475" y="744" on="0"/>
        <pt x="583" y="634" on="0"/>
        <pt x="595" y="527" on="1"/>
        <pt x="485" y="510" on="1"/>
        <pt x="479" y="570" on="0"/>
        <pt x="417" y="634" on="0"/>
        <pt x="352" y="634" on="1"/>
        <pt x="258" y="634" on="0"/>
        <pt x="192" y="510" on="0"/>
        <pt x="192" y="224" on="0"/>
        <pt x="257" y="96" on="0"/>
      </contour>
    </TTGlyph>
    <TTGlyph name="H" xMin="94" yMin="0" xMax="636" yMax="730">
      <contour>
        <pt x="500" y="730" on="1"/>
        <pt x="636" y="730" on="1"/>
        <pt x="636" y="0" on="1"/>
        <pt x="500" y="0" on="1"/>
        <pt x="500" y="313" on="1"/>
        <pt x="230" y="313" on="1"/>
        <pt x="230" y="0" on="1"/>
        <pt x="94" y="0" on="1"/>
        <pt x="94" y="730" on="1"/>
        <pt x="230" y="730" on="1"/>
        <pt x="230" y="417" on="1"/>
        <pt x="500" y="417" on="1"/>
      </contour>
    </TTGlyph>
    <TTGlyph name="I" xMin="94" yMin="0" xMax="230" yMax="730">
      <contour>
        <pt x="94" y="730" on="1"/>
        <pt x="230" y="730" on="1"/>
        <pt x="230" y="0" on="1"/>
        <pt x="94" y="0" on="1"/>
      </contour>
    </TTGlyph>
    <TTGlyph name="Iacute" xMin="60" yMin="0" xMax="315" yMax="983">
      <contour>
        <pt x="94" y="730" on="1"/>
        <pt x="230" y="730" on="1"/>
        <pt x="230" y="0" on="1"/>
        <pt x="94" y="0" on="1"/>
      </contour>
      <contour>
        <pt x="105" y="778" on="1"/>
        <pt x="60" y="850" on="1"/>
        <pt x="255" y="983" on="1"/>
        <pt x="315" y="887" on="1"/>
      </contour>
    </TTGlyph>
    <TTGlyph name="Icircumflex" xMin="4" yMin="0" xMax="321" yMax="979">
      <contour>
        <pt x="94" y="730" on="1"/>
        <pt x="230" y="730" on="1"/>
        <pt x="230" y="0" on="1"/>
        <pt x="94" y="0" on="1"/>
      </contour>
      <contour>
        <pt x="52" y="784" on="1"/>
        <pt x="4" y="832" on="1"/>
        <pt x="132" y="979" on="1"/>
        <pt x="193" y="979" on="1"/>
        <pt x="321" y="832" on="1"/>
        <pt x="273" y="784" on="1"/>
        <pt x="162" y="868" on="1"/>
      </contour>
    </TTGlyph>
    <TTGlyph name="Idieresis" xMin="-15" yMin="0" xMax="339" yMax="950">
      <contour>
        <pt x="94" y="730" on="1"/>
        <pt x="230" y="730" on="1"/>
        <pt x="230" y="0" on="1"/>
        <pt x="94" y="0" on="1"/>
      </contour>
      <contour>
        <pt x="75" y="801" on="0"/>
        <pt x="29" y="801" on="0"/>
        <pt x="1" y="813" on="0"/>
        <pt x="-5" y="825" on="1"/>
        <pt x="-15" y="845" on="0"/>
        <pt x="-15" y="891" on="0"/>
        <pt x="-11" y="912" on="0"/>
        <pt x="-5" y="924" on="1"/>
        <pt x="7" y="950" on="0"/>
        <pt x="52" y="950" on="1"/>
        <pt x="99" y="950" on="0"/>
        <pt x="111" y="924" on="1"/>
        <pt x="121" y="904" on="0"/>
        <pt x="121" y="858" on="0"/>
        <pt x="117" y="837" on="0"/>
        <pt x="105" y="813" on="0"/>
      </contour>
      <contour>
        <pt x="293" y="801" on="0"/>
        <pt x="247" y="801" on="0"/>
        <pt x="219" y="813" on="0"/>
        <pt x="213" y="825" on="1"/>
        <pt x="203" y="845" on="0"/>
        <pt x="203" y="891" on="0"/>
        <pt x="207" y="912" on="0"/>
        <pt x="213" y="924" on="1"/>
        <pt x="225" y="950" on="0"/>
        <pt x="270" y="950" on="1"/>
        <pt x="317" y="950" on="0"/>
        <pt x="329" y="924" on="1"/>
        <pt x="339" y="904" on="0"/>
        <pt x="339" y="858" on="0"/>
        <pt x="335" y="837" on="0"/>
        <pt x="323" y="813" on="0"/>
      </contour>
    </TTGlyph>
    <TTGlyph name="Igrave" xMin="30" yMin="0" xMax="285" yMax="983">
      <contour>
        <pt x="94" y="730" on="1"/>
        <pt x="230" y="730" on="1"/>
        <pt x="230" y="0" on="1"/>
        <pt x="94" y="0" on="1"/>
      </contour>
      <contour>
        <pt x="285" y="850" on="1"/>
        <pt x="240" y="778" on="1"/>
        <pt x="30" y="887" on="1"/>
        <pt x="90" y="983" on="1"/>
      </contour>
    </TTGlyph>
    <TTGlyph name="J" xMin="4" yMin="-14" xMax="406" yMax="730">
      <contour>
        <pt x="406" y="730" on="1"/>
        <pt x="406" y="183" on="1"/>
        <pt x="406" y="137" on="0"/>
        <pt x="393" y="77" on="0"/>
        <pt x="373" y="46" on="1"/>
        <pt x="333" y="-14" on="0"/>
        <pt x="194" y="-14" on="1"/>
        <pt x="81" y="-14" on="0"/>
        <pt x="42" y="34" on="1"/>
        <pt x="16" y="67" on="0"/>
        <pt x="11" y="101" on="1"/>
        <pt x="4" y="148" on="0"/>
        <pt x="4" y="207" on="1"/>
        <pt x="122" y="207" on="1"/>
        <pt x="122" y="145" on="0"/>
        <pt x="154" y="96" on="0"/>
        <pt x="239" y="96" on="0"/>
        <pt x="270" y="134" on="0"/>
        <pt x="270" y="183" on="1"/>
        <pt x="270" y="730" on="1"/>
      </contour>
    </TTGlyph>
    <TTGlyph name="K" xMin="94" yMin="0" xMax="625" yMax="730">
      <contour>
        <pt x="230" y="319" on="1"/>
        <pt x="230" y="0" on="1"/>
        <pt x="94" y="0" on="1"/>
        <pt x="94" y="730" on="1"/>
        <pt x="230" y="730" on="1"/>
        <pt x="230" y="422" on="1"/>
        <pt x="281" y="422" on="1"/>
        <pt x="466" y="730" on="1"/>
        <pt x="606" y="730" on="1"/>
        <pt x="386" y="370" on="1"/>
        <pt x="625" y="0" on="1"/>
        <pt x="480" y="0" on="1"/>
        <pt x="275" y="319" on="1"/>
      </contour>
    </TTGlyph>
    <TTGlyph name="L" xMin="94" yMin="0" xMax="479" yMax="730">
      <contour>
        <pt x="94" y="0" on="1"/>
        <pt x="94" y="730" on="1"/>
        <pt x="230" y="730" on="1"/>
        <pt x="230" y="105" on="1"/>
        <pt x="479" y="105" on="1"/>
        <pt x="479" y="0" on="1"/>
      </contour>
    </TTGlyph>
    <TTGlyph name="Lslash" xMin="23" yMin="0" xMax="479" yMax="730">
      <contour>
        <pt x="94" y="730" on="1"/>
        <pt x="230" y="730" on="1"/>
        <pt x="230" y="449" on="1"/>
        <pt x="305" y="479" on="1"/>
        <pt x="305" y="392" on="1"/>
        <pt x="230" y="362" on="1"/>
        <pt x="230" y="105" on="1"/>
        <pt x="479" y="105" on="1"/>
        <pt x="479" y="0" on="1"/>
        <pt x="94" y="0" on="1"/>
        <pt x="94" y="308" on="1"/>
        <pt x="23" y="280" on="1"/>
        <pt x="23" y="367" on="1"/>
        <pt x="94" y="395" on="1"/>
      </contour>
    </TTGlyph>
    <TTGlyph name="M" xMin="84" yMin="0" xMax="801" yMax="730">
      <contour>
        <pt x="592" y="730" on="1"/>
        <pt x="782" y="730" on="1"/>
        <pt x="801" y="0" on="1"/>
        <pt x="667" y="0" on="1"/>
        <pt x="656" y="562" on="1"/>
        <pt x="493" y="87" on="1"/>
        <pt x="375" y="87" on="1"/>
        <pt x="228" y="546" on="1"/>
        <pt x="218" y="0" on="1"/>
        <pt x="84" y="0" on="1"/>
        <pt x="102" y="730" on="1"/>
        <pt x="293" y="730" on="1"/>
        <pt x="436" y="269" on="1"/>
      </contour>
    </TTGlyph>
    <TTGlyph name="N" xMin="94" yMin="0" xMax="663" yMax="730">
      <contour>
        <pt x="527" y="730" on="1"/>
        <pt x="663" y="730" on="1"/>
        <pt x="663" y="0" on="1"/>
        <pt x="519" y="0" on="1"/>
        <pt x="230" y="496" on="1"/>
        <pt x="230" y="0" on="1"/>
        <pt x="94" y="0" on="1"/>
        <pt x="94" y="730" on="1"/>
        <pt x="238" y="730" on="1"/>
        <pt x="527" y="233" on="1"/>
      </contour>
    </TTGlyph>
    <TTGlyph name="Ntilde" xMin="94" yMin="0" xMax="663" yMax="960">
      <contour>
        <pt x="527" y="730" on="1"/>
        <pt x="663" y="730" on="1"/>
        <pt x="663" y="0" on="1"/>
        <pt x="519" y="0" on="1"/>
        <pt x="230" y="496" on="1"/>
        <pt x="230" y="0" on="1"/>
        <pt x="94" y="0" on="1"/>
        <pt x="94" y="730" on="1"/>
        <pt x="238" y="730" on="1"/>
        <pt x="527" y="233" on="1"/>
      </contour>
      <contour>
        <pt x="547" y="873" on="0"/>
        <pt x="496" y="819" on="0"/>
        <pt x="436" y="819" on="0"/>
        <pt x="342" y="855" on="0"/>
        <pt x="327" y="855" on="1"/>
        <pt x="298" y="855" on="0"/>
        <pt x="285" y="811" on="1"/>
        <pt x="210" y="835" on="1"/>
        <pt x="227" y="898" on="0"/>
        <pt x="278" y="952" on="0"/>
        <pt x="338" y="952" on="0"/>
        <pt x="433" y="916" on="0"/>
        <pt x="448" y="916" on="1"/>
        <pt x="477" y="916" on="0"/>
        <pt x="490" y="960" on="1"/>
        <pt x="564" y="936" on="1"/>
      </contour>
    </TTGlyph>
    <TTGlyph name="O" xMin="56" yMin="-14" xMax="653" yMax="744">
      <contour>
        <pt x="563" y="43" on="0"/>
        <pt x="442" y="-14" on="0"/>
        <pt x="283" y="-14" on="0"/>
        <pt x="177" y="25" on="0"/>
        <pt x="111" y="90" on="0"/>
        <pt x="91" y="140" on="1"/>
        <pt x="56" y="228" on="0"/>
        <pt x="56" y="365" on="1"/>
        <pt x="56" y="450" on="0"/>
        <pt x="82" y="578" on="0"/>
        <pt x="114" y="632" on="1"/>
        <pt x="178" y="744" on="0"/>
        <pt x="354" y="744" on="1"/>
        <pt x="554" y="744" on="0"/>
        <pt x="618" y="589" on="1"/>
        <pt x="653" y="502" on="0"/>
        <pt x="653" y="365" on="1"/>
        <pt x="653" y="279" on="0"/>
        <pt x="627" y="151" on="0"/>
      </contour>
      <contour>
        <pt x="354" y="96" on="1"/>
        <pt x="445" y="96" on="0"/>
        <pt x="517" y="238" on="0"/>
        <pt x="517" y="492" on="0"/>
        <pt x="445" y="634" on="0"/>
        <pt x="354" y="634" on="1"/>
        <pt x="258" y="634" on="0"/>
        <pt x="223" y="556" on="1"/>
        <pt x="192" y="485" on="0"/>
        <pt x="192" y="365" on="1"/>
        <pt x="192" y="165" on="0"/>
        <pt x="273" y="116" on="1"/>
        <pt x="306" y="96" on="0"/>
      </contour>
    </TTGlyph>
    <TTGlyph name="OE" xMin="56" yMin="0" xMax="915" yMax="730">
      <contour>
        <pt x="349" y="0" on="1"/>
        <pt x="176" y="0" on="0"/>
        <pt x="113" y="104" on="1"/>
        <pt x="56" y="199" on="0"/>
        <pt x="56" y="365" on="1"/>
        <pt x="56" y="449" on="0"/>
        <pt x="82" y="573" on="0"/>
        <pt x="113" y="624" on="1"/>
        <pt x="177" y="730" on="0"/>
        <pt x="349" y="730" on="1"/>
        <pt x="895" y="730" on="1"/>
        <pt x="895" y="625" on="1"/>
        <pt x="586" y="625" on="1"/>
        <pt x="633" y="554" on="0"/>
        <pt x="641" y="423" on="1"/>
        <pt x="870" y="423" on="1"/>
        <pt x="870" y="319" on="1"/>
        <pt x="642" y="319" on="1"/>
        <pt x="635" y="178" on="0"/>
        <pt x="586" y="105" on="1"/>
        <pt x="915" y="105" on="1"/>
        <pt x="915" y="0" on="1"/>
      </contour>
      <contour>
        <pt x="260" y="109" on="0"/>
        <pt x="438" y="109" on="0"/>
        <pt x="507" y="242" on="0"/>
        <pt x="507" y="488" on="0"/>
        <pt x="438" y="621" on="0"/>
        <pt x="260" y="621" on="0"/>
        <pt x="192" y="488" on="0"/>
        <pt x="192" y="242" on="0"/>
      </contour>
    </TTGlyph>
    <TTGlyph name="Oacute" xMin="56" yMin="-14" xMax="653" yMax="983">
      <contour>
        <pt x="563" y="43" on="0"/>
        <pt x="442" y="-14" on="0"/>
        <pt x="283" y="-14" on="0"/>
        <pt x="177" y="25" on="0"/>
        <pt x="111" y="90" on="0"/>
        <pt x="91" y="140" on="1"/>
        <pt x="56" y="228" on="0"/>
        <pt x="56" y="365" on="1"/>
        <pt x="56" y="450" on="0"/>
        <pt x="82" y="578" on="0"/>
        <pt x="114" y="632" on="1"/>
        <pt x="178" y="744" on="0"/>
        <pt x="354" y="744" on="1"/>
        <pt x="554" y="744" on="0"/>
        <pt x="618" y="589" on="1"/>
        <pt x="653" y="502" on="0"/>
        <pt x="653" y="365" on="1"/>
        <pt x="653" y="279" on="0"/>
        <pt x="627" y="151" on="0"/>
      </contour>
      <contour>
        <pt x="354" y="96" on="1"/>
        <pt x="445" y="96" on="0"/>
        <pt x="517" y="238" on="0"/>
        <pt x="517" y="492" on="0"/>
        <pt x="445" y="634" on="0"/>
        <pt x="354" y="634" on="1"/>
        <pt x="258" y="634" on="0"/>
        <pt x="223" y="556" on="1"/>
        <pt x="192" y="485" on="0"/>
        <pt x="192" y="365" on="1"/>
        <pt x="192" y="165" on="0"/>
        <pt x="273" y="116" on="1"/>
        <pt x="306" y="96" on="0"/>
      </contour>
      <contour>
        <pt x="277" y="778" on="1"/>
        <pt x="232" y="850" on="1"/>
        <pt x="427" y="983" on="1"/>
        <pt x="487" y="887" on="1"/>
      </contour>
    </TTGlyph>
    <TTGlyph name="Ocircumflex" xMin="56" yMin="-14" xMax="653" yMax="979">
      <contour>
        <pt x="563" y="43" on="0"/>
        <pt x="442" y="-14" on="0"/>
        <pt x="283" y="-14" on="0"/>
        <pt x="177" y="25" on="0"/>
        <pt x="111" y="90" on="0"/>
        <pt x="91" y="140" on="1"/>
        <pt x="56" y="228" on="0"/>
        <pt x="56" y="365" on="1"/>
        <pt x="56" y="450" on="0"/>
        <pt x="82" y="578" on="0"/>
        <pt x="114" y="632" on="1"/>
        <pt x="178" y="744" on="0"/>
        <pt x="354" y="744" on="1"/>
        <pt x="554" y="744" on="0"/>
        <pt x="618" y="589" on="1"/>
        <pt x="653" y="502" on="0"/>
        <pt x="653" y="365" on="1"/>
        <pt x="653" y="279" on="0"/>
        <pt x="627" y="151" on="0"/>
      </contour>
      <contour>
        <pt x="354" y="96" on="1"/>
        <pt x="445" y="96" on="0"/>
        <pt x="517" y="238" on="0"/>
        <pt x="517" y="492" on="0"/>
        <pt x="445" y="634" on="0"/>
        <pt x="354" y="634" on="1"/>
        <pt x="258" y="634" on="0"/>
        <pt x="223" y="556" on="1"/>
        <pt x="192" y="485" on="0"/>
        <pt x="192" y="365" on="1"/>
        <pt x="192" y="165" on="0"/>
        <pt x="273" y="116" on="1"/>
        <pt x="306" y="96" on="0"/>
      </contour>
      <contour>
        <pt x="244" y="784" on="1"/>
        <pt x="196" y="832" on="1"/>
        <pt x="324" y="979" on="1"/>
        <pt x="385" y="979" on="1"/>
        <pt x="513" y="832" on="1"/>
        <pt x="465" y="784" on="1"/>
        <pt x="354" y="868" on="1"/>
      </contour>
    </TTGlyph>
    <TTGlyph name="Odieresis" xMin="56" yMin="-14" xMax="653" yMax="950">
      <contour>
        <pt x="563" y="43" on="0"/>
        <pt x="442" y="-14" on="0"/>
        <pt x="283" y="-14" on="0"/>
        <pt x="177" y="25" on="0"/>
        <pt x="111" y="90" on="0"/>
        <pt x="91" y="140" on="1"/>
        <pt x="56" y="228" on="0"/>
        <pt x="56" y="365" on="1"/>
        <pt x="56" y="450" on="0"/>
        <pt x="82" y="578" on="0"/>
        <pt x="114" y="632" on="1"/>
        <pt x="178" y="744" on="0"/>
        <pt x="354" y="744" on="1"/>
        <pt x="554" y="744" on="0"/>
        <pt x="618" y="589" on="1"/>
        <pt x="653" y="502" on="0"/>
        <pt x="653" y="365" on="1"/>
        <pt x="653" y="279" on="0"/>
        <pt x="627" y="151" on="0"/>
      </contour>
      <contour>
        <pt x="354" y="96" on="1"/>
        <pt x="445" y="96" on="0"/>
        <pt x="517" y="238" on="0"/>
        <pt x="517" y="492" on="0"/>
        <pt x="445" y="634" on="0"/>
        <pt x="354" y="634" on="1"/>
        <pt x="258" y="634" on="0"/>
        <pt x="223" y="556" on="1"/>
        <pt x="192" y="485" on="0"/>
        <pt x="192" y="365" on="1"/>
        <pt x="192" y="165" on="0"/>
        <pt x="273" y="116" on="1"/>
        <pt x="306" y="96" on="0"/>
      </contour>
      <contour>
        <pt x="267" y="801" on="0"/>
        <pt x="221" y="801" on="0"/>
        <pt x="193" y="813" on="0"/>
        <pt x="187" y="825" on="1"/>
        <pt x="177" y="845" on="0"/>
        <pt x="177" y="891" on="0"/>
        <pt x="181" y="912" on="0"/>
        <pt x="187" y="924" on="1"/>
        <pt x="199" y="950" on="0"/>
        <pt x="244" y="950" on="1"/>
        <pt x="291" y="950" on="0"/>
        <pt x="303" y="924" on="1"/>
        <pt x="313" y="904" on="0"/>
        <pt x="313" y="858" on="0"/>
        <pt x="309" y="837" on="0"/>
        <pt x="297" y="813" on="0"/>
      </contour>
      <contour>
        <pt x="485" y="801" on="0"/>
        <pt x="439" y="801" on="0"/>
        <pt x="411" y="813" on="0"/>
        <pt x="405" y="825" on="1"/>
        <pt x="395" y="845" on="0"/>
        <pt x="395" y="891" on="0"/>
        <pt x="399" y="912" on="0"/>
        <pt x="405" y="924" on="1"/>
        <pt x="417" y="950" on="0"/>
        <pt x="462" y="950" on="1"/>
        <pt x="509" y="950" on="0"/>
        <pt x="521" y="924" on="1"/>
        <pt x="531" y="904" on="0"/>
        <pt x="531" y="858" on="0"/>
        <pt x="527" y="837" on="0"/>
        <pt x="515" y="813" on="0"/>
      </contour>
    </TTGlyph>
    <TTGlyph name="Ograve" xMin="56" yMin="-14" xMax="653" yMax="983">
      <contour>
        <pt x="563" y="43" on="0"/>
        <pt x="442" y="-14" on="0"/>
        <pt x="283" y="-14" on="0"/>
        <pt x="177" y="25" on="0"/>
        <pt x="111" y="90" on="0"/>
        <pt x="91" y="140" on="1"/>
        <pt x="56" y="228" on="0"/>
        <pt x="56" y="365" on="1"/>
        <pt x="56" y="450" on="0"/>
        <pt x="82" y="578" on="0"/>
        <pt x="114" y="632" on="1"/>
        <pt x="178" y="744" on="0"/>
        <pt x="354" y="744" on="1"/>
        <pt x="554" y="744" on="0"/>
        <pt x="618" y="589" on="1"/>
        <pt x="653" y="502" on="0"/>
        <pt x="653" y="365" on="1"/>
        <pt x="653" y="279" on="0"/>
        <pt x="627" y="151" on="0"/>
      </contour>
      <contour>
        <pt x="354" y="96" on="1"/>
        <pt x="445" y="96" on="0"/>
        <pt x="517" y="238" on="0"/>
        <pt x="517" y="492" on="0"/>
        <pt x="445" y="634" on="0"/>
        <pt x="354" y="634" on="1"/>
        <pt x="258" y="634" on="0"/>
        <pt x="223" y="556" on="1"/>
        <pt x="192" y="485" on="0"/>
        <pt x="192" y="365" on="1"/>
        <pt x="192" y="165" on="0"/>
        <pt x="273" y="116" on="1"/>
        <pt x="306" y="96" on="0"/>
      </contour>
      <contour>
        <pt x="477" y="850" on="1"/>
        <pt x="432" y="778" on="1"/>
        <pt x="222" y="887" on="1"/>
        <pt x="282" y="983" on="1"/>
      </contour>
    </TTGlyph>
    <TTGlyph name="Omega" xMin="54" yMin="0" xMax="743" yMax="745">
      <contour>
        <pt x="607" y="532" on="0"/>
        <pt x="520" y="636" on="0"/>
        <pt x="277" y="636" on="0"/>
        <pt x="190" y="532" on="0"/>
        <pt x="190" y="422" on="1"/>
        <pt x="190" y="339" on="0"/>
        <pt x="250" y="246" on="0"/>
        <pt x="318" y="227" on="1"/>
        <pt x="318" y="0" on="1"/>
        <pt x="76" y="0" on="1"/>
        <pt x="76" y="88" on="1"/>
        <pt x="202" y="88" on="1"/>
        <pt x="202" y="168" on="1"/>
        <pt x="54" y="241" on="0"/>
        <pt x="54" y="427" on="1"/>
        <pt x="54" y="583" on="0"/>
        <pt x="213" y="745" on="0"/>
        <pt x="583" y="745" on="0"/>
        <pt x="743" y="583" on="0"/>
        <pt x="743" y="427" on="1"/>
        <pt x="743" y="242" on="0"/>
        <pt x="595" y="168" on="1"/>
        <pt x="595" y="88" on="1"/>
        <pt x="721" y="88" on="1"/>
        <pt x="721" y="0" on="1"/>
        <pt x="479" y="0" on="1"/>
        <pt x="479" y="227" on="1"/>
        <pt x="547" y="246" on="0"/>
        <pt x="607" y="339" on="0"/>
        <pt x="607" y="422" on="1"/>
      </contour>
    </TTGlyph>
    <TTGlyph name="Oslash" xMin="56" yMin="-94" xMax="653" yMax="827">
      <contour>
        <pt x="56" y="374" on="1"/>
        <pt x="56" y="450" on="0"/>
        <pt x="82" y="578" on="0"/>
        <pt x="114" y="632" on="1"/>
        <pt x="178" y="744" on="0"/>
        <pt x="354" y="744" on="1"/>
        <pt x="371" y="744" on="0"/>
        <pt x="399" y="742" on="1"/>
        <pt x="419" y="827" on="1"/>
        <pt x="504" y="827" on="1"/>
        <pt x="480" y="724" on="1"/>
        <pt x="575" y="688" on="0"/>
        <pt x="653" y="504" on="0"/>
        <pt x="653" y="365" on="1"/>
        <pt x="653" y="279" on="0"/>
        <pt x="627" y="151" on="0"/>
        <pt x="595" y="97" on="1"/>
        <pt x="529" y="-14" on="0"/>
        <pt x="354" y="-14" on="1"/>
        <pt x="329" y="-14" on="0"/>
        <pt x="308" y="-11" on="1"/>
        <pt x="289" y="-94" on="1"/>
        <pt x="205" y="-94" on="1"/>
        <pt x="228" y="5" on="1"/>
        <pt x="129" y="41" on="0"/>
        <pt x="90" y="140" on="1"/>
        <pt x="56" y="231" on="0"/>
      </contour>
      <contour>
        <pt x="354" y="96" on="1"/>
        <pt x="445" y="96" on="0"/>
        <pt x="517" y="238" on="0"/>
        <pt x="517" y="365" on="1"/>
        <pt x="517" y="542" on="0"/>
        <pt x="451" y="600" on="1"/>
        <pt x="333" y="97" on="1"/>
        <pt x="340" y="96" on="0"/>
      </contour>
      <contour>
        <pt x="374" y="633" on="1"/>
        <pt x="354" y="634" on="1"/>
        <pt x="258" y="634" on="0"/>
        <pt x="223" y="556" on="1"/>
        <pt x="192" y="485" on="0"/>
        <pt x="192" y="365" on="1"/>
        <pt x="192" y="187" on="0"/>
        <pt x="256" y="129" on="1"/>
      </contour>
    </TTGlyph>
    <TTGlyph name="Otilde" xMin="56" yMin="-14" xMax="653" yMax="960">
      <contour>
        <pt x="563" y="43" on="0"/>
        <pt x="442" y="-14" on="0"/>
        <pt x="283" y="-14" on="0"/>
        <pt x="177" y="25" on="0"/>
        <pt x="111" y="90" on="0"/>
        <pt x="91" y="140" on="1"/>
        <pt x="56" y="228" on="0"/>
        <pt x="56" y="365" on="1"/>
        <pt x="56" y="450" on="0"/>
        <pt x="82" y="578" on="0"/>
        <pt x="114" y="632" on="1"/>
        <pt x="178" y="744" on="0"/>
        <pt x="354" y="744" on="1"/>
        <pt x="554" y="744" on="0"/>
        <pt x="618" y="589" on="1"/>
        <pt x="653" y="502" on="0"/>
        <pt x="653" y="365" on="1"/>
        <pt x="653" y="279" on="0"/>
        <pt x="627" y="151" on="0"/>
      </contour>
      <contour>
        <pt x="354" y="96" on="1"/>
        <pt x="445" y="96" on="0"/>
        <pt x="517" y="238" on="0"/>
        <pt x="517" y="492" on="0"/>
        <pt x="445" y="634" on="0"/>
        <pt x="354" y="634" on="1"/>
        <pt x="258" y="634" on="0"/>
        <pt x="223" y="556" on="1"/>
        <pt x="192" y="485" on="0"/>
        <pt x="192" y="365" on="1"/>
        <pt x="192" y="165" on="0"/>
        <pt x="273" y="116" on="1"/>
        <pt x="306" y="96" on="0"/>
      </contour>
      <contour>
        <pt x="514" y="873" on="0"/>
        <pt x="463" y="819" on="0"/>
        <pt x="403" y="819" on="0"/>
        <pt x="309" y="855" on="0"/>
        <pt x="294" y="855" on="1"/>
        <pt x="265" y="855" on="0"/>
        <pt x="252" y="811" on="1"/>
        <pt x="177" y="835" on="1"/>
        <pt x="194" y="898" on="0"/>
        <pt x="245" y="952" on="0"/>
        <pt x="305" y="952" on="0"/>
        <pt x="400" y="916" on="0"/>
        <pt x="415" y="916" on="1"/>
        <pt x="444" y="916" on="0"/>
        <pt x="457" y="960" on="1"/>
        <pt x="531" y="936" on="1"/>
      </contour>
    </TTGlyph>
    <TTGlyph name="P" xMin="94" yMin="0" xMax="579" yMax="730">
      <contour>
        <pt x="346" y="259" on="1"/>
        <pt x="230" y="259" on="1"/>
        <pt x="230" y="0" on="1"/>
        <pt x="94" y="0" on="1"/>
        <pt x="94" y="730" on="1"/>
        <pt x="346" y="730" on="1"/>
        <pt x="478" y="730" on="0"/>
        <pt x="532" y="658" on="1"/>
        <pt x="579" y="593" on="0"/>
        <pt x="579" y="494" on="1"/>
        <pt x="579" y="396" on="0"/>
        <pt x="532" y="332" on="1"/>
        <pt x="478" y="259" on="0"/>
      </contour>
      <contour>
        <pt x="230" y="364" on="1"/>
        <pt x="325" y="364" on="1"/>
        <pt x="443" y="364" on="0"/>
        <pt x="443" y="625" on="0"/>
        <pt x="325" y="625" on="1"/>
        <pt x="230" y="625" on="1"/>
      </contour>
    </TTGlyph>
    <TTGlyph name="Q" xMin="56" yMin="-144" xMax="643" yMax="744">
      <contour>
        <pt x="70" y="185" on="0"/>
        <pt x="56" y="293" on="0"/>
        <pt x="56" y="459" on="0"/>
        <pt x="81" y="590" on="0"/>
        <pt x="145" y="694" on="0"/>
        <pt x="262" y="744" on="0"/>
        <pt x="436" y="744" on="0"/>
        <pt x="554" y="693" on="0"/>
        <pt x="617" y="590" on="0"/>
        <pt x="643" y="459" on="0"/>
        <pt x="643" y="227" on="0"/>
        <pt x="583" y="56" on="0"/>
        <pt x="507" y="17" on="1"/>
        <pt x="639" y="-39" on="1"/>
        <pt x="585" y="-144" on="1"/>
        <pt x="321" y="-13" on="1"/>
        <pt x="139" y="-4" on="0"/>
        <pt x="88" y="137" on="1"/>
      </contour>
      <contour>
        <pt x="192" y="229" on="0"/>
        <pt x="259" y="96" on="0"/>
        <pt x="440" y="96" on="0"/>
        <pt x="507" y="229" on="0"/>
        <pt x="507" y="501" on="0"/>
        <pt x="440" y="634" on="0"/>
        <pt x="259" y="634" on="0"/>
        <pt x="192" y="501" on="0"/>
      </contour>
    </TTGlyph>
    <TTGlyph name="R" xMin="94" yMin="0" xMax="619" yMax="730">
      <contour>
        <pt x="94" y="730" on="1"/>
        <pt x="349" y="730" on="1"/>
        <pt x="488" y="730" on="0"/>
        <pt x="542" y="657" on="1"/>
        <pt x="588" y="594" on="0"/>
        <pt x="588" y="509" on="1"/>
        <pt x="588" y="358" on="0"/>
        <pt x="470" y="309" on="1"/>
        <pt x="492" y="285" on="0"/>
        <pt x="508" y="249" on="1"/>
        <pt x="619" y="0" on="1"/>
        <pt x="474" y="0" on="1"/>
        <pt x="370" y="237" on="1"/>
        <pt x="356" y="267" on="0"/>
        <pt x="323" y="289" on="0"/>
        <pt x="290" y="289" on="1"/>
        <pt x="230" y="289" on="1"/>
        <pt x="230" y="0" on="1"/>
        <pt x="94" y="0" on="1"/>
      </contour>
      <contour>
        <pt x="230" y="394" on="1"/>
        <pt x="333" y="394" on="1"/>
        <pt x="393" y="394" on="0"/>
        <pt x="452" y="460" on="0"/>
        <pt x="452" y="559" on="0"/>
        <pt x="393" y="625" on="0"/>
        <pt x="333" y="625" on="1"/>
        <pt x="230" y="625" on="1"/>
      </contour>
    </TTGlyph>
    <TTGlyph name="S" xMin="44" yMin="-14" xMax="559" yMax="744">
      <contour>
        <pt x="471" y="389" on="0"/>
        <pt x="559" y="293" on="0"/>
        <pt x="559" y="101" on="0"/>
        <pt x="427" y="-14" on="0"/>
        <pt x="171" y="-14" on="0"/>
        <pt x="57" y="95" on="0"/>
        <pt x="44" y="199" on="1"/>
        <pt x="153" y="216" on="1"/>
        <pt x="159" y="157" on="0"/>
        <pt x="228" y="92" on="0"/>
        <pt x="290" y="92" on="1"/>
        <pt x="423" y="92" on="0"/>
        <pt x="423" y="193" on="1"/>
        <pt x="423" y="236" on="0"/>
        <pt x="373" y="280" on="0"/>
        <pt x="302" y="298" on="1"/>
        <pt x="245" y="312" on="1"/>
        <pt x="145" y="337" on="0"/>
        <pt x="59" y="435" on="0"/>
        <pt x="59" y="630" on="0"/>
        <pt x="185" y="744" on="0"/>
        <pt x="432" y="744" on="0"/>
        <pt x="541" y="635" on="0"/>
        <pt x="554" y="531" on="1"/>
        <pt x="446" y="514" on="1"/>
        <pt x="433" y="638" on="0"/>
        <pt x="318" y="638" on="1"/>
        <pt x="255" y="638" on="0"/>
        <pt x="195" y="583" on="0"/>
        <pt x="195" y="493" on="0"/>
        <pt x="241" y="449" on="0"/>
        <pt x="306" y="432" on="1"/>
        <pt x="369" y="415" on="1"/>
      </contour>
    </TTGlyph>
    <TTGlyph name="Scaron" xMin="44" yMin="-14" xMax="559" yMax="983">
      <contour>
        <pt x="471" y="389" on="0"/>
        <pt x="559" y="293" on="0"/>
        <pt x="559" y="101" on="0"/>
        <pt x="427" y="-14" on="0"/>
        <pt x="171" y="-14" on="0"/>
        <pt x="57" y="95" on="0"/>
        <pt x="44" y="199" on="1"/>
        <pt x="153" y="216" on="1"/>
        <pt x="159" y="157" on="0"/>
        <pt x="228" y="92" on="0"/>
        <pt x="290" y="92" on="1"/>
        <pt x="423" y="92" on="0"/>
        <pt x="423" y="193" on="1"/>
        <pt x="423" y="236" on="0"/>
        <pt x="373" y="280" on="0"/>
        <pt x="302" y="298" on="1"/>
        <pt x="245" y="312" on="1"/>
        <pt x="145" y="337" on="0"/>
        <pt x="59" y="435" on="0"/>
        <pt x="59" y="630" on="0"/>
        <pt x="185" y="744" on="0"/>
        <pt x="432" y="744" on="0"/>
        <pt x="541" y="635" on="0"/>
        <pt x="554" y="531" on="1"/>
        <pt x="446" y="514" on="1"/>
        <pt x="433" y="638" on="0"/>
        <pt x="318" y="638" on="1"/>
        <pt x="255" y="638" on="0"/>
        <pt x="195" y="583" on="0"/>
        <pt x="195" y="493" on="0"/>
        <pt x="241" y="449" on="0"/>
        <pt x="306" y="432" on="1"/>
        <pt x="369" y="415" on="1"/>
      </contour>
      <contour>
        <pt x="421" y="983" on="1"/>
        <pt x="469" y="935" on="1"/>
        <pt x="341" y="788" on="1"/>
        <pt x="280" y="788" on="1"/>
        <pt x="152" y="935" on="1"/>
        <pt x="200" y="983" on="1"/>
        <pt x="311" y="899" on="1"/>
      </contour>
    </TTGlyph>
    <TTGlyph name="T" xMin="-2" yMin="0" xMax="517" yMax="730">
      <contour>
        <pt x="-2" y="627" on="1"/>
        <pt x="-2" y="730" on="1"/>
        <pt x="517" y="730" on="1"/>
        <pt x="517" y="627" on="1"/>
        <pt x="326" y="627" on="1"/>
        <pt x="326" y="0" on="1"/>
        <pt x="190" y="0" on="1"/>
        <pt x="190" y="627" on="1"/>
      </contour>
    </TTGlyph>
    <TTGlyph name="Thorn" xMin="94" yMin="0" xMax="569" yMax="730">
      <contour>
        <pt x="342" y="137" on="1"/>
        <pt x="230" y="137" on="1"/>
        <pt x="230" y="0" on="1"/>
        <pt x="94" y="0" on="1"/>
        <pt x="94" y="730" on="1"/>
        <pt x="230" y="730" on="1"/>
        <pt x="230" y="592" on="1"/>
        <pt x="342" y="592" on="1"/>
        <pt x="465" y="592" on="0"/>
        <pt x="569" y="465" on="0"/>
        <pt x="569" y="264" on="0"/>
        <pt x="465" y="137" on="0"/>
      </contour>
      <contour>
        <pt x="230" y="247" on="1"/>
        <pt x="320" y="247" on="1"/>
        <pt x="383" y="247" on="0"/>
        <pt x="433" y="309" on="0"/>
        <pt x="433" y="420" on="0"/>
        <pt x="383" y="482" on="0"/>
        <pt x="320" y="482" on="1"/>
        <pt x="230" y="482" on="1"/>
      </contour>
    </TTGlyph>
    <TTGlyph name="U" xMin="79" yMin="-14" xMax="624" yMax="730">
      <contour>
        <pt x="488" y="730" on="1"/>
        <pt x="624" y="730" on="1"/>
        <pt x="624" y="241" on="1"/>
        <pt x="624" y="174" on="0"/>
        <pt x="590" y="78" on="0"/>
        <pt x="540" y="25" on="0"/>
        <pt x="462" y="-6" on="0"/>
        <pt x="395" y="-14" on="0"/>
        <pt x="307" y="-14" on="0"/>
        <pt x="240" y="-6" on="0"/>
        <pt x="162" y="25" on="0"/>
        <pt x="113" y="78" on="0"/>
        <pt x="79" y="174" on="0"/>
        <pt x="79" y="241" on="1"/>
        <pt x="79" y="730" on="1"/>
        <pt x="215" y="730" on="1"/>
        <pt x="215" y="251" on="1"/>
        <pt x="215" y="158" on="0"/>
        <pt x="287" y="97" on="0"/>
        <pt x="351" y="97" on="1"/>
        <pt x="382" y="97" on="0"/>
        <pt x="424" y="107" on="0"/>
        <pt x="445" y="122" on="1"/>
        <pt x="488" y="153" on="0"/>
        <pt x="488" y="251" on="1"/>
      </contour>
    </TTGlyph>
    <TTGlyph name="Uacute" xMin="79" yMin="-14" xMax="624" yMax="983">
      <contour>
        <pt x="488" y="730" on="1"/>
        <pt x="624" y="730" on="1"/>
        <pt x="624" y="241" on="1"/>
        <pt x="624" y="174" on="0"/>
        <pt x="590" y="78" on="0"/>
        <pt x="540" y="25" on="0"/>
        <pt x="462" y="-6" on="0"/>
        <pt x="395" y="-14" on="0"/>
        <pt x="307" y="-14" on="0"/>
        <pt x="240" y="-6" on="0"/>
        <pt x="162" y="25" on="0"/>
        <pt x="113" y="78" on="0"/>
        <pt x="79" y="174" on="0"/>
        <pt x="79" y="241" on="1"/>
        <pt x="79" y="730" on="1"/>
        <pt x="215" y="730" on="1"/>
        <pt x="215" y="251" on="1"/>
        <pt x="215" y="158" on="0"/>
        <pt x="287" y="97" on="0"/>
        <pt x="351" y="97" on="1"/>
        <pt x="382" y="97" on="0"/>
        <pt x="424" y="107" on="0"/>
        <pt x="445" y="122" on="1"/>
        <pt x="488" y="153" on="0"/>
        <pt x="488" y="251" on="1"/>
      </contour>
      <contour>
        <pt x="328" y="778" on="1"/>
        <pt x="283" y="850" on="1"/>
        <pt x="478" y="983" on="1"/>
        <pt x="538" y="887" on="1"/>
      </contour>
    </TTGlyph>
    <TTGlyph name="Ucircumflex" xMin="79" yMin="-14" xMax="624" yMax="979">
      <contour>
        <pt x="488" y="730" on="1"/>
        <pt x="624" y="730" on="1"/>
        <pt x="624" y="241" on="1"/>
        <pt x="624" y="174" on="0"/>
        <pt x="590" y="78" on="0"/>
        <pt x="540" y="25" on="0"/>
        <pt x="462" y="-6" on="0"/>
        <pt x="395" y="-14" on="0"/>
        <pt x="307" y="-14" on="0"/>
        <pt x="240" y="-6" on="0"/>
        <pt x="162" y="25" on="0"/>
        <pt x="113" y="78" on="0"/>
        <pt x="79" y="174" on="0"/>
        <pt x="79" y="241" on="1"/>
        <pt x="79" y="730" on="1"/>
        <pt x="215" y="730" on="1"/>
        <pt x="215" y="251" on="1"/>
        <pt x="215" y="158" on="0"/>
        <pt x="287" y="97" on="0"/>
        <pt x="351" y="97" on="1"/>
        <pt x="382" y="97" on="0"/>
        <pt x="424" y="107" on="0"/>
        <pt x="445" y="122" on="1"/>
        <pt x="488" y="153" on="0"/>
        <pt x="488" y="251" on="1"/>
      </contour>
      <contour>
        <pt x="244" y="784" on="1"/>
        <pt x="196" y="832" on="1"/>
        <pt x="324" y="979" on="1"/>
        <pt x="385" y="979" on="1"/>
        <pt x="513" y="832" on="1"/>
        <pt x="465" y="784" on="1"/>
        <pt x="354" y="868" on="1"/>
      </contour>
    </TTGlyph>
    <TTGlyph name="Udieresis" xMin="79" yMin="-14" xMax="624" yMax="950">
      <contour>
        <pt x="488" y="730" on="1"/>
        <pt x="624" y="730" on="1"/>
        <pt x="624" y="241" on="1"/>
        <pt x="624" y="174" on="0"/>
        <pt x="590" y="78" on="0"/>
        <pt x="540" y="25" on="0"/>
        <pt x="462" y="-6" on="0"/>
        <pt x="395" y="-14" on="0"/>
        <pt x="307" y="-14" on="0"/>
        <pt x="240" y="-6" on="0"/>
        <pt x="162" y="25" on="0"/>
        <pt x="113" y="78" on="0"/>
        <pt x="79" y="174" on="0"/>
        <pt x="79" y="241" on="1"/>
        <pt x="79" y="730" on="1"/>
        <pt x="215" y="730" on="1"/>
        <pt x="215" y="251" on="1"/>
        <pt x="215" y="158" on="0"/>
        <pt x="287" y="97" on="0"/>
        <pt x="351" y="97" on="1"/>
        <pt x="382" y="97" on="0"/>
        <pt x="424" y="107" on="0"/>
        <pt x="445" y="122" on="1"/>
        <pt x="488" y="153" on="0"/>
        <pt x="488" y="251" on="1"/>
      </contour>
      <contour>
        <pt x="268" y="801" on="0"/>
        <pt x="222" y="801" on="0"/>
        <pt x="194" y="813" on="0"/>
        <pt x="188" y="825" on="1"/>
        <pt x="178" y="845" on="0"/>
        <pt x="178" y="891" on="0"/>
        <pt x="182" y="912" on="0"/>
        <pt x="188" y="924" on="1"/>
        <pt x="200" y="950" on="0"/>
        <pt x="245" y="950" on="1"/>
        <pt x="292" y="950" on="0"/>
        <pt x="304" y="924" on="1"/>
        <pt x="314" y="904" on="0"/>
        <pt x="314" y="858" on="0"/>
        <pt x="310" y="837" on="0"/>
        <pt x="298" y="813" on="0"/>
      </contour>
      <contour>
        <pt x="486" y="801" on="0"/>
        <pt x="440" y="801" on="0"/>
        <pt x="412" y="813" on="0"/>
        <pt x="406" y="825" on="1"/>
        <pt x="396" y="845" on="0"/>
        <pt x="396" y="891" on="0"/>
        <pt x="400" y="912" on="0"/>
        <pt x="406" y="924" on="1"/>
        <pt x="418" y="950" on="0"/>
        <pt x="463" y="950" on="1"/>
        <pt x="510" y="950" on="0"/>
        <pt x="522" y="924" on="1"/>
        <pt x="532" y="904" on="0"/>
        <pt x="532" y="858" on="0"/>
        <pt x="528" y="837" on="0"/>
        <pt x="516" y="813" on="0"/>
      </contour>
    </TTGlyph>
    <TTGlyph name="Ugrave" xMin="79" yMin="-14" xMax="624" yMax="983">
      <contour>
        <pt x="488" y="730" on="1"/>
        <pt x="624" y="730" on="1"/>
        <pt x="624" y="241" on="1"/>
        <pt x="624" y="174" on="0"/>
        <pt x="590" y="78" on="0"/>
        <pt x="540" y="25" on="0"/>
        <pt x="462" y="-6" on="0"/>
        <pt x="395" y="-14" on="0"/>
        <pt x="307" y="-14" on="0"/>
        <pt x="240" y="-6" on="0"/>
        <pt x="162" y="25" on="0"/>
        <pt x="113" y="78" on="0"/>
        <pt x="79" y="174" on="0"/>
        <pt x="79" y="241" on="1"/>
        <pt x="79" y="730" on="1"/>
        <pt x="215" y="730" on="1"/>
        <pt x="215" y="251" on="1"/>
        <pt x="215" y="158" on="0"/>
        <pt x="287" y="97" on="0"/>
        <pt x="351" y="97" on="1"/>
        <pt x="382" y="97" on="0"/>
        <pt x="424" y="107" on="0"/>
        <pt x="445" y="122" on="1"/>
        <pt x="488" y="153" on="0"/>
        <pt x="488" y="251" on="1"/>
      </contour>
      <contour>
        <pt x="448" y="850" on="1"/>
        <pt x="403" y="778" on="1"/>
        <pt x="193" y="887" on="1"/>
        <pt x="253" y="983" on="1"/>
      </contour>
    </TTGlyph>
    <TTGlyph name="V" xMin="10" yMin="0" xMax="619" yMax="730">
      <contour>
        <pt x="402" y="0" on="1"/>
        <pt x="226" y="0" on="1"/>
        <pt x="10" y="730" on="1"/>
        <pt x="146" y="730" on="1"/>
        <pt x="314" y="132" on="1"/>
        <pt x="482" y="730" on="1"/>
        <pt x="619" y="730" on="1"/>
      </contour>
    </TTGlyph>
    <TTGlyph name="W" xMin="22" yMin="0" xMax="885" yMax="730">
      <contour>
        <pt x="360" y="0" on="1"/>
        <pt x="163" y="0" on="1"/>
        <pt x="22" y="730" on="1"/>
        <pt x="158" y="730" on="1"/>
        <pt x="266" y="135" on="1"/>
        <pt x="386" y="730" on="1"/>
        <pt x="521" y="730" on="1"/>
        <pt x="640" y="135" on="1"/>
        <pt x="749" y="730" on="1"/>
        <pt x="885" y="730" on="1"/>
        <pt x="744" y="0" on="1"/>
        <pt x="547" y="0" on="1"/>
        <pt x="453" y="455" on="1"/>
      </contour>
    </TTGlyph>
    <TTGlyph name="X" xMin="5" yMin="0" xMax="634" yMax="730">
      <contour>
        <pt x="5" y="730" on="1"/>
        <pt x="160" y="730" on="1"/>
        <pt x="324" y="477" on="1"/>
        <pt x="476" y="730" on="1"/>
        <pt x="619" y="730" on="1"/>
        <pt x="396" y="366" on="1"/>
        <pt x="634" y="0" on="1"/>
        <pt x="479" y="0" on="1"/>
        <pt x="306" y="266" on="1"/>
        <pt x="149" y="0" on="1"/>
        <pt x="7" y="0" on="1"/>
        <pt x="235" y="376" on="1"/>
      </contour>
    </TTGlyph>
    <TTGlyph name="Y" xMin="-6" yMin="0" xMax="580" yMax="730">
      <contour>
        <pt x="355" y="0" on="1"/>
        <pt x="219" y="0" on="1"/>
        <pt x="219" y="254" on="1"/>
        <pt x="-6" y="730" on="1"/>
        <pt x="130" y="730" on="1"/>
        <pt x="287" y="381" on="1"/>
        <pt x="444" y="730" on="1"/>
        <pt x="580" y="730" on="1"/>
        <pt x="355" y="254" on="1"/>
      </contour>
    </TTGlyph>
    <TTGlyph name="Yacute" xMin="-6" yMin="0" xMax="580" yMax="983">
      <contour>
        <pt x="355" y="0" on="1"/>
        <pt x="219" y="0" on="1"/>
        <pt x="219" y="254" on="1"/>
        <pt x="-6" y="730" on="1"/>
        <pt x="130" y="730" on="1"/>
        <pt x="287" y="381" on="1"/>
        <pt x="444" y="730" on="1"/>
        <pt x="580" y="730" on="1"/>
        <pt x="355" y="254" on="1"/>
      </contour>
      <contour>
        <pt x="225" y="778" on="1"/>
        <pt x="180" y="850" on="1"/>
        <pt x="375" y="983" on="1"/>
        <pt x="435" y="887" on="1"/>
      </contour>
    </TTGlyph>
    <TTGlyph name="Ydieresis" xMin="-6" yMin="0" xMax="580" yMax="950">
      <contour>
        <pt x="355" y="0" on="1"/>
        <pt x="219" y="0" on="1"/>
        <pt x="219" y="254" on="1"/>
        <pt x="-6" y="730" on="1"/>
        <pt x="130" y="730" on="1"/>
        <pt x="287" y="381" on="1"/>
        <pt x="444" y="730" on="1"/>
        <pt x="580" y="730" on="1"/>
        <pt x="355" y="254" on="1"/>
      </contour>
      <contour>
        <pt x="200" y="801" on="0"/>
        <pt x="154" y="801" on="0"/>
        <pt x="126" y="813" on="0"/>
        <pt x="120" y="825" on="1"/>
        <pt x="110" y="845" on="0"/>
        <pt x="110" y="891" on="0"/>
        <pt x="114" y="912" on="0"/>
        <pt x="120" y="924" on="1"/>
        <pt x="132" y="950" on="0"/>
        <pt x="177" y="950" on="1"/>
        <pt x="224" y="950" on="0"/>
        <pt x="236" y="924" on="1"/>
        <pt x="246" y="904" on="0"/>
        <pt x="246" y="858" on="0"/>
        <pt x="242" y="837" on="0"/>
        <pt x="230" y="813" on="0"/>
      </contour>
      <contour>
        <pt x="418" y="801" on="0"/>
        <pt x="372" y="801" on="0"/>
        <pt x="344" y="813" on="0"/>
        <pt x="338" y="825" on="1"/>
        <pt x="328" y="845" on="0"/>
        <pt x="328" y="891" on="0"/>
        <pt x="332" y="912" on="0"/>
        <pt x="338" y="924" on="1"/>
        <pt x="350" y="950" on="0"/>
        <pt x="395" y="950" on="1"/>
        <pt x="442" y="950" on="0"/>
        <pt x="454" y="924" on="1"/>
        <pt x="464" y="904" on="0"/>
        <pt x="464" y="858" on="0"/>
        <pt x="460" y="837" on="0"/>
        <pt x="448" y="813" on="0"/>
      </contour>
    </TTGlyph>
    <TTGlyph name="Z" xMin="22" yMin="0" xMax="540" yMax="730">
      <contour>
        <pt x="42" y="625" on="1"/>
        <pt x="42" y="730" on="1"/>
        <pt x="530" y="730" on="1"/>
        <pt x="530" y="644" on="1"/>
        <pt x="185" y="105" on="1"/>
        <pt x="540" y="105" on="1"/>
        <pt x="540" y="0" on="1"/>
        <pt x="22" y="0" on="1"/>
        <pt x="22" y="86" on="1"/>
        <pt x="367" y="625" on="1"/>
      </contour>
    </TTGlyph>
    <TTGlyph name="Zcaron" xMin="22" yMin="0" xMax="540" yMax="983">
      <contour>
        <pt x="42" y="625" on="1"/>
        <pt x="42" y="730" on="1"/>
        <pt x="530" y="730" on="1"/>
        <pt x="530" y="644" on="1"/>
        <pt x="185" y="105" on="1"/>
        <pt x="540" y="105" on="1"/>
        <pt x="540" y="0" on="1"/>
        <pt x="22" y="0" on="1"/>
        <pt x="22" y="86" on="1"/>
        <pt x="367" y="625" on="1"/>
      </contour>
      <contour>
        <pt x="401" y="983" on="1"/>
        <pt x="449" y="935" on="1"/>
        <pt x="321" y="788" on="1"/>
        <pt x="260" y="788" on="1"/>
        <pt x="132" y="935" on="1"/>
        <pt x="180" y="983" on="1"/>
        <pt x="291" y="899" on="1"/>
      </contour>
    </TTGlyph>
    <TTGlyph name="a" xMin="46" yMin="-14" xMax="513" yMax="586">
      <contour>
        <pt x="295" y="586" on="1"/>
        <pt x="513" y="586" on="0"/>
        <pt x="513" y="387" on="1"/>
        <pt x="513" y="0" on="1"/>
        <pt x="426" y="0" on="1"/>
        <pt x="388" y="70" on="1"/>
        <pt x="308" y="-14" on="0"/>
        <pt x="201" y="-14" on="1"/>
        <pt x="125" y="-14" on="0"/>
        <pt x="46" y="71" on="0"/>
        <pt x="46" y="214" on="0"/>
        <pt x="136" y="302" on="0"/>
        <pt x="259" y="320" on="1"/>
        <pt x="379" y="338" on="1"/>
        <pt x="379" y="386" on="1"/>
        <pt x="379" y="483" on="0"/>
        <pt x="287" y="483" on="1"/>
        <pt x="200" y="483" on="0"/>
        <pt x="184" y="395" on="1"/>
        <pt x="80" y="426" on="1"/>
        <pt x="118" y="586" on="0"/>
      </contour>
      <contour>
        <pt x="244" y="84" on="1"/>
        <pt x="312" y="84" on="0"/>
        <pt x="379" y="151" on="1"/>
        <pt x="379" y="254" on="1"/>
        <pt x="283" y="237" on="1"/>
        <pt x="218" y="226" on="0"/>
        <pt x="176" y="178" on="0"/>
        <pt x="176" y="118" on="0"/>
        <pt x="212" y="84" on="0"/>
      </contour>
    </TTGlyph>
    <TTGlyph name="aacute" xMin="46" yMin="-14" xMax="513" yMax="825">
      <contour>
        <pt x="295" y="586" on="1"/>
        <pt x="513" y="586" on="0"/>
        <pt x="513" y="387" on="1"/>
        <pt x="513" y="0" on="1"/>
        <pt x="426" y="0" on="1"/>
        <pt x="388" y="70" on="1"/>
        <pt x="308" y="-14" on="0"/>
        <pt x="201" y="-14" on="1"/>
        <pt x="125" y="-14" on="0"/>
        <pt x="46" y="71" on="0"/>
        <pt x="46" y="214" on="0"/>
        <pt x="136" y="302" on="0"/>
        <pt x="259" y="320" on="1"/>
        <pt x="379" y="338" on="1"/>
        <pt x="379" y="386" on="1"/>
        <pt x="379" y="483" on="0"/>
        <pt x="287" y="483" on="1"/>
        <pt x="200" y="483" on="0"/>
        <pt x="184" y="395" on="1"/>
        <pt x="80" y="426" on="1"/>
        <pt x="118" y="586" on="0"/>
      </contour>
      <contour>
        <pt x="244" y="84" on="1"/>
        <pt x="312" y="84" on="0"/>
        <pt x="379" y="151" on="1"/>
        <pt x="379" y="254" on="1"/>
        <pt x="283" y="237" on="1"/>
        <pt x="218" y="226" on="0"/>
        <pt x="176" y="178" on="0"/>
        <pt x="176" y="118" on="0"/>
        <pt x="212" y="84" on="0"/>
      </contour>
      <contour>
        <pt x="258" y="620" on="1"/>
        <pt x="213" y="692" on="1"/>
        <pt x="408" y="825" on="1"/>
        <pt x="468" y="729" on="1"/>
      </contour>
    </TTGlyph>
    <TTGlyph name="acircumflex" xMin="46" yMin="-14" xMax="513" yMax="821">
      <contour>
        <pt x="295" y="586" on="1"/>
        <pt x="513" y="586" on="0"/>
        <pt x="513" y="387" on="1"/>
        <pt x="513" y="0" on="1"/>
        <pt x="426" y="0" on="1"/>
        <pt x="388" y="70" on="1"/>
        <pt x="308" y="-14" on="0"/>
        <pt x="201" y="-14" on="1"/>
        <pt x="125" y="-14" on="0"/>
        <pt x="46" y="71" on="0"/>
        <pt x="46" y="214" on="0"/>
        <pt x="136" y="302" on="0"/>
        <pt x="259" y="320" on="1"/>
        <pt x="379" y="338" on="1"/>
        <pt x="379" y="386" on="1"/>
        <pt x="379" y="483" on="0"/>
        <pt x="287" y="483" on="1"/>
        <pt x="200" y="483" on="0"/>
        <pt x="184" y="395" on="1"/>
        <pt x="80" y="426" on="1"/>
        <pt x="118" y="586" on="0"/>
      </contour>
      <contour>
        <pt x="244" y="84" on="1"/>
        <pt x="312" y="84" on="0"/>
        <pt x="379" y="151" on="1"/>
        <pt x="379" y="254" on="1"/>
        <pt x="283" y="237" on="1"/>
        <pt x="218" y="226" on="0"/>
        <pt x="176" y="178" on="0"/>
        <pt x="176" y="118" on="0"/>
        <pt x="212" y="84" on="0"/>
      </contour>
      <contour>
        <pt x="179" y="626" on="1"/>
        <pt x="131" y="674" on="1"/>
        <pt x="259" y="821" on="1"/>
        <pt x="320" y="821" on="1"/>
        <pt x="448" y="674" on="1"/>
        <pt x="400" y="626" on="1"/>
        <pt x="289" y="710" on="1"/>
      </contour>
    </TTGlyph>
    <TTGlyph name="acute" xMin="27" yMin="620" xMax="282" yMax="825">
      <contour>
        <pt x="72" y="620" on="1"/>
        <pt x="27" y="692" on="1"/>
        <pt x="222" y="825" on="1"/>
        <pt x="282" y="729" on="1"/>
      </contour>
    </TTGlyph>
    <TTGlyph name="adieresis" xMin="46" yMin="-14" xMax="513" yMax="792">
      <contour>
        <pt x="295" y="586" on="1"/>
        <pt x="513" y="586" on="0"/>
        <pt x="513" y="387" on="1"/>
        <pt x="513" y="0" on="1"/>
        <pt x="426" y="0" on="1"/>
        <pt x="388" y="70" on="1"/>
        <pt x="308" y="-14" on="0"/>
        <pt x="201" y="-14" on="1"/>
        <pt x="125" y="-14" on="0"/>
        <pt x="46" y="71" on="0"/>
        <pt x="46" y="214" on="0"/>
        <pt x="136" y="302" on="0"/>
        <pt x="259" y="320" on="1"/>
        <pt x="379" y="338" on="1"/>
        <pt x="379" y="386" on="1"/>
        <pt x="379" y="483" on="0"/>
        <pt x="287" y="483" on="1"/>
        <pt x="200" y="483" on="0"/>
        <pt x="184" y="395" on="1"/>
        <pt x="80" y="426" on="1"/>
        <pt x="118" y="586" on="0"/>
      </contour>
      <contour>
        <pt x="244" y="84" on="1"/>
        <pt x="312" y="84" on="0"/>
        <pt x="379" y="151" on="1"/>
        <pt x="379" y="254" on="1"/>
        <pt x="283" y="237" on="1"/>
        <pt x="218" y="226" on="0"/>
        <pt x="176" y="178" on="0"/>
        <pt x="176" y="118" on="0"/>
        <pt x="212" y="84" on="0"/>
      </contour>
      <contour>
        <pt x="219" y="643" on="0"/>
        <pt x="173" y="643" on="0"/>
        <pt x="145" y="655" on="0"/>
        <pt x="139" y="667" on="1"/>
        <pt x="129" y="687" on="0"/>
        <pt x="129" y="733" on="0"/>
        <pt x="133" y="754" on="0"/>
        <pt x="139" y="766" on="1"/>
        <pt x="151" y="792" on="0"/>
        <pt x="196" y="792" on="1"/>
        <pt x="243" y="792" on="0"/>
        <pt x="255" y="766" on="1"/>
        <pt x="265" y="746" on="0"/>
        <pt x="265" y="700" on="0"/>
        <pt x="261" y="679" on="0"/>
        <pt x="249" y="655" on="0"/>
      </contour>
      <contour>
        <pt x="437" y="643" on="0"/>
        <pt x="391" y="643" on="0"/>
        <pt x="363" y="655" on="0"/>
        <pt x="357" y="667" on="1"/>
        <pt x="347" y="687" on="0"/>
        <pt x="347" y="733" on="0"/>
        <pt x="351" y="754" on="0"/>
        <pt x="357" y="766" on="1"/>
        <pt x="369" y="792" on="0"/>
        <pt x="414" y="792" on="1"/>
        <pt x="461" y="792" on="0"/>
        <pt x="473" y="766" on="1"/>
        <pt x="483" y="746" on="0"/>
        <pt x="483" y="700" on="0"/>
        <pt x="479" y="679" on="0"/>
        <pt x="467" y="655" on="0"/>
      </contour>
    </TTGlyph>
    <TTGlyph name="ae" xMin="45" yMin="-14" xMax="871" yMax="586">
      <contour>
        <pt x="631" y="-14" on="1"/>
        <pt x="474" y="-14" on="0"/>
        <pt x="417" y="84" on="1"/>
        <pt x="319" y="-14" on="0"/>
        <pt x="197" y="-14" on="1"/>
        <pt x="123" y="-14" on="0"/>
        <pt x="45" y="71" on="0"/>
        <pt x="45" y="213" on="0"/>
        <pt x="133" y="302" on="0"/>
        <pt x="255" y="322" on="1"/>
        <pt x="371" y="341" on="1"/>
        <pt x="371" y="386" on="1"/>
        <pt x="371" y="483" on="0"/>
        <pt x="197" y="483" on="0"/>
        <pt x="181" y="395" on="1"/>
        <pt x="76" y="423" on="1"/>
        <pt x="114" y="586" on="0"/>
        <pt x="291" y="586" on="1"/>
        <pt x="403" y="586" on="0"/>
        <pt x="457" y="531" on="1"/>
        <pt x="518" y="586" on="0"/>
        <pt x="627" y="586" on="1"/>
        <pt x="772" y="586" on="0"/>
        <pt x="826" y="496" on="1"/>
        <pt x="871" y="419" on="0"/>
        <pt x="871" y="296" on="1"/>
        <pt x="871" y="260" on="1"/>
        <pt x="505" y="260" on="1"/>
        <pt x="506" y="166" on="0"/>
        <pt x="566" y="89" on="0"/>
        <pt x="635" y="89" on="1"/>
        <pt x="746" y="89" on="0"/>
        <pt x="753" y="169" on="1"/>
        <pt x="863" y="165" on="1"/>
        <pt x="847" y="-14" on="0"/>
      </contour>
      <contour>
        <pt x="240" y="81" on="1"/>
        <pt x="323" y="81" on="0"/>
        <pt x="389" y="149" on="1"/>
        <pt x="376" y="208" on="0"/>
        <pt x="375" y="250" on="1"/>
        <pt x="279" y="232" on="1"/>
        <pt x="215" y="220" on="0"/>
        <pt x="174" y="174" on="0"/>
        <pt x="174" y="115" on="0"/>
        <pt x="209" y="81" on="0"/>
      </contour>
      <contour>
        <pt x="683" y="483" on="0"/>
        <pt x="569" y="483" on="0"/>
        <pt x="516" y="420" on="0"/>
        <pt x="508" y="351" on="1"/>
        <pt x="739" y="351" on="1"/>
        <pt x="733" y="418" on="0"/>
      </contour>
    </TTGlyph>
    <TTGlyph name="agrave" xMin="46" yMin="-14" xMax="513" yMax="825">
      <contour>
        <pt x="295" y="586" on="1"/>
        <pt x="513" y="586" on="0"/>
        <pt x="513" y="387" on="1"/>
        <pt x="513" y="0" on="1"/>
        <pt x="426" y="0" on="1"/>
        <pt x="388" y="70" on="1"/>
        <pt x="308" y="-14" on="0"/>
        <pt x="201" y="-14" on="1"/>
        <pt x="125" y="-14" on="0"/>
        <pt x="46" y="71" on="0"/>
        <pt x="46" y="214" on="0"/>
        <pt x="136" y="302" on="0"/>
        <pt x="259" y="320" on="1"/>
        <pt x="379" y="338" on="1"/>
        <pt x="379" y="386" on="1"/>
        <pt x="379" y="483" on="0"/>
        <pt x="287" y="483" on="1"/>
        <pt x="200" y="483" on="0"/>
        <pt x="184" y="395" on="1"/>
        <pt x="80" y="426" on="1"/>
        <pt x="118" y="586" on="0"/>
      </contour>
      <contour>
        <pt x="244" y="84" on="1"/>
        <pt x="312" y="84" on="0"/>
        <pt x="379" y="151" on="1"/>
        <pt x="379" y="254" on="1"/>
        <pt x="283" y="237" on="1"/>
        <pt x="218" y="226" on="0"/>
        <pt x="176" y="178" on="0"/>
        <pt x="176" y="118" on="0"/>
        <pt x="212" y="84" on="0"/>
      </contour>
      <contour>
        <pt x="412" y="692" on="1"/>
        <pt x="367" y="620" on="1"/>
        <pt x="157" y="729" on="1"/>
        <pt x="217" y="825" on="1"/>
      </contour>
    </TTGlyph>
    <TTGlyph name="ampersand" xMin="39" yMin="-15" xMax="653" yMax="744">
      <contour>
        <pt x="294" y="637" on="1"/>
        <pt x="240" y="637" on="0"/>
        <pt x="193" y="582" on="0"/>
        <pt x="193" y="478" on="0"/>
        <pt x="239" y="414" on="0"/>
        <pt x="279" y="414" on="1"/>
        <pt x="290" y="414" on="1"/>
        <pt x="290" y="321" on="1"/>
        <pt x="231" y="321" on="0"/>
        <pt x="173" y="266" on="0"/>
        <pt x="173" y="145" on="0"/>
        <pt x="232" y="92" on="0"/>
        <pt x="366" y="92" on="0"/>
        <pt x="423" y="150" on="0"/>
        <pt x="423" y="211" on="1"/>
        <pt x="423" y="321" on="1"/>
        <pt x="359" y="321" on="1"/>
        <pt x="359" y="414" on="1"/>
        <pt x="653" y="414" on="1"/>
        <pt x="653" y="321" on="1"/>
        <pt x="541" y="321" on="1"/>
        <pt x="541" y="226" on="1"/>
        <pt x="541" y="160" on="0"/>
        <pt x="522" y="77" on="0"/>
        <pt x="469" y="13" on="0"/>
        <pt x="369" y="-15" on="0"/>
        <pt x="289" y="-15" on="1"/>
        <pt x="159" y="-15" on="0"/>
        <pt x="39" y="98" on="0"/>
        <pt x="39" y="195" on="1"/>
        <pt x="39" y="265" on="0"/>
        <pt x="116" y="360" on="0"/>
        <pt x="180" y="376" on="1"/>
        <pt x="127" y="395" on="0"/>
        <pt x="59" y="485" on="0"/>
        <pt x="59" y="544" on="1"/>
        <pt x="59" y="635" on="0"/>
        <pt x="166" y="744" on="0"/>
        <pt x="385" y="744" on="0"/>
        <pt x="486" y="672" on="0"/>
        <pt x="500" y="593" on="1"/>
        <pt x="386" y="557" on="1"/>
        <pt x="373" y="637" on="0"/>
      </contour>
    </TTGlyph>
    <TTGlyph name="apple" xMin="92" yMin="-114" xMax="815" yMax="608">
      <contour>
        <pt x="581" y="-89" on="1"/>
        <pt x="558" y="-88" on="1"/>
        <pt x="544" y="-88" on="0"/>
        <pt x="509" y="-112" on="0"/>
        <pt x="500" y="-112" on="1"/>
        <pt x="454" y="-102" on="1"/>
        <pt x="446" y="-102" on="0"/>
        <pt x="415" y="-114" on="0"/>
        <pt x="398" y="-114" on="0"/>
        <pt x="366" y="-89" on="0"/>
        <pt x="353" y="-89" on="1"/>
        <pt x="329" y="-91" on="1"/>
        <pt x="314" y="-91" on="0"/>
        <pt x="296" y="-74" on="1"/>
        <pt x="278" y="-55" on="1"/>
        <pt x="266" y="-49" on="0"/>
        <pt x="240" y="-47" on="0"/>
        <pt x="222" y="-36" on="0"/>
        <pt x="208" y="-1" on="0"/>
        <pt x="197" y="8" on="0"/>
        <pt x="169" y="19" on="0"/>
        <pt x="163" y="28" on="1"/>
        <pt x="158" y="37" on="0"/>
        <pt x="154" y="66" on="0"/>
        <pt x="146" y="79" on="0"/>
        <pt x="136" y="86" on="1"/>
        <pt x="114" y="104" on="0"/>
        <pt x="114" y="124" on="1"/>
        <pt x="117" y="149" on="1"/>
        <pt x="117" y="158" on="0"/>
        <pt x="92" y="193" on="0"/>
        <pt x="92" y="211" on="0"/>
        <pt x="104" y="240" on="0"/>
        <pt x="104" y="257" on="0"/>
        <pt x="92" y="283" on="0"/>
        <pt x="92" y="301" on="0"/>
        <pt x="117" y="342" on="0"/>
        <pt x="117" y="351" on="1"/>
        <pt x="116" y="376" on="1"/>
        <pt x="116" y="391" on="0"/>
        <pt x="149" y="420" on="0"/>
        <pt x="154" y="430" on="0"/>
        <pt x="158" y="462" on="0"/>
        <pt x="166" y="474" on="0"/>
        <pt x="197" y="486" on="0"/>
        <pt x="207" y="496" on="0"/>
        <pt x="221" y="527" on="0"/>
        <pt x="234" y="538" on="0"/>
        <pt x="272" y="546" on="0"/>
        <pt x="283" y="552" on="0"/>
        <pt x="313" y="586" on="0"/>
        <pt x="327" y="587" on="1"/>
        <pt x="353" y="585" on="1"/>
        <pt x="366" y="585" on="0"/>
        <pt x="397" y="608" on="0"/>
        <pt x="408" y="608" on="1"/>
        <pt x="452" y="596" on="1"/>
        <pt x="497" y="608" on="1"/>
        <pt x="510" y="608" on="0"/>
        <pt x="542" y="583" on="0"/>
        <pt x="554" y="583" on="1"/>
        <pt x="582" y="586" on="1"/>
        <pt x="598" y="586" on="0"/>
        <pt x="624" y="553" on="0"/>
        <pt x="637" y="546" on="0"/>
        <pt x="667" y="540" on="0"/>
        <pt x="682" y="530" on="0"/>
        <pt x="692" y="502" on="0"/>
        <pt x="703" y="492" on="0"/>
        <pt x="743" y="471" on="0"/>
        <pt x="752" y="455" on="0"/>
        <pt x="753" y="423" on="0"/>
        <pt x="758" y="414" on="0"/>
        <pt x="792" y="385" on="0"/>
        <pt x="792" y="369" on="1"/>
        <pt x="791" y="344" on="1"/>
        <pt x="791" y="331" on="0"/>
        <pt x="815" y="294" on="0"/>
        <pt x="815" y="276" on="0"/>
        <pt x="804" y="250" on="0"/>
        <pt x="804" y="236" on="0"/>
        <pt x="815" y="207" on="0"/>
        <pt x="814" y="191" on="0"/>
        <pt x="790" y="166" on="0"/>
        <pt x="790" y="152" on="1"/>
        <pt x="792" y="120" on="1"/>
        <pt x="792" y="104" on="0"/>
        <pt x="760" y="78" on="0"/>
        <pt x="755" y="68" on="0"/>
        <pt x="746" y="30" on="0"/>
        <pt x="735" y="17" on="0"/>
        <pt x="710" y="6" on="0"/>
        <pt x="700" y="-4" on="0"/>
        <pt x="682" y="-37" on="0"/>
        <pt x="668" y="-47" on="0"/>
        <pt x="633" y="-56" on="0"/>
        <pt x="623" y="-62" on="0"/>
        <pt x="596" y="-89" on="0"/>
      </contour>
      <contour>
        <pt x="454" y="-6" on="1"/>
        <pt x="487" y="-13" on="1"/>
        <pt x="493" y="-13" on="0"/>
        <pt x="504" y="-6" on="1"/>
        <pt x="519" y="4" on="0"/>
        <pt x="531" y="4" on="1"/>
        <pt x="546" y="3" on="1"/>
        <pt x="558" y="3" on="0"/>
        <pt x="576" y="23" on="0"/>
        <pt x="583" y="27" on="0"/>
        <pt x="609" y="34" on="0"/>
        <pt x="620" y="42" on="0"/>
        <pt x="633" y="65" on="0"/>
        <pt x="640" y="72" on="0"/>
        <pt x="658" y="80" on="0"/>
        <pt x="666" y="89" on="0"/>
        <pt x="672" y="117" on="0"/>
        <pt x="677" y="125" on="0"/>
        <pt x="699" y="143" on="0"/>
        <pt x="699" y="157" on="1"/>
        <pt x="698" y="177" on="1"/>
        <pt x="698" y="188" on="0"/>
        <pt x="715" y="207" on="0"/>
        <pt x="716" y="213" on="1"/>
        <pt x="708" y="245" on="1"/>
        <pt x="716" y="273" on="1"/>
        <pt x="716" y="281" on="0"/>
        <pt x="698" y="309" on="0"/>
        <pt x="698" y="318" on="1"/>
        <pt x="699" y="335" on="1"/>
        <pt x="699" y="347" on="0"/>
        <pt x="675" y="367" on="0"/>
        <pt x="671" y="375" on="0"/>
        <pt x="670" y="398" on="0"/>
        <pt x="664" y="409" on="0"/>
        <pt x="635" y="424" on="0"/>
        <pt x="627" y="432" on="0"/>
        <pt x="619" y="452" on="0"/>
        <pt x="609" y="460" on="0"/>
        <pt x="587" y="464" on="0"/>
        <pt x="577" y="469" on="0"/>
        <pt x="559" y="493" on="0"/>
        <pt x="547" y="493" on="1"/>
        <pt x="527" y="491" on="1"/>
        <pt x="518" y="491" on="0"/>
        <pt x="496" y="509" on="0"/>
        <pt x="486" y="509" on="1"/>
        <pt x="453" y="500" on="1"/>
        <pt x="421" y="509" on="1"/>
        <pt x="413" y="509" on="0"/>
        <pt x="389" y="492" on="0"/>
        <pt x="379" y="492" on="1"/>
        <pt x="362" y="493" on="1"/>
        <pt x="351" y="493" on="0"/>
        <pt x="330" y="468" on="0"/>
        <pt x="321" y="463" on="0"/>
        <pt x="295" y="458" on="0"/>
        <pt x="285" y="450" on="0"/>
        <pt x="275" y="428" on="0"/>
        <pt x="267" y="420" on="0"/>
        <pt x="246" y="412" on="0"/>
        <pt x="242" y="407" on="1"/>
        <pt x="240" y="403" on="0"/>
        <pt x="236" y="380" on="0"/>
        <pt x="232" y="372" on="0"/>
        <pt x="208" y="351" on="0"/>
        <pt x="208" y="340" on="1"/>
        <pt x="209" y="324" on="1"/>
        <pt x="209" y="316" on="0"/>
        <pt x="192" y="286" on="0"/>
        <pt x="192" y="278" on="1"/>
        <pt x="200" y="248" on="1"/>
        <pt x="192" y="215" on="1"/>
        <pt x="192" y="207" on="0"/>
        <pt x="209" y="182" on="0"/>
        <pt x="209" y="174" on="1"/>
        <pt x="207" y="158" on="1"/>
        <pt x="207" y="147" on="0"/>
        <pt x="232" y="124" on="0"/>
        <pt x="236" y="116" on="0"/>
        <pt x="239" y="95" on="0"/>
        <pt x="247" y="82" on="0"/>
        <pt x="267" y="74" on="0"/>
        <pt x="275" y="67" on="0"/>
        <pt x="286" y="41" on="0"/>
        <pt x="298" y="33" on="0"/>
        <pt x="317" y="33" on="0"/>
        <pt x="329" y="27" on="0"/>
        <pt x="352" y="2" on="0"/>
        <pt x="363" y="2" on="1"/>
        <pt x="378" y="3" on="1"/>
        <pt x="388" y="3" on="0"/>
        <pt x="412" y="-14" on="0"/>
        <pt x="418" y="-15" on="1"/>
      </contour>
      <contour>
        <pt x="384" y="417" on="0"/>
        <pt x="524" y="417" on="0"/>
        <pt x="624" y="318" on="0"/>
        <pt x="624" y="176" on="0"/>
        <pt x="524" y="77" on="0"/>
        <pt x="384" y="77" on="0"/>
        <pt x="284" y="176" on="0"/>
        <pt x="284" y="318" on="0"/>
      </contour>
      <contour>
        <pt x="497" y="292" on="1"/>
        <pt x="549" y="292" on="1"/>
        <pt x="549" y="360" on="1"/>
        <pt x="358" y="360" on="1"/>
        <pt x="358" y="292" on="1"/>
        <pt x="412" y="292" on="1"/>
        <pt x="412" y="117" on="1"/>
        <pt x="497" y="117" on="1"/>
      </contour>
    </TTGlyph>
    <TTGlyph name="approxequal" xMin="86" yMin="150" xMax="494" yMax="483">
      <contour>
        <pt x="86" y="464" on="1"/>
        <pt x="120" y="440" on="0"/>
        <pt x="213" y="440" on="0"/>
        <pt x="366" y="483" on="0"/>
        <pt x="457" y="483" on="0"/>
        <pt x="494" y="464" on="1"/>
        <pt x="494" y="372" on="1"/>
        <pt x="456" y="393" on="0"/>
        <pt x="366" y="393" on="0"/>
        <pt x="213" y="350" on="0"/>
        <pt x="123" y="350" on="0"/>
        <pt x="86" y="372" on="1"/>
      </contour>
      <contour>
        <pt x="86" y="264" on="1"/>
        <pt x="120" y="240" on="0"/>
        <pt x="213" y="240" on="0"/>
        <pt x="366" y="283" on="0"/>
        <pt x="457" y="283" on="0"/>
        <pt x="494" y="264" on="1"/>
        <pt x="494" y="172" on="1"/>
        <pt x="456" y="193" on="0"/>
        <pt x="366" y="193" on="0"/>
        <pt x="213" y="150" on="0"/>
        <pt x="123" y="150" on="0"/>
        <pt x="86" y="172" on="1"/>
      </contour>
    </TTGlyph>
    <TTGlyph name="aring" xMin="46" yMin="-14" xMax="513" yMax="837">
      <contour>
        <pt x="295" y="586" on="1"/>
        <pt x="513" y="586" on="0"/>
        <pt x="513" y="387" on="1"/>
        <pt x="513" y="0" on="1"/>
        <pt x="426" y="0" on="1"/>
        <pt x="388" y="70" on="1"/>
        <pt x="308" y="-14" on="0"/>
        <pt x="201" y="-14" on="1"/>
        <pt x="125" y="-14" on="0"/>
        <pt x="46" y="71" on="0"/>
        <pt x="46" y="214" on="0"/>
        <pt x="136" y="302" on="0"/>
        <pt x="259" y="320" on="1"/>
        <pt x="379" y="338" on="1"/>
        <pt x="379" y="386" on="1"/>
        <pt x="379" y="483" on="0"/>
        <pt x="287" y="483" on="1"/>
        <pt x="200" y="483" on="0"/>
        <pt x="184" y="395" on="1"/>
        <pt x="80" y="426" on="1"/>
        <pt x="118" y="586" on="0"/>
      </contour>
      <contour>
        <pt x="244" y="84" on="1"/>
        <pt x="312" y="84" on="0"/>
        <pt x="379" y="151" on="1"/>
        <pt x="379" y="254" on="1"/>
        <pt x="283" y="237" on="1"/>
        <pt x="218" y="226" on="0"/>
        <pt x="176" y="178" on="0"/>
        <pt x="176" y="118" on="0"/>
        <pt x="212" y="84" on="0"/>
      </contour>
      <contour>
        <pt x="308" y="676" on="1"/>
        <pt x="349" y="676" on="0"/>
        <pt x="349" y="774" on="0"/>
        <pt x="308" y="774" on="1"/>
        <pt x="271" y="774" on="0"/>
        <pt x="271" y="676" on="0"/>
      </contour>
      <contour>
        <pt x="308" y="612" on="1"/>
        <pt x="197" y="612" on="0"/>
        <pt x="197" y="837" on="0"/>
        <pt x="308" y="837" on="1"/>
        <pt x="373" y="837" on="0"/>
        <pt x="423" y="770" on="0"/>
        <pt x="423" y="678" on="0"/>
        <pt x="373" y="612" on="0"/>
      </contour>
    </TTGlyph>
    <TTGlyph name="asciicircum" xMin="80" yMin="316" xMax="500" yMax="618">
      <contour>
        <pt x="232" y="618" on="1"/>
        <pt x="348" y="618" on="1"/>
        <pt x="500" y="316" on="1"/>
        <pt x="398" y="316" on="1"/>
        <pt x="290" y="545" on="1"/>
        <pt x="182" y="316" on="1"/>
        <pt x="80" y="316" on="1"/>
      </contour>
    </TTGlyph>
    <TTGlyph name="asciitilde" xMin="86" yMin="250" xMax="494" yMax="383">
      <contour>
        <pt x="86" y="364" on="1"/>
        <pt x="120" y="340" on="0"/>
        <pt x="213" y="340" on="0"/>
        <pt x="366" y="383" on="0"/>
        <pt x="457" y="383" on="0"/>
        <pt x="494" y="364" on="1"/>
        <pt x="494" y="272" on="1"/>
        <pt x="456" y="293" on="0"/>
        <pt x="366" y="293" on="0"/>
        <pt x="213" y="250" on="0"/>
        <pt x="123" y="250" on="0"/>
        <pt x="86" y="272" on="1"/>
      </contour>
    </TTGlyph>
    <TTGlyph name="asterisk" xMin="24" yMin="293" xMax="533" yMax="779">
      <contour>
        <pt x="214" y="779" on="1"/>
        <pt x="342" y="779" on="1"/>
        <pt x="342" y="684" on="1"/>
        <pt x="298" y="577" on="1"/>
        <pt x="258" y="577" on="1"/>
        <pt x="214" y="684" on="1"/>
      </contour>
      <contour>
        <pt x="24" y="554" on="1"/>
        <pt x="60" y="661" on="1"/>
        <pt x="151" y="631" on="1"/>
        <pt x="241" y="564" on="1"/>
        <pt x="228" y="526" on="1"/>
        <pt x="115" y="523" on="1"/>
      </contour>
      <contour>
        <pt x="181" y="293" on="1"/>
        <pt x="84" y="366" on="1"/>
        <pt x="140" y="447" on="1"/>
        <pt x="235" y="506" on="1"/>
        <pt x="267" y="481" on="1"/>
        <pt x="239" y="373" on="1"/>
      </contour>
      <contour>
        <pt x="473" y="366" on="1"/>
        <pt x="376" y="293" on="1"/>
        <pt x="318" y="373" on="1"/>
        <pt x="289" y="481" on="1"/>
        <pt x="322" y="505" on="1"/>
        <pt x="417" y="447" on="1"/>
      </contour>
      <contour>
        <pt x="497" y="661" on="1"/>
        <pt x="533" y="554" on="1"/>
        <pt x="442" y="523" on="1"/>
        <pt x="329" y="525" on="1"/>
        <pt x="317" y="564" on="1"/>
        <pt x="405" y="631" on="1"/>
      </contour>
    </TTGlyph>
    <TTGlyph name="at" xMin="74" yMin="-113" xMax="978" yMax="769">
      <contour>
        <pt x="534" y="-113" on="1"/>
        <pt x="234" y="-113" on="0"/>
        <pt x="134" y="60" on="1"/>
        <pt x="74" y="163" on="0"/>
        <pt x="74" y="328" on="1"/>
        <pt x="74" y="533" on="0"/>
        <pt x="302" y="769" on="0"/>
        <pt x="746" y="769" on="0"/>
        <pt x="978" y="555" on="0"/>
        <pt x="978" y="365" on="1"/>
        <pt x="978" y="253" on="0"/>
        <pt x="934" y="192" on="1"/>
        <pt x="884" y="125" on="0"/>
        <pt x="749" y="125" on="1"/>
        <pt x="630" y="125" on="1"/>
        <pt x="597" y="173" on="1"/>
        <pt x="535" y="115" on="0"/>
        <pt x="463" y="115" on="1"/>
        <pt x="310" y="115" on="0"/>
        <pt x="310" y="565" on="0"/>
        <pt x="496" y="565" on="1"/>
        <pt x="565" y="565" on="0"/>
        <pt x="631" y="533" on="1"/>
        <pt x="656" y="565" on="1"/>
        <pt x="708" y="565" on="1"/>
        <pt x="708" y="213" on="1"/>
        <pt x="737" y="213" on="1"/>
        <pt x="807" y="213" on="0"/>
        <pt x="861" y="281" on="0"/>
        <pt x="861" y="365" on="1"/>
        <pt x="861" y="504" on="0"/>
        <pt x="707" y="674" on="0"/>
        <pt x="534" y="674" on="1"/>
        <pt x="350" y="674" on="0"/>
        <pt x="272" y="578" on="1"/>
        <pt x="200" y="489" on="0"/>
        <pt x="200" y="328" on="1"/>
        <pt x="200" y="262" on="0"/>
        <pt x="215" y="163" on="0"/>
        <pt x="259" y="72" on="0"/>
        <pt x="296" y="44" on="1"/>
        <pt x="374" y="-18" on="0"/>
        <pt x="534" y="-18" on="1"/>
        <pt x="708" y="-18" on="1"/>
        <pt x="708" y="-113" on="1"/>
      </contour>
      <contour>
        <pt x="513" y="206" on="1"/>
        <pt x="551" y="206" on="0"/>
        <pt x="586" y="241" on="1"/>
        <pt x="586" y="463" on="1"/>
        <pt x="560" y="473" on="0"/>
        <pt x="529" y="473" on="1"/>
        <pt x="476" y="473" on="0"/>
        <pt x="430" y="407" on="0"/>
        <pt x="430" y="340" on="1"/>
        <pt x="430" y="206" on="0"/>
      </contour>
    </TTGlyph>
    <TTGlyph name="atilde" xMin="46" yMin="-14" xMax="513" yMax="802">
      <contour>
        <pt x="295" y="586" on="1"/>
        <pt x="513" y="586" on="0"/>
        <pt x="513" y="387" on="1"/>
        <pt x="513" y="0" on="1"/>
        <pt x="426" y="0" on="1"/>
        <pt x="388" y="70" on="1"/>
        <pt x="308" y="-14" on="0"/>
        <pt x="201" y="-14" on="1"/>
        <pt x="125" y="-14" on="0"/>
        <pt x="46" y="71" on="0"/>
        <pt x="46" y="214" on="0"/>
        <pt x="136" y="302" on="0"/>
        <pt x="259" y="320" on="1"/>
        <pt x="379" y="338" on="1"/>
        <pt x="379" y="386" on="1"/>
        <pt x="379" y="483" on="0"/>
        <pt x="287" y="483" on="1"/>
        <pt x="200" y="483" on="0"/>
        <pt x="184" y="395" on="1"/>
        <pt x="80" y="426" on="1"/>
        <pt x="118" y="586" on="0"/>
      </contour>
      <contour>
        <pt x="244" y="84" on="1"/>
        <pt x="312" y="84" on="0"/>
        <pt x="379" y="151" on="1"/>
        <pt x="379" y="254" on="1"/>
        <pt x="283" y="237" on="1"/>
        <pt x="218" y="226" on="0"/>
        <pt x="176" y="178" on="0"/>
        <pt x="176" y="118" on="0"/>
        <pt x="212" y="84" on="0"/>
      </contour>
      <contour>
        <pt x="449" y="715" on="0"/>
        <pt x="398" y="661" on="0"/>
        <pt x="338" y="661" on="0"/>
        <pt x="244" y="697" on="0"/>
        <pt x="229" y="697" on="1"/>
        <pt x="200" y="697" on="0"/>
        <pt x="187" y="653" on="1"/>
        <pt x="112" y="677" on="1"/>
        <pt x="129" y="740" on="0"/>
        <pt x="180" y="794" on="0"/>
        <pt x="240" y="794" on="0"/>
        <pt x="335" y="758" on="0"/>
        <pt x="350" y="758" on="1"/>
        <pt x="379" y="758" on="0"/>
        <pt x="392" y="802" on="1"/>
        <pt x="466" y="778" on="1"/>
      </contour>
    </TTGlyph>
    <TTGlyph name="b" xMin="94" yMin="-14" xMax="592" yMax="762">
      <contour>
        <pt x="362" y="-14" on="1"/>
        <pt x="271" y="-14" on="0"/>
        <pt x="189" y="38" on="1"/>
        <pt x="158" y="0" on="1"/>
        <pt x="94" y="0" on="1"/>
        <pt x="94" y="752" on="1"/>
        <pt x="228" y="762" on="1"/>
        <pt x="228" y="558" on="1"/>
        <pt x="296" y="586" on="0"/>
        <pt x="362" y="586" on="1"/>
        <pt x="592" y="586" on="0"/>
        <pt x="592" y="-14" on="0"/>
      </contour>
      <contour>
        <pt x="325" y="483" on="1"/>
        <pt x="277" y="483" on="0"/>
        <pt x="228" y="463" on="1"/>
        <pt x="228" y="112" on="1"/>
        <pt x="271" y="89" on="0"/>
        <pt x="322" y="89" on="1"/>
        <pt x="458" y="89" on="0"/>
        <pt x="458" y="483" on="0"/>
      </contour>
    </TTGlyph>
    <TTGlyph name="backslash" xMin="-8" yMin="-106" xMax="364" yMax="775">
      <contour>
        <pt x="127" y="775" on="1"/>
        <pt x="364" y="-106" on="1"/>
        <pt x="229" y="-106" on="1"/>
        <pt x="-8" y="775" on="1"/>
      </contour>
    </TTGlyph>
    <TTGlyph name="bar" xMin="96" yMin="-106" xMax="241" yMax="775">
      <contour>
        <pt x="96" y="-106" on="1"/>
        <pt x="96" y="775" on="1"/>
        <pt x="241" y="775" on="1"/>
        <pt x="241" y="-106" on="1"/>
      </contour>
    </TTGlyph>
    <TTGlyph name="braceleft" xMin="12" yMin="-66" xMax="320" yMax="736">
      <contour>
        <pt x="209" y="512" on="1"/>
        <pt x="217" y="404" on="1"/>
        <pt x="217" y="376" on="0"/>
        <pt x="188" y="343" on="0"/>
        <pt x="168" y="343" on="1"/>
        <pt x="168" y="338" on="1"/>
        <pt x="188" y="338" on="0"/>
        <pt x="217" y="304" on="0"/>
        <pt x="217" y="277" on="1"/>
        <pt x="209" y="164" on="1"/>
        <pt x="209" y="28" on="0"/>
        <pt x="320" y="28" on="1"/>
        <pt x="320" y="-66" on="1"/>
        <pt x="189" y="-66" on="0"/>
        <pt x="71" y="45" on="0"/>
        <pt x="71" y="137" on="1"/>
        <pt x="79" y="250" on="1"/>
        <pt x="79" y="274" on="0"/>
        <pt x="35" y="294" on="0"/>
        <pt x="12" y="294" on="1"/>
        <pt x="12" y="376" on="1"/>
        <pt x="35" y="376" on="0"/>
        <pt x="79" y="396" on="0"/>
        <pt x="79" y="420" on="1"/>
        <pt x="79" y="420" on="0"/>
        <pt x="71" y="533" on="1"/>
        <pt x="71" y="625" on="0"/>
        <pt x="189" y="736" on="0"/>
        <pt x="320" y="736" on="1"/>
        <pt x="320" y="642" on="1"/>
        <pt x="209" y="642" on="0"/>
      </contour>
    </TTGlyph>
    <TTGlyph name="braceright" xMin="9" yMin="-66" xMax="317" yMax="736">
      <contour>
        <pt x="120" y="167" on="1"/>
        <pt x="113" y="282" on="1"/>
        <pt x="113" y="310" on="0"/>
        <pt x="141" y="344" on="0"/>
        <pt x="161" y="344" on="1"/>
        <pt x="161" y="349" on="1"/>
        <pt x="141" y="349" on="0"/>
        <pt x="113" y="383" on="0"/>
        <pt x="113" y="411" on="1"/>
        <pt x="120" y="526" on="1"/>
        <pt x="120" y="581" on="0"/>
        <pt x="70" y="642" on="0"/>
        <pt x="9" y="642" on="1"/>
        <pt x="9" y="736" on="1"/>
        <pt x="141" y="736" on="0"/>
        <pt x="258" y="626" on="0"/>
        <pt x="258" y="533" on="1"/>
        <pt x="250" y="420" on="1"/>
        <pt x="250" y="396" on="0"/>
        <pt x="292" y="376" on="0"/>
        <pt x="317" y="376" on="1"/>
        <pt x="317" y="294" on="1"/>
        <pt x="292" y="294" on="0"/>
        <pt x="250" y="274" on="0"/>
        <pt x="250" y="250" on="1"/>
        <pt x="250" y="250" on="0"/>
        <pt x="258" y="137" on="1"/>
        <pt x="258" y="44" on="0"/>
        <pt x="141" y="-66" on="0"/>
        <pt x="9" y="-66" on="1"/>
        <pt x="9" y="28" on="1"/>
        <pt x="120" y="28" on="0"/>
      </contour>
    </TTGlyph>
    <TTGlyph name="bracketleft" xMin="72" yMin="-66" xMax="319" yMax="735">
      <contour>
        <pt x="72" y="-66" on="1"/>
        <pt x="72" y="735" on="1"/>
        <pt x="319" y="735" on="1"/>
        <pt x="319" y="643" on="1"/>
        <pt x="209" y="643" on="1"/>
        <pt x="209" y="26" on="1"/>
        <pt x="319" y="26" on="1"/>
        <pt x="319" y="-66" on="1"/>
      </contour>
    </TTGlyph>
    <TTGlyph name="bracketright" xMin="9" yMin="-66" xMax="256" yMax="735">
      <contour>
        <pt x="256" y="735" on="1"/>
        <pt x="256" y="-66" on="1"/>
        <pt x="9" y="-66" on="1"/>
        <pt x="9" y="26" on="1"/>
        <pt x="119" y="26" on="1"/>
        <pt x="119" y="643" on="1"/>
        <pt x="9" y="643" on="1"/>
        <pt x="9" y="735" on="1"/>
      </contour>
    </TTGlyph>
    <TTGlyph name="breve" xMin="67" yMin="636" xMax="342" yMax="787">
      <contour>
        <pt x="268" y="787" on="1"/>
        <pt x="342" y="787" on="1"/>
        <pt x="342" y="723" on="0"/>
        <pt x="320" y="684" on="1"/>
        <pt x="292" y="636" on="0"/>
        <pt x="204" y="636" on="1"/>
        <pt x="117" y="636" on="0"/>
        <pt x="90" y="684" on="1"/>
        <pt x="67" y="723" on="0"/>
        <pt x="67" y="787" on="1"/>
        <pt x="140" y="787" on="1"/>
        <pt x="140" y="752" on="0"/>
        <pt x="165" y="717" on="0"/>
        <pt x="243" y="717" on="0"/>
        <pt x="268" y="752" on="0"/>
      </contour>
    </TTGlyph>
    <TTGlyph name="brokenbar" xMin="96" yMin="-106" xMax="241" yMax="775">
      <contour>
        <pt x="96" y="421" on="1"/>
        <pt x="96" y="775" on="1"/>
        <pt x="241" y="775" on="1"/>
        <pt x="241" y="421" on="1"/>
      </contour>
      <contour>
        <pt x="96" y="-106" on="1"/>
        <pt x="96" y="248" on="1"/>
        <pt x="241" y="248" on="1"/>
        <pt x="241" y="-106" on="1"/>
      </contour>
    </TTGlyph>
    <TTGlyph name="bullet" xMin="24" yMin="214" xMax="240" yMax="449">
      <contour>
        <pt x="215" y="234" on="0"/>
        <pt x="168" y="214" on="0"/>
        <pt x="96" y="214" on="0"/>
        <pt x="50" y="234" on="0"/>
        <pt x="40" y="253" on="1"/>
        <pt x="24" y="283" on="0"/>
        <pt x="24" y="357" on="0"/>
        <pt x="30" y="392" on="0"/>
        <pt x="40" y="411" on="1"/>
        <pt x="60" y="449" on="0"/>
        <pt x="131" y="449" on="1"/>
        <pt x="206" y="449" on="0"/>
        <pt x="224" y="410" on="1"/>
        <pt x="240" y="379" on="0"/>
        <pt x="240" y="306" on="0"/>
        <pt x="234" y="272" on="0"/>
      </contour>
    </TTGlyph>
    <TTGlyph name="c" xMin="36" yMin="-14" xMax="510" yMax="586">
      <contour>
        <pt x="170" y="387" on="0"/>
        <pt x="170" y="185" on="0"/>
        <pt x="221" y="89" on="0"/>
        <pt x="348" y="89" on="0"/>
        <pt x="403" y="141" on="0"/>
        <pt x="405" y="197" on="1"/>
        <pt x="510" y="192" on="1"/>
        <pt x="504" y="90" on="0"/>
        <pt x="397" y="-14" on="0"/>
        <pt x="275" y="-14" on="1"/>
        <pt x="132" y="-14" on="0"/>
        <pt x="80" y="79" on="1"/>
        <pt x="55" y="124" on="0"/>
        <pt x="36" y="222" on="0"/>
        <pt x="36" y="351" on="0"/>
        <pt x="55" y="450" on="0"/>
        <pt x="80" y="494" on="1"/>
        <pt x="131" y="586" on="0"/>
        <pt x="275" y="586" on="1"/>
        <pt x="396" y="586" on="0"/>
        <pt x="502" y="487" on="0"/>
        <pt x="509" y="389" on="1"/>
        <pt x="405" y="375" on="1"/>
        <pt x="403" y="431" on="0"/>
        <pt x="348" y="483" on="0"/>
        <pt x="221" y="483" on="0"/>
      </contour>
    </TTGlyph>
    <TTGlyph name="caron" xMin="19" yMin="630" xMax="336" yMax="825">
      <contour>
        <pt x="288" y="825" on="1"/>
        <pt x="336" y="777" on="1"/>
        <pt x="208" y="630" on="1"/>
        <pt x="147" y="630" on="1"/>
        <pt x="19" y="777" on="1"/>
        <pt x="67" y="825" on="1"/>
        <pt x="178" y="741" on="1"/>
      </contour>
    </TTGlyph>
    <TTGlyph name="ccedilla" xMin="36" yMin="-241" xMax="510" yMax="586">
      <contour>
        <pt x="170" y="387" on="0"/>
        <pt x="170" y="185" on="0"/>
        <pt x="221" y="89" on="0"/>
        <pt x="348" y="89" on="0"/>
        <pt x="403" y="141" on="0"/>
        <pt x="405" y="197" on="1"/>
        <pt x="510" y="192" on="1"/>
        <pt x="504" y="90" on="0"/>
        <pt x="397" y="-14" on="0"/>
        <pt x="275" y="-14" on="1"/>
        <pt x="132" y="-14" on="0"/>
        <pt x="80" y="79" on="1"/>
        <pt x="55" y="124" on="0"/>
        <pt x="36" y="222" on="0"/>
        <pt x="36" y="351" on="0"/>
        <pt x="55" y="450" on="0"/>
        <pt x="80" y="494" on="1"/>
        <pt x="131" y="586" on="0"/>
        <pt x="275" y="586" on="1"/>
        <pt x="396" y="586" on="0"/>
        <pt x="502" y="487" on="0"/>
        <pt x="509" y="389" on="1"/>
        <pt x="405" y="375" on="1"/>
        <pt x="403" y="431" on="0"/>
        <pt x="348" y="483" on="0"/>
        <pt x="221" y="483" on="0"/>
      </contour>
      <contour>
        <pt x="149" y="-130" on="1"/>
        <pt x="233" y="-130" on="1"/>
        <pt x="233" y="-167" on="0"/>
        <pt x="265" y="-167" on="1"/>
        <pt x="279" y="-167" on="0"/>
        <pt x="295" y="-154" on="0"/>
        <pt x="298" y="-140" on="0"/>
        <pt x="298" y="-129" on="1"/>
        <pt x="298" y="-98" on="0"/>
        <pt x="262" y="-92" on="1"/>
        <pt x="209" y="-83" on="1"/>
        <pt x="218" y="-35" on="1"/>
        <pt x="262" y="-35" on="1"/>
        <pt x="319" y="-35" on="0"/>
        <pt x="380" y="-76" on="0"/>
        <pt x="380" y="-186" on="0"/>
        <pt x="329" y="-241" on="0"/>
        <pt x="264" y="-241" on="1"/>
        <pt x="149" y="-241" on="0"/>
      </contour>
    </TTGlyph>
    <TTGlyph name="cedilla" xMin="26" yMin="-241" xMax="257" yMax="-35">
      <contour>
        <pt x="26" y="-130" on="1"/>
        <pt x="110" y="-130" on="1"/>
        <pt x="110" y="-167" on="0"/>
        <pt x="142" y="-167" on="1"/>
        <pt x="156" y="-167" on="0"/>
        <pt x="172" y="-154" on="0"/>
        <pt x="175" y="-140" on="0"/>
        <pt x="175" y="-129" on="1"/>
        <pt x="175" y="-98" on="0"/>
        <pt x="139" y="-92" on="1"/>
        <pt x="86" y="-83" on="1"/>
        <pt x="95" y="-35" on="1"/>
        <pt x="139" y="-35" on="1"/>
        <pt x="196" y="-35" on="0"/>
        <pt x="257" y="-76" on="0"/>
        <pt x="257" y="-186" on="0"/>
        <pt x="206" y="-241" on="0"/>
        <pt x="141" y="-241" on="1"/>
        <pt x="26" y="-241" on="0"/>
      </contour>
    </TTGlyph>
    <TTGlyph name="cent" xMin="67" yMin="-81" xMax="579" yMax="810">
      <contour>
        <pt x="376" y="-81" on="1"/>
        <pt x="286" y="-81" on="1"/>
        <pt x="286" y="40" on="1"/>
        <pt x="67" y="66" on="0"/>
        <pt x="67" y="655" on="0"/>
        <pt x="286" y="688" on="1"/>
        <pt x="286" y="810" on="1"/>
        <pt x="376" y="810" on="1"/>
        <pt x="376" y="691" on="1"/>
        <pt x="555" y="675" on="0"/>
        <pt x="571" y="471" on="1"/>
        <pt x="465" y="466" on="1"/>
        <pt x="463" y="520" on="0"/>
        <pt x="404" y="588" on="0"/>
        <pt x="302" y="588" on="0"/>
        <pt x="241" y="554" on="0"/>
        <pt x="226" y="520" on="1"/>
        <pt x="201" y="462" on="0"/>
        <pt x="201" y="365" on="1"/>
        <pt x="201" y="142" on="0"/>
        <pt x="470" y="142" on="0"/>
        <pt x="473" y="249" on="1"/>
        <pt x="579" y="242" on="1"/>
        <pt x="564" y="57" on="0"/>
        <pt x="376" y="40" on="1"/>
      </contour>
    </TTGlyph>
    <TTGlyph name="circumflex" xMin="34" yMin="626" xMax="351" yMax="821">
      <contour>
        <pt x="82" y="626" on="1"/>
        <pt x="34" y="674" on="1"/>
        <pt x="162" y="821" on="1"/>
        <pt x="223" y="821" on="1"/>
        <pt x="351" y="674" on="1"/>
        <pt x="303" y="626" on="1"/>
        <pt x="192" y="710" on="1"/>
      </contour>
    </TTGlyph>
    <TTGlyph name="colon" xMin="45" yMin="-8" xMax="189" yMax="546">
      <contour>
        <pt x="172" y="5" on="0"/>
        <pt x="141" y="-8" on="0"/>
        <pt x="85" y="-8" on="0"/>
        <pt x="52" y="18" on="0"/>
        <pt x="45" y="47" on="0"/>
        <pt x="45" y="87" on="0"/>
        <pt x="49" y="110" on="0"/>
        <pt x="56" y="123" on="1"/>
        <pt x="68" y="149" on="0"/>
        <pt x="116" y="149" on="1"/>
        <pt x="166" y="149" on="0"/>
        <pt x="178" y="123" on="1"/>
        <pt x="189" y="102" on="0"/>
        <pt x="189" y="53" on="0"/>
        <pt x="185" y="31" on="0"/>
      </contour>
      <contour>
        <pt x="172" y="402" on="0"/>
        <pt x="141" y="389" on="0"/>
        <pt x="85" y="389" on="0"/>
        <pt x="52" y="415" on="0"/>
        <pt x="45" y="444" on="0"/>
        <pt x="45" y="484" on="0"/>
        <pt x="49" y="507" on="0"/>
        <pt x="56" y="520" on="1"/>
        <pt x="68" y="546" on="0"/>
        <pt x="116" y="546" on="1"/>
        <pt x="166" y="546" on="0"/>
        <pt x="178" y="520" on="1"/>
        <pt x="189" y="499" on="0"/>
        <pt x="189" y="450" on="0"/>
        <pt x="185" y="428" on="0"/>
      </contour>
    </TTGlyph>
    <TTGlyph name="comma" xMin="19" yMin="-138" xMax="181" yMax="149">
      <contour>
        <pt x="65" y="-5" on="0"/>
        <pt x="45" y="54" on="0"/>
        <pt x="45" y="90" on="0"/>
        <pt x="49" y="112" on="0"/>
        <pt x="55" y="124" on="1"/>
        <pt x="68" y="149" on="0"/>
        <pt x="142" y="149" on="0"/>
        <pt x="175" y="124" on="0"/>
        <pt x="181" y="96" on="0"/>
        <pt x="181" y="74" on="1"/>
        <pt x="181" y="-37" on="0"/>
        <pt x="54" y="-138" on="1"/>
        <pt x="19" y="-97" on="1"/>
        <pt x="65" y="-53" on="0"/>
        <pt x="65" y="-18" on="1"/>
      </contour>
    </TTGlyph>
    <TTGlyph name="copyright" xMin="50" yMin="243" xMax="685" yMax="878">
      <contour>
        <pt x="360" y="711" on="1"/>
        <pt x="279" y="711" on="0"/>
        <pt x="279" y="411" on="0"/>
        <pt x="361" y="411" on="1"/>
        <pt x="434" y="411" on="0"/>
        <pt x="437" y="500" on="1"/>
        <pt x="503" y="497" on="1"/>
        <pt x="495" y="352" on="0"/>
        <pt x="359" y="352" on="1"/>
        <pt x="272" y="352" on="0"/>
        <pt x="203" y="456" on="0"/>
        <pt x="203" y="664" on="0"/>
        <pt x="275" y="769" on="0"/>
        <pt x="358" y="769" on="1"/>
        <pt x="490" y="769" on="0"/>
        <pt x="502" y="642" on="1"/>
        <pt x="435" y="637" on="1"/>
        <pt x="432" y="675" on="0"/>
        <pt x="397" y="711" on="0"/>
      </contour>
      <contour>
        <pt x="212" y="243" on="0"/>
        <pt x="50" y="406" on="0"/>
        <pt x="50" y="715" on="0"/>
        <pt x="213" y="878" on="0"/>
        <pt x="522" y="878" on="0"/>
        <pt x="685" y="714" on="0"/>
        <pt x="685" y="406" on="0"/>
        <pt x="522" y="243" on="0"/>
      </contour>
      <contour>
        <pt x="122" y="811" on="0"/>
        <pt x="122" y="310" on="0"/>
        <pt x="613" y="310" on="0"/>
        <pt x="613" y="811" on="0"/>
      </contour>
    </TTGlyph>
    <TTGlyph name="currency" xMin="33" yMin="83" xMax="597" yMax="647">
      <contour>
        <pt x="187" y="557" on="1"/>
        <pt x="243" y="593" on="0"/>
        <pt x="397" y="593" on="0"/>
        <pt x="448" y="562" on="1"/>
        <pt x="533" y="647" on="1"/>
        <pt x="597" y="583" on="1"/>
        <pt x="511" y="497" on="1"/>
        <pt x="543" y="442" on="0"/>
        <pt x="543" y="289" on="0"/>
        <pt x="510" y="233" on="1"/>
        <pt x="597" y="147" on="1"/>
        <pt x="533" y="83" on="1"/>
        <pt x="446" y="169" on="1"/>
        <pt x="392" y="137" on="0"/>
        <pt x="236" y="137" on="0"/>
        <pt x="185" y="172" on="1"/>
        <pt x="97" y="83" on="1"/>
        <pt x="33" y="147" on="1"/>
        <pt x="125" y="238" on="1"/>
        <pt x="97" y="291" on="0"/>
        <pt x="97" y="436" on="0"/>
        <pt x="126" y="490" on="1"/>
        <pt x="33" y="583" on="1"/>
        <pt x="97" y="647" on="1"/>
      </contour>
      <contour>
        <pt x="216" y="317" on="0"/>
        <pt x="262" y="252" on="0"/>
        <pt x="373" y="252" on="0"/>
        <pt x="424" y="317" on="0"/>
        <pt x="424" y="413" on="0"/>
        <pt x="378" y="478" on="0"/>
        <pt x="267" y="478" on="0"/>
        <pt x="216" y="413" on="0"/>
      </contour>
    </TTGlyph>
    <TTGlyph name="d" xMin="36" yMin="-14" xMax="534" yMax="762">
      <contour>
        <pt x="229" y="-14" on="1"/>
        <pt x="36" y="-14" on="0"/>
        <pt x="36" y="586" on="0"/>
        <pt x="270" y="586" on="1"/>
        <pt x="336" y="586" on="0"/>
        <pt x="400" y="562" on="1"/>
        <pt x="400" y="752" on="1"/>
        <pt x="534" y="762" on="1"/>
        <pt x="534" y="0" on="1"/>
        <pt x="447" y="0" on="1"/>
        <pt x="410" y="71" on="1"/>
        <pt x="327" y="-14" on="0"/>
      </contour>
      <contour>
        <pt x="282" y="89" on="1"/>
        <pt x="344" y="89" on="0"/>
        <pt x="400" y="153" on="1"/>
        <pt x="400" y="463" on="1"/>
        <pt x="351" y="483" on="0"/>
        <pt x="304" y="483" on="1"/>
        <pt x="232" y="483" on="0"/>
        <pt x="170" y="383" on="0"/>
        <pt x="170" y="286" on="1"/>
        <pt x="170" y="89" on="0"/>
      </contour>
    </TTGlyph>
    <TTGlyph name="dagger" xMin="12" yMin="0" xMax="460" yMax="730">
      <contour>
        <pt x="460" y="572" on="1"/>
        <pt x="460" y="466" on="1"/>
        <pt x="406" y="466" on="1"/>
        <pt x="301" y="477" on="1"/>
        <pt x="284" y="0" on="1"/>
        <pt x="188" y="0" on="1"/>
        <pt x="171" y="477" on="1"/>
        <pt x="66" y="466" on="1"/>
        <pt x="12" y="466" on="1"/>
        <pt x="12" y="572" on="1"/>
        <pt x="66" y="572" on="1"/>
        <pt x="168" y="561" on="1"/>
        <pt x="162" y="730" on="1"/>
        <pt x="310" y="730" on="1"/>
        <pt x="304" y="561" on="1"/>
        <pt x="406" y="572" on="1"/>
      </contour>
    </TTGlyph>
    <TTGlyph name="daggerdbl" xMin="12" yMin="0" xMax="460" yMax="730">
      <contour>
        <pt x="12" y="158" on="1"/>
        <pt x="12" y="264" on="1"/>
        <pt x="66" y="264" on="1"/>
        <pt x="180" y="252" on="1"/>
        <pt x="188" y="365" on="1"/>
        <pt x="180" y="477" on="1"/>
        <pt x="66" y="466" on="1"/>
        <pt x="12" y="466" on="1"/>
        <pt x="12" y="572" on="1"/>
        <pt x="66" y="572" on="1"/>
        <pt x="174" y="561" on="1"/>
        <pt x="162" y="730" on="1"/>
        <pt x="310" y="730" on="1"/>
        <pt x="298" y="561" on="1"/>
        <pt x="406" y="572" on="1"/>
        <pt x="460" y="572" on="1"/>
        <pt x="460" y="466" on="1"/>
        <pt x="406" y="466" on="1"/>
        <pt x="292" y="477" on="1"/>
        <pt x="284" y="365" on="1"/>
        <pt x="292" y="252" on="1"/>
        <pt x="406" y="264" on="1"/>
        <pt x="460" y="264" on="1"/>
        <pt x="460" y="158" on="1"/>
        <pt x="406" y="158" on="1"/>
        <pt x="298" y="169" on="1"/>
        <pt x="310" y="0" on="1"/>
        <pt x="162" y="0" on="1"/>
        <pt x="174" y="169" on="1"/>
        <pt x="66" y="158" on="1"/>
      </contour>
    </TTGlyph>
    <TTGlyph name="degree" xMin="26" yMin="340" xMax="383" yMax="710">
      <contour>
        <pt x="161" y="431" on="0"/>
        <pt x="247" y="431" on="0"/>
        <pt x="271" y="473" on="0"/>
        <pt x="271" y="577" on="0"/>
        <pt x="247" y="620" on="0"/>
        <pt x="161" y="620" on="0"/>
        <pt x="138" y="577" on="0"/>
        <pt x="138" y="473" on="0"/>
      </contour>
      <contour>
        <pt x="318" y="361" on="0"/>
        <pt x="251" y="340" on="0"/>
        <pt x="146" y="340" on="0"/>
        <pt x="71" y="369" on="0"/>
        <pt x="37" y="427" on="0"/>
        <pt x="26" y="483" on="0"/>
        <pt x="26" y="567" on="0"/>
        <pt x="37" y="624" on="0"/>
        <pt x="71" y="681" on="0"/>
        <pt x="146" y="710" on="0"/>
        <pt x="262" y="710" on="0"/>
        <pt x="338" y="681" on="0"/>
        <pt x="372" y="624" on="0"/>
        <pt x="383" y="567" on="0"/>
        <pt x="383" y="492" on="0"/>
        <pt x="377" y="445" on="0"/>
        <pt x="356" y="393" on="0"/>
      </contour>
    </TTGlyph>
    <TTGlyph name="dieresis" xMin="9" yMin="643" xMax="363" yMax="792">
      <contour>
        <pt x="99" y="643" on="0"/>
        <pt x="53" y="643" on="0"/>
        <pt x="25" y="655" on="0"/>
        <pt x="19" y="667" on="1"/>
        <pt x="9" y="687" on="0"/>
        <pt x="9" y="733" on="0"/>
        <pt x="13" y="754" on="0"/>
        <pt x="19" y="766" on="1"/>
        <pt x="31" y="792" on="0"/>
        <pt x="76" y="792" on="1"/>
        <pt x="123" y="792" on="0"/>
        <pt x="135" y="766" on="1"/>
        <pt x="145" y="746" on="0"/>
        <pt x="145" y="700" on="0"/>
        <pt x="141" y="679" on="0"/>
        <pt x="129" y="655" on="0"/>
      </contour>
      <contour>
        <pt x="317" y="643" on="0"/>
        <pt x="271" y="643" on="0"/>
        <pt x="243" y="655" on="0"/>
        <pt x="237" y="667" on="1"/>
        <pt x="227" y="687" on="0"/>
        <pt x="227" y="733" on="0"/>
        <pt x="231" y="754" on="0"/>
        <pt x="237" y="766" on="1"/>
        <pt x="249" y="792" on="0"/>
        <pt x="294" y="792" on="1"/>
        <pt x="341" y="792" on="0"/>
        <pt x="353" y="766" on="1"/>
        <pt x="363" y="746" on="0"/>
        <pt x="363" y="700" on="0"/>
        <pt x="359" y="679" on="0"/>
        <pt x="347" y="655" on="0"/>
      </contour>
    </TTGlyph>
    <TTGlyph name="divide" xMin="86" yMin="59" xMax="494" yMax="567">
      <contour>
        <pt x="86" y="272" on="1"/>
        <pt x="86" y="364" on="1"/>
        <pt x="494" y="364" on="1"/>
        <pt x="494" y="272" on="1"/>
      </contour>
      <contour>
        <pt x="339" y="72" on="0"/>
        <pt x="311" y="59" on="0"/>
        <pt x="268" y="59" on="0"/>
        <pt x="241" y="72" on="0"/>
        <pt x="229" y="96" on="0"/>
        <pt x="226" y="117" on="0"/>
        <pt x="226" y="149" on="0"/>
        <pt x="229" y="171" on="0"/>
        <pt x="235" y="183" on="1"/>
        <pt x="248" y="208" on="0"/>
        <pt x="289" y="208" on="1"/>
        <pt x="333" y="208" on="0"/>
        <pt x="344" y="183" on="1"/>
        <pt x="354" y="162" on="0"/>
        <pt x="354" y="117" on="0"/>
        <pt x="350" y="96" on="0"/>
      </contour>
      <contour>
        <pt x="339" y="431" on="0"/>
        <pt x="311" y="418" on="0"/>
        <pt x="268" y="418" on="0"/>
        <pt x="241" y="431" on="0"/>
        <pt x="229" y="455" on="0"/>
        <pt x="226" y="476" on="0"/>
        <pt x="226" y="508" on="0"/>
        <pt x="229" y="530" on="0"/>
        <pt x="235" y="542" on="1"/>
        <pt x="248" y="567" on="0"/>
        <pt x="289" y="567" on="1"/>
        <pt x="333" y="567" on="0"/>
        <pt x="344" y="542" on="1"/>
        <pt x="354" y="521" on="0"/>
        <pt x="354" y="476" on="0"/>
        <pt x="350" y="455" on="0"/>
      </contour>
    </TTGlyph>
    <TTGlyph name="dollar" xMin="66" yMin="-113" xMax="576" yMax="843">
      <contour>
        <pt x="160" y="330" on="0"/>
        <pt x="70" y="432" on="0"/>
        <pt x="70" y="618" on="0"/>
        <pt x="165" y="725" on="0"/>
        <pt x="272" y="734" on="1"/>
        <pt x="272" y="843" on="1"/>
        <pt x="363" y="843" on="1"/>
        <pt x="363" y="734" on="1"/>
        <pt x="468" y="725" on="0"/>
        <pt x="559" y="623" on="0"/>
        <pt x="559" y="526" on="1"/>
        <pt x="441" y="517" on="1"/>
        <pt x="441" y="575" on="0"/>
        <pt x="387" y="630" on="0"/>
        <pt x="257" y="630" on="0"/>
        <pt x="204" y="578" on="0"/>
        <pt x="204" y="524" on="1"/>
        <pt x="204" y="438" on="0"/>
        <pt x="289" y="427" on="1"/>
        <pt x="377" y="415" on="1"/>
        <pt x="576" y="389" on="0"/>
        <pt x="576" y="11" on="0"/>
        <pt x="363" y="-5" on="1"/>
        <pt x="363" y="-113" on="1"/>
        <pt x="272" y="-113" on="1"/>
        <pt x="272" y="-5" on="1"/>
        <pt x="160" y="3" on="0"/>
        <pt x="66" y="105" on="0"/>
        <pt x="66" y="203" on="1"/>
        <pt x="184" y="212" on="1"/>
        <pt x="184" y="154" on="0"/>
        <pt x="243" y="95" on="0"/>
        <pt x="385" y="95" on="0"/>
        <pt x="443" y="148" on="0"/>
        <pt x="443" y="200" on="1"/>
        <pt x="443" y="286" on="0"/>
        <pt x="345" y="301" on="1"/>
        <pt x="258" y="315" on="1"/>
      </contour>
    </TTGlyph>
    <TTGlyph name="dotaccent" xMin="61" yMin="636" xMax="213" yMax="815">
      <contour>
        <pt x="206" y="666" on="0"/>
        <pt x="170" y="636" on="0"/>
        <pt x="103" y="636" on="0"/>
        <pt x="68" y="666" on="0"/>
        <pt x="61" y="699" on="0"/>
        <pt x="61" y="751" on="0"/>
        <pt x="68" y="785" on="0"/>
        <pt x="103" y="815" on="0"/>
        <pt x="170" y="815" on="0"/>
        <pt x="206" y="785" on="0"/>
        <pt x="213" y="751" on="0"/>
        <pt x="213" y="699" on="0"/>
      </contour>
    </TTGlyph>
    <TTGlyph name="dotlessi" xMin="94" yMin="0" xMax="228" yMax="572">
      <contour>
        <pt x="94" y="572" on="1"/>
        <pt x="228" y="572" on="1"/>
        <pt x="228" y="0" on="1"/>
        <pt x="94" y="0" on="1"/>
      </contour>
    </TTGlyph>
    <TTGlyph name="e" xMin="36" yMin="-14" xMax="532" yMax="586">
      <contour>
        <pt x="292" y="-14" on="1"/>
        <pt x="154" y="-14" on="0"/>
        <pt x="36" y="135" on="0"/>
        <pt x="36" y="286" on="1"/>
        <pt x="36" y="586" on="0"/>
        <pt x="288" y="586" on="1"/>
        <pt x="433" y="586" on="0"/>
        <pt x="486" y="496" on="1"/>
        <pt x="532" y="419" on="0"/>
        <pt x="532" y="296" on="1"/>
        <pt x="532" y="260" on="1"/>
        <pt x="166" y="260" on="1"/>
        <pt x="167" y="166" on="0"/>
        <pt x="227" y="89" on="0"/>
        <pt x="296" y="89" on="1"/>
        <pt x="407" y="89" on="0"/>
        <pt x="414" y="169" on="1"/>
        <pt x="524" y="165" on="1"/>
        <pt x="508" y="-14" on="0"/>
      </contour>
      <contour>
        <pt x="344" y="483" on="0"/>
        <pt x="230" y="483" on="0"/>
        <pt x="177" y="420" on="0"/>
        <pt x="169" y="351" on="1"/>
        <pt x="400" y="351" on="1"/>
        <pt x="394" y="418" on="0"/>
      </contour>
    </TTGlyph>
    <TTGlyph name="eacute" xMin="36" yMin="-14" xMax="532" yMax="825">
      <contour>
        <pt x="292" y="-14" on="1"/>
        <pt x="154" y="-14" on="0"/>
        <pt x="36" y="135" on="0"/>
        <pt x="36" y="286" on="1"/>
        <pt x="36" y="586" on="0"/>
        <pt x="288" y="586" on="1"/>
        <pt x="433" y="586" on="0"/>
        <pt x="486" y="496" on="1"/>
        <pt x="532" y="419" on="0"/>
        <pt x="532" y="296" on="1"/>
        <pt x="532" y="260" on="1"/>
        <pt x="166" y="260" on="1"/>
        <pt x="167" y="166" on="0"/>
        <pt x="227" y="89" on="0"/>
        <pt x="296" y="89" on="1"/>
        <pt x="407" y="89" on="0"/>
        <pt x="414" y="169" on="1"/>
        <pt x="524" y="165" on="1"/>
        <pt x="508" y="-14" on="0"/>
      </contour>
      <contour>
        <pt x="344" y="483" on="0"/>
        <pt x="230" y="483" on="0"/>
        <pt x="177" y="420" on="0"/>
        <pt x="169" y="351" on="1"/>
        <pt x="400" y="351" on="1"/>
        <pt x="394" y="418" on="0"/>
      </contour>
      <contour>
        <pt x="246" y="620" on="1"/>
        <pt x="201" y="692" on="1"/>
        <pt x="396" y="825" on="1"/>
        <pt x="456" y="729" on="1"/>
      </contour>
    </TTGlyph>
    <TTGlyph name="ecircumflex" xMin="36" yMin="-14" xMax="532" yMax="821">
      <contour>
        <pt x="292" y="-14" on="1"/>
        <pt x="154" y="-14" on="0"/>
        <pt x="36" y="135" on="0"/>
        <pt x="36" y="286" on="1"/>
        <pt x="36" y="586" on="0"/>
        <pt x="288" y="586" on="1"/>
        <pt x="433" y="586" on="0"/>
        <pt x="486" y="496" on="1"/>
        <pt x="532" y="419" on="0"/>
        <pt x="532" y="296" on="1"/>
        <pt x="532" y="260" on="1"/>
        <pt x="166" y="260" on="1"/>
        <pt x="167" y="166" on="0"/>
        <pt x="227" y="89" on="0"/>
        <pt x="296" y="89" on="1"/>
        <pt x="407" y="89" on="0"/>
        <pt x="414" y="169" on="1"/>
        <pt x="524" y="165" on="1"/>
        <pt x="508" y="-14" on="0"/>
      </contour>
      <contour>
        <pt x="344" y="483" on="0"/>
        <pt x="230" y="483" on="0"/>
        <pt x="177" y="420" on="0"/>
        <pt x="169" y="351" on="1"/>
        <pt x="400" y="351" on="1"/>
        <pt x="394" y="418" on="0"/>
      </contour>
      <contour>
        <pt x="175" y="626" on="1"/>
        <pt x="127" y="674" on="1"/>
        <pt x="255" y="821" on="1"/>
        <pt x="316" y="821" on="1"/>
        <pt x="444" y="674" on="1"/>
        <pt x="396" y="626" on="1"/>
        <pt x="285" y="710" on="1"/>
      </contour>
    </TTGlyph>
    <TTGlyph name="edieresis" xMin="34" yMin="-14" xMax="530" yMax="792">
      <contour>
        <pt x="290" y="-14" on="1"/>
        <pt x="152" y="-14" on="0"/>
        <pt x="34" y="135" on="0"/>
        <pt x="34" y="286" on="1"/>
        <pt x="34" y="586" on="0"/>
        <pt x="286" y="586" on="1"/>
        <pt x="431" y="586" on="0"/>
        <pt x="484" y="496" on="1"/>
        <pt x="530" y="419" on="0"/>
        <pt x="530" y="296" on="1"/>
        <pt x="530" y="260" on="1"/>
        <pt x="164" y="260" on="1"/>
        <pt x="165" y="166" on="0"/>
        <pt x="225" y="89" on="0"/>
        <pt x="294" y="89" on="1"/>
        <pt x="405" y="89" on="0"/>
        <pt x="412" y="169" on="1"/>
        <pt x="522" y="165" on="1"/>
        <pt x="506" y="-14" on="0"/>
      </contour>
      <contour>
        <pt x="342" y="483" on="0"/>
        <pt x="228" y="483" on="0"/>
        <pt x="175" y="420" on="0"/>
        <pt x="167" y="351" on="1"/>
        <pt x="398" y="351" on="1"/>
        <pt x="392" y="418" on="0"/>
      </contour>
      <contour>
        <pt x="196" y="643" on="0"/>
        <pt x="150" y="643" on="0"/>
        <pt x="122" y="655" on="0"/>
        <pt x="116" y="667" on="1"/>
        <pt x="106" y="687" on="0"/>
        <pt x="106" y="733" on="0"/>
        <pt x="110" y="754" on="0"/>
        <pt x="116" y="766" on="1"/>
        <pt x="128" y="792" on="0"/>
        <pt x="173" y="792" on="1"/>
        <pt x="220" y="792" on="0"/>
        <pt x="232" y="766" on="1"/>
        <pt x="242" y="746" on="0"/>
        <pt x="242" y="700" on="0"/>
        <pt x="238" y="679" on="0"/>
        <pt x="226" y="655" on="0"/>
      </contour>
      <contour>
        <pt x="414" y="643" on="0"/>
        <pt x="368" y="643" on="0"/>
        <pt x="340" y="655" on="0"/>
        <pt x="334" y="667" on="1"/>
        <pt x="324" y="687" on="0"/>
        <pt x="324" y="733" on="0"/>
        <pt x="328" y="754" on="0"/>
        <pt x="334" y="766" on="1"/>
        <pt x="346" y="792" on="0"/>
        <pt x="391" y="792" on="1"/>
        <pt x="438" y="792" on="0"/>
        <pt x="450" y="766" on="1"/>
        <pt x="460" y="746" on="0"/>
        <pt x="460" y="700" on="0"/>
        <pt x="456" y="679" on="0"/>
        <pt x="444" y="655" on="0"/>
      </contour>
    </TTGlyph>
    <TTGlyph name="egrave" xMin="36" yMin="-14" xMax="532" yMax="825">
      <contour>
        <pt x="292" y="-14" on="1"/>
        <pt x="154" y="-14" on="0"/>
        <pt x="36" y="135" on="0"/>
        <pt x="36" y="286" on="1"/>
        <pt x="36" y="586" on="0"/>
        <pt x="288" y="586" on="1"/>
        <pt x="433" y="586" on="0"/>
        <pt x="486" y="496" on="1"/>
        <pt x="532" y="419" on="0"/>
        <pt x="532" y="296" on="1"/>
        <pt x="532" y="260" on="1"/>
        <pt x="166" y="260" on="1"/>
        <pt x="167" y="166" on="0"/>
        <pt x="227" y="89" on="0"/>
        <pt x="296" y="89" on="1"/>
        <pt x="407" y="89" on="0"/>
        <pt x="414" y="169" on="1"/>
        <pt x="524" y="165" on="1"/>
        <pt x="508" y="-14" on="0"/>
      </contour>
      <contour>
        <pt x="344" y="483" on="0"/>
        <pt x="230" y="483" on="0"/>
        <pt x="177" y="420" on="0"/>
        <pt x="169" y="351" on="1"/>
        <pt x="400" y="351" on="1"/>
        <pt x="394" y="418" on="0"/>
      </contour>
      <contour>
        <pt x="408" y="692" on="1"/>
        <pt x="363" y="620" on="1"/>
        <pt x="153" y="729" on="1"/>
        <pt x="213" y="825" on="1"/>
      </contour>
    </TTGlyph>
    <TTGlyph name="eight" xMin="58" yMin="-14" xMax="589" yMax="744">
      <contour>
        <pt x="58" y="190" on="1"/>
        <pt x="58" y="309" on="0"/>
        <pt x="165" y="363" on="1"/>
        <pt x="68" y="413" on="0"/>
        <pt x="68" y="533" on="1"/>
        <pt x="68" y="625" on="0"/>
        <pt x="199" y="744" on="0"/>
        <pt x="448" y="744" on="0"/>
        <pt x="579" y="625" on="0"/>
        <pt x="579" y="533" on="1"/>
        <pt x="579" y="423" on="0"/>
        <pt x="483" y="370" on="1"/>
        <pt x="589" y="318" on="0"/>
        <pt x="589" y="190" on="1"/>
        <pt x="589" y="101" on="0"/>
        <pt x="445" y="-14" on="0"/>
        <pt x="202" y="-14" on="0"/>
        <pt x="58" y="101" on="0"/>
      </contour>
      <contour>
        <pt x="194" y="193" on="1"/>
        <pt x="194" y="146" on="0"/>
        <pt x="260" y="88" on="0"/>
        <pt x="386" y="88" on="0"/>
        <pt x="454" y="147" on="0"/>
        <pt x="454" y="246" on="0"/>
        <pt x="410" y="307" on="0"/>
        <pt x="356" y="316" on="1"/>
        <pt x="288" y="326" on="1"/>
        <pt x="194" y="306" on="0"/>
      </contour>
      <contour>
        <pt x="262" y="642" on="0"/>
        <pt x="203" y="577" on="0"/>
        <pt x="203" y="477" on="0"/>
        <pt x="246" y="423" on="0"/>
        <pt x="301" y="414" on="1"/>
        <pt x="357" y="405" on="1"/>
        <pt x="400" y="416" on="0"/>
        <pt x="444" y="480" on="0"/>
        <pt x="444" y="577" on="0"/>
        <pt x="385" y="642" on="0"/>
      </contour>
    </TTGlyph>
    <TTGlyph name="ellipsis" xMin="45" yMin="-8" xMax="689" yMax="149">
      <contour>
        <pt x="172" y="5" on="0"/>
        <pt x="141" y="-8" on="0"/>
        <pt x="85" y="-8" on="0"/>
        <pt x="52" y="18" on="0"/>
        <pt x="45" y="47" on="0"/>
        <pt x="45" y="87" on="0"/>
        <pt x="49" y="110" on="0"/>
        <pt x="56" y="123" on="1"/>
        <pt x="68" y="149" on="0"/>
        <pt x="116" y="149" on="1"/>
        <pt x="166" y="149" on="0"/>
        <pt x="178" y="123" on="1"/>
        <pt x="189" y="102" on="0"/>
        <pt x="189" y="53" on="0"/>
        <pt x="185" y="31" on="0"/>
      </contour>
      <contour>
        <pt x="422" y="5" on="0"/>
        <pt x="391" y="-8" on="0"/>
        <pt x="335" y="-8" on="0"/>
        <pt x="302" y="18" on="0"/>
        <pt x="295" y="47" on="0"/>
        <pt x="295" y="87" on="0"/>
        <pt x="299" y="110" on="0"/>
        <pt x="306" y="123" on="1"/>
        <pt x="318" y="149" on="0"/>
        <pt x="366" y="149" on="1"/>
        <pt x="416" y="149" on="0"/>
        <pt x="428" y="123" on="1"/>
        <pt x="439" y="102" on="0"/>
        <pt x="439" y="53" on="0"/>
        <pt x="435" y="31" on="0"/>
      </contour>
      <contour>
        <pt x="672" y="5" on="0"/>
        <pt x="641" y="-8" on="0"/>
        <pt x="585" y="-8" on="0"/>
        <pt x="552" y="18" on="0"/>
        <pt x="545" y="47" on="0"/>
        <pt x="545" y="87" on="0"/>
        <pt x="549" y="110" on="0"/>
        <pt x="556" y="123" on="1"/>
        <pt x="568" y="149" on="0"/>
        <pt x="616" y="149" on="1"/>
        <pt x="666" y="149" on="0"/>
        <pt x="678" y="123" on="1"/>
        <pt x="689" y="102" on="0"/>
        <pt x="689" y="53" on="0"/>
        <pt x="685" y="31" on="0"/>
      </contour>
    </TTGlyph>
    <TTGlyph name="emdash" xMin="62" yMin="272" xMax="835" yMax="364">
      <contour>
        <pt x="62" y="272" on="1"/>
        <pt x="62" y="364" on="1"/>
        <pt x="835" y="364" on="1"/>
        <pt x="835" y="272" on="1"/>
      </contour>
    </TTGlyph>
    <TTGlyph name="endash" xMin="62" yMin="272" xMax="502" yMax="364">
      <contour>
        <pt x="62" y="272" on="1"/>
        <pt x="62" y="364" on="1"/>
        <pt x="502" y="364" on="1"/>
        <pt x="502" y="272" on="1"/>
      </contour>
    </TTGlyph>
    <TTGlyph name="equal" xMin="86" yMin="164" xMax="494" yMax="472">
      <contour>
        <pt x="86" y="380" on="1"/>
        <pt x="86" y="472" on="1"/>
        <pt x="494" y="472" on="1"/>
        <pt x="494" y="380" on="1"/>
      </contour>
      <contour>
        <pt x="86" y="164" on="1"/>
        <pt x="86" y="256" on="1"/>
        <pt x="494" y="256" on="1"/>
        <pt x="494" y="164" on="1"/>
      </contour>
    </TTGlyph>
    <TTGlyph name="eth" xMin="36" yMin="-14" xMax="556" yMax="764">
      <contour>
        <pt x="556" y="267" on="1"/>
        <pt x="556" y="246" on="1"/>
        <pt x="556" y="52" on="0"/>
        <pt x="404" y="2" on="1"/>
        <pt x="357" y="-14" on="0"/>
        <pt x="235" y="-14" on="0"/>
        <pt x="141" y="17" on="0"/>
        <pt x="85" y="67" on="0"/>
        <pt x="67" y="102" on="1"/>
        <pt x="36" y="162" on="0"/>
        <pt x="36" y="246" on="1"/>
        <pt x="36" y="347" on="0"/>
        <pt x="86" y="420" on="1"/>
        <pt x="113" y="460" on="0"/>
        <pt x="221" y="506" on="0"/>
        <pt x="352" y="506" on="0"/>
        <pt x="400" y="472" on="1"/>
        <pt x="382" y="530" on="0"/>
        <pt x="349" y="583" on="1"/>
        <pt x="252" y="544" on="1"/>
        <pt x="252" y="631" on="1"/>
        <pt x="299" y="650" on="1"/>
        <pt x="262" y="689" on="1"/>
        <pt x="325" y="764" on="1"/>
        <pt x="367" y="728" on="0"/>
        <pt x="400" y="690" on="1"/>
        <pt x="534" y="743" on="1"/>
        <pt x="534" y="656" on="1"/>
        <pt x="450" y="623" on="1"/>
        <pt x="556" y="463" on="0"/>
      </contour>
      <contour>
        <pt x="170" y="85" on="0"/>
        <pt x="422" y="85" on="0"/>
        <pt x="422" y="407" on="0"/>
        <pt x="170" y="407" on="0"/>
      </contour>
    </TTGlyph>
    <TTGlyph name="exclam" xMin="75" yMin="-8" xMax="223" yMax="730">
      <contour>
        <pt x="215" y="18" on="0"/>
        <pt x="181" y="-8" on="0"/>
        <pt x="118" y="-8" on="0"/>
        <pt x="85" y="18" on="0"/>
        <pt x="78" y="47" on="0"/>
        <pt x="78" y="87" on="0"/>
        <pt x="82" y="110" on="0"/>
        <pt x="95" y="136" on="0"/>
        <pt x="125" y="149" on="0"/>
        <pt x="173" y="149" on="0"/>
        <pt x="205" y="136" on="0"/>
        <pt x="212" y="123" on="1"/>
        <pt x="222" y="102" on="0"/>
        <pt x="222" y="47" on="0"/>
      </contour>
      <contour>
        <pt x="75" y="730" on="1"/>
        <pt x="223" y="730" on="1"/>
        <pt x="223" y="548" on="1"/>
        <pt x="189" y="209" on="1"/>
        <pt x="109" y="209" on="1"/>
        <pt x="75" y="548" on="1"/>
      </contour>
    </TTGlyph>
    <TTGlyph name="exclamdown" xMin="76" yMin="-152" xMax="223" yMax="586">
      <contour>
        <pt x="83" y="560" on="0"/>
        <pt x="117" y="586" on="0"/>
        <pt x="180" y="586" on="0"/>
        <pt x="214" y="560" on="0"/>
        <pt x="220" y="531" on="0"/>
        <pt x="220" y="484" on="0"/>
        <pt x="214" y="455" on="0"/>
        <pt x="180" y="429" on="0"/>
        <pt x="125" y="429" on="0"/>
        <pt x="93" y="442" on="0"/>
        <pt x="86" y="455" on="1"/>
        <pt x="76" y="476" on="0"/>
        <pt x="76" y="531" on="0"/>
      </contour>
      <contour>
        <pt x="223" y="-152" on="1"/>
        <pt x="76" y="-152" on="1"/>
        <pt x="76" y="30" on="1"/>
        <pt x="110" y="369" on="1"/>
        <pt x="189" y="369" on="1"/>
        <pt x="223" y="30" on="1"/>
      </contour>
    </TTGlyph>
    <TTGlyph name="f" xMin="44" yMin="0" xMax="393" yMax="775">
      <contour>
        <pt x="293" y="670" on="1"/>
        <pt x="240" y="670" on="0"/>
        <pt x="240" y="611" on="1"/>
        <pt x="240" y="572" on="1"/>
        <pt x="348" y="572" on="1"/>
        <pt x="348" y="485" on="1"/>
        <pt x="240" y="485" on="1"/>
        <pt x="240" y="0" on="1"/>
        <pt x="106" y="0" on="1"/>
        <pt x="106" y="485" on="1"/>
        <pt x="44" y="485" on="1"/>
        <pt x="44" y="572" on="1"/>
        <pt x="106" y="572" on="1"/>
        <pt x="106" y="611" on="1"/>
        <pt x="106" y="775" on="0"/>
        <pt x="279" y="775" on="1"/>
        <pt x="344" y="775" on="0"/>
        <pt x="393" y="757" on="1"/>
        <pt x="360" y="656" on="1"/>
        <pt x="326" y="670" on="0"/>
      </contour>
    </TTGlyph>
    <TTGlyph name="fi" xMin="44" yMin="0" xMax="605" yMax="795">
      <contour>
        <pt x="293" y="670" on="1"/>
        <pt x="240" y="670" on="0"/>
        <pt x="240" y="611" on="1"/>
        <pt x="240" y="572" on="1"/>
        <pt x="348" y="572" on="1"/>
        <pt x="348" y="485" on="1"/>
        <pt x="240" y="485" on="1"/>
        <pt x="240" y="0" on="1"/>
        <pt x="106" y="0" on="1"/>
        <pt x="106" y="485" on="1"/>
        <pt x="44" y="485" on="1"/>
        <pt x="44" y="572" on="1"/>
        <pt x="106" y="572" on="1"/>
        <pt x="106" y="611" on="1"/>
        <pt x="106" y="775" on="0"/>
        <pt x="279" y="775" on="1"/>
        <pt x="344" y="775" on="0"/>
        <pt x="393" y="757" on="1"/>
        <pt x="360" y="656" on="1"/>
        <pt x="326" y="670" on="0"/>
      </contour>
      <contour>
        <pt x="461" y="572" on="1"/>
        <pt x="595" y="572" on="1"/>
        <pt x="595" y="0" on="1"/>
        <pt x="461" y="0" on="1"/>
      </contour>
      <contour>
        <pt x="528" y="640" on="1"/>
        <pt x="453" y="640" on="0"/>
        <pt x="453" y="795" on="0"/>
        <pt x="528" y="795" on="1"/>
        <pt x="605" y="795" on="0"/>
        <pt x="605" y="640" on="0"/>
      </contour>
    </TTGlyph>
    <TTGlyph name="five" xMin="86" yMin="-14" xMax="589" yMax="730">
      <contour>
        <pt x="327" y="91" on="1"/>
        <pt x="391" y="91" on="0"/>
        <pt x="454" y="159" on="0"/>
        <pt x="454" y="278" on="0"/>
        <pt x="354" y="348" on="0"/>
        <pt x="222" y="348" on="1"/>
        <pt x="98" y="348" on="1"/>
        <pt x="123" y="730" on="1"/>
        <pt x="543" y="730" on="1"/>
        <pt x="543" y="624" on="1"/>
        <pt x="236" y="624" on="1"/>
        <pt x="225" y="457" on="1"/>
        <pt x="269" y="457" on="1"/>
        <pt x="433" y="457" on="0"/>
        <pt x="589" y="329" on="0"/>
        <pt x="589" y="214" on="1"/>
        <pt x="589" y="117" on="0"/>
        <pt x="454" y="-14" on="0"/>
        <pt x="327" y="-14" on="1"/>
        <pt x="99" y="-14" on="0"/>
        <pt x="86" y="208" on="1"/>
        <pt x="203" y="218" on="1"/>
        <pt x="209" y="91" on="0"/>
      </contour>
    </TTGlyph>
    <TTGlyph name="fl" xMin="44" yMin="0" xMax="595" yMax="775">
      <contour>
        <pt x="293" y="670" on="1"/>
        <pt x="240" y="670" on="0"/>
        <pt x="240" y="611" on="1"/>
        <pt x="240" y="572" on="1"/>
        <pt x="348" y="572" on="1"/>
        <pt x="348" y="485" on="1"/>
        <pt x="240" y="485" on="1"/>
        <pt x="240" y="0" on="1"/>
        <pt x="106" y="0" on="1"/>
        <pt x="106" y="485" on="1"/>
        <pt x="44" y="485" on="1"/>
        <pt x="44" y="572" on="1"/>
        <pt x="106" y="572" on="1"/>
        <pt x="106" y="611" on="1"/>
        <pt x="106" y="775" on="0"/>
        <pt x="279" y="775" on="1"/>
        <pt x="344" y="775" on="0"/>
        <pt x="393" y="757" on="1"/>
        <pt x="360" y="656" on="1"/>
        <pt x="326" y="670" on="0"/>
      </contour>
      <contour>
        <pt x="595" y="0" on="1"/>
        <pt x="461" y="0" on="1"/>
        <pt x="461" y="752" on="1"/>
        <pt x="595" y="770" on="1"/>
      </contour>
    </TTGlyph>
    <TTGlyph name="florin" xMin="104" yMin="-218" xMax="573" yMax="744">
      <contour>
        <pt x="449" y="638" on="1"/>
        <pt x="356" y="638" on="0"/>
        <pt x="356" y="515" on="1"/>
        <pt x="356" y="389" on="1"/>
        <pt x="513" y="389" on="1"/>
        <pt x="513" y="299" on="1"/>
        <pt x="356" y="299" on="1"/>
        <pt x="356" y="20" on="1"/>
        <pt x="356" y="-46" on="0"/>
        <pt x="337" y="-130" on="0"/>
        <pt x="284" y="-192" on="0"/>
        <pt x="188" y="-218" on="0"/>
        <pt x="113" y="-218" on="1"/>
        <pt x="104" y="-101" on="1"/>
        <pt x="175" y="-101" on="0"/>
        <pt x="220" y="-50" on="0"/>
        <pt x="220" y="22" on="1"/>
        <pt x="220" y="299" on="1"/>
        <pt x="113" y="299" on="1"/>
        <pt x="113" y="389" on="1"/>
        <pt x="220" y="389" on="1"/>
        <pt x="220" y="515" on="1"/>
        <pt x="220" y="631" on="0"/>
        <pt x="322" y="744" on="0"/>
        <pt x="432" y="744" on="1"/>
        <pt x="514" y="744" on="0"/>
        <pt x="573" y="707" on="1"/>
        <pt x="535" y="613" on="1"/>
        <pt x="496" y="638" on="0"/>
      </contour>
    </TTGlyph>
    <TTGlyph name="four" xMin="20" yMin="0" xMax="581" yMax="730">
      <contour>
        <pt x="504" y="0" on="1"/>
        <pt x="373" y="0" on="1"/>
        <pt x="373" y="154" on="1"/>
        <pt x="20" y="154" on="1"/>
        <pt x="20" y="252" on="1"/>
        <pt x="305" y="730" on="1"/>
        <pt x="504" y="730" on="1"/>
        <pt x="504" y="260" on="1"/>
        <pt x="581" y="260" on="1"/>
        <pt x="581" y="154" on="1"/>
        <pt x="504" y="154" on="1"/>
      </contour>
      <contour>
        <pt x="373" y="260" on="1"/>
        <pt x="373" y="605" on="1"/>
        <pt x="172" y="260" on="1"/>
      </contour>
    </TTGlyph>
    <TTGlyph name="fraction" xMin="-8" yMin="-66" xMax="291" yMax="735">
      <contour>
        <pt x="-8" y="-66" on="1"/>
        <pt x="206" y="735" on="1"/>
        <pt x="291" y="735" on="1"/>
        <pt x="76" y="-66" on="1"/>
      </contour>
    </TTGlyph>
    <TTGlyph name="g" xMin="22" yMin="-217" xMax="556" yMax="586">
      <contour>
        <pt x="448" y="205" on="0"/>
        <pt x="354" y="168" on="0"/>
        <pt x="227" y="168" on="0"/>
        <pt x="185" y="183" on="1"/>
        <pt x="157" y="153" on="1"/>
        <pt x="140" y="136" on="0"/>
        <pt x="140" y="120" on="1"/>
        <pt x="140" y="96" on="0"/>
        <pt x="173" y="96" on="1"/>
        <pt x="386" y="96" on="1"/>
        <pt x="465" y="96" on="0"/>
        <pt x="556" y="10" on="0"/>
        <pt x="556" y="-106" on="0"/>
        <pt x="508" y="-174" on="0"/>
        <pt x="463" y="-190" on="1"/>
        <pt x="387" y="-217" on="0"/>
        <pt x="150" y="-217" on="0"/>
        <pt x="22" y="-160" on="0"/>
        <pt x="22" y="-91" on="1"/>
        <pt x="22" y="-58" on="0"/>
        <pt x="60" y="-5" on="0"/>
        <pt x="88" y="9" on="1"/>
        <pt x="27" y="28" on="0"/>
        <pt x="27" y="98" on="1"/>
        <pt x="27" y="144" on="0"/>
        <pt x="63" y="183" on="1"/>
        <pt x="109" y="231" on="1"/>
        <pt x="62" y="285" on="0"/>
        <pt x="62" y="377" on="1"/>
        <pt x="62" y="458" on="0"/>
        <pt x="106" y="517" on="1"/>
        <pt x="156" y="586" on="0"/>
        <pt x="288" y="586" on="1"/>
        <pt x="345" y="586" on="0"/>
        <pt x="387" y="572" on="1"/>
        <pt x="554" y="572" on="1"/>
        <pt x="554" y="493" on="1"/>
        <pt x="488" y="493" on="1"/>
        <pt x="515" y="444" on="0"/>
        <pt x="515" y="337" on="0"/>
        <pt x="495" y="269" on="0"/>
      </contour>
      <contour>
        <pt x="190" y="497" on="0"/>
        <pt x="190" y="257" on="0"/>
        <pt x="387" y="257" on="0"/>
        <pt x="387" y="497" on="0"/>
      </contour>
      <contour>
        <pt x="144" y="-97" on="0"/>
        <pt x="209" y="-117" on="0"/>
        <pt x="359" y="-117" on="0"/>
        <pt x="422" y="-94" on="0"/>
        <pt x="422" y="-56" on="1"/>
        <pt x="422" y="0" on="0"/>
        <pt x="344" y="0" on="1"/>
        <pt x="173" y="0" on="1"/>
        <pt x="144" y="-26" on="0"/>
      </contour>
    </TTGlyph>
    <TTGlyph name="germandbls" xMin="104" yMin="-14" xMax="646" yMax="746">
      <contour>
        <pt x="568" y="370" on="0"/>
        <pt x="646" y="270" on="0"/>
        <pt x="646" y="100" on="0"/>
        <pt x="549" y="-14" on="0"/>
        <pt x="358" y="-14" on="0"/>
        <pt x="274" y="84" on="0"/>
        <pt x="274" y="195" on="1"/>
        <pt x="383" y="195" on="1"/>
        <pt x="383" y="138" on="0"/>
        <pt x="410" y="92" on="0"/>
        <pt x="446" y="92" on="1"/>
        <pt x="512" y="92" on="0"/>
        <pt x="512" y="207" on="1"/>
        <pt x="512" y="266" on="0"/>
        <pt x="464" y="317" on="0"/>
        <pt x="409" y="317" on="1"/>
        <pt x="308" y="317" on="1"/>
        <pt x="308" y="416" on="1"/>
        <pt x="360" y="416" on="1"/>
        <pt x="403" y="416" on="0"/>
        <pt x="445" y="478" on="0"/>
        <pt x="445" y="528" on="1"/>
        <pt x="445" y="640" on="0"/>
        <pt x="339" y="640" on="1"/>
        <pt x="238" y="640" on="0"/>
        <pt x="238" y="528" on="1"/>
        <pt x="238" y="0" on="1"/>
        <pt x="104" y="0" on="1"/>
        <pt x="104" y="528" on="1"/>
        <pt x="104" y="746" on="0"/>
        <pt x="350" y="746" on="1"/>
        <pt x="461" y="746" on="0"/>
        <pt x="579" y="636" on="0"/>
        <pt x="579" y="449" on="0"/>
        <pt x="496" y="385" on="1"/>
      </contour>
    </TTGlyph>
    <TTGlyph name="grave" xMin="16" yMin="620" xMax="271" yMax="825">
      <contour>
        <pt x="271" y="692" on="1"/>
        <pt x="226" y="620" on="1"/>
        <pt x="16" y="729" on="1"/>
        <pt x="76" y="825" on="1"/>
      </contour>
    </TTGlyph>
    <TTGlyph name="greater" xMin="89" yMin="87" xMax="491" yMax="547">
      <contour>
        <pt x="491" y="375" on="1"/>
        <pt x="491" y="259" on="1"/>
        <pt x="89" y="87" on="1"/>
        <pt x="89" y="189" on="1"/>
        <pt x="406" y="317" on="1"/>
        <pt x="89" y="445" on="1"/>
        <pt x="89" y="547" on="1"/>
      </contour>
    </TTGlyph>
    <TTGlyph name="greaterequal" xMin="86" yMin="0" xMax="494" yMax="617">
      <contour>
        <pt x="491" y="445" on="1"/>
        <pt x="491" y="329" on="1"/>
        <pt x="89" y="157" on="1"/>
        <pt x="89" y="259" on="1"/>
        <pt x="406" y="387" on="1"/>
        <pt x="89" y="515" on="1"/>
        <pt x="89" y="617" on="1"/>
      </contour>
      <contour>
        <pt x="86" y="0" on="1"/>
        <pt x="86" y="92" on="1"/>
        <pt x="494" y="92" on="1"/>
        <pt x="494" y="0" on="1"/>
      </contour>
    </TTGlyph>
    <TTGlyph name="guillemotleft" xMin="22" yMin="100" xMax="498" yMax="530">
      <contour>
        <pt x="267" y="466" on="1"/>
        <pt x="153" y="315" on="1"/>
        <pt x="267" y="164" on="1"/>
        <pt x="202" y="100" on="1"/>
        <pt x="22" y="291" on="1"/>
        <pt x="22" y="339" on="1"/>
        <pt x="202" y="530" on="1"/>
      </contour>
      <contour>
        <pt x="498" y="466" on="1"/>
        <pt x="384" y="315" on="1"/>
        <pt x="498" y="164" on="1"/>
        <pt x="433" y="100" on="1"/>
        <pt x="253" y="291" on="1"/>
        <pt x="253" y="339" on="1"/>
        <pt x="433" y="530" on="1"/>
      </contour>
    </TTGlyph>
    <TTGlyph name="guillemotright" xMin="32" yMin="100" xMax="508" yMax="530">
      <contour>
        <pt x="263" y="164" on="1"/>
        <pt x="377" y="315" on="1"/>
        <pt x="263" y="466" on="1"/>
        <pt x="328" y="530" on="1"/>
        <pt x="508" y="339" on="1"/>
        <pt x="508" y="291" on="1"/>
        <pt x="328" y="100" on="1"/>
      </contour>
      <contour>
        <pt x="32" y="164" on="1"/>
        <pt x="146" y="315" on="1"/>
        <pt x="32" y="466" on="1"/>
        <pt x="97" y="530" on="1"/>
        <pt x="277" y="339" on="1"/>
        <pt x="277" y="291" on="1"/>
        <pt x="97" y="100" on="1"/>
      </contour>
    </TTGlyph>
    <TTGlyph name="guilsinglleft" xMin="22" yMin="100" xMax="267" yMax="530">
      <contour>
        <pt x="267" y="466" on="1"/>
        <pt x="153" y="315" on="1"/>
        <pt x="267" y="164" on="1"/>
        <pt x="202" y="100" on="1"/>
        <pt x="22" y="291" on="1"/>
        <pt x="22" y="339" on="1"/>
        <pt x="202" y="530" on="1"/>
      </contour>
    </TTGlyph>
    <TTGlyph name="guilsinglright" xMin="38" yMin="100" xMax="283" yMax="530">
      <contour>
        <pt x="38" y="164" on="1"/>
        <pt x="152" y="315" on="1"/>
        <pt x="38" y="466" on="1"/>
        <pt x="103" y="530" on="1"/>
        <pt x="283" y="339" on="1"/>
        <pt x="283" y="291" on="1"/>
        <pt x="103" y="100" on="1"/>
      </contour>
    </TTGlyph>
    <TTGlyph name="h" xMin="94" yMin="0" xMax="579" yMax="762">
      <contour>
        <pt x="228" y="537" on="1"/>
        <pt x="310" y="586" on="0"/>
        <pt x="491" y="586" on="0"/>
        <pt x="579" y="489" on="0"/>
        <pt x="579" y="404" on="1"/>
        <pt x="579" y="0" on="1"/>
        <pt x="445" y="0" on="1"/>
        <pt x="445" y="390" on="1"/>
        <pt x="445" y="441" on="0"/>
        <pt x="408" y="483" on="0"/>
        <pt x="362" y="483" on="1"/>
        <pt x="290" y="483" on="0"/>
        <pt x="228" y="438" on="1"/>
        <pt x="228" y="0" on="1"/>
        <pt x="94" y="0" on="1"/>
        <pt x="94" y="752" on="1"/>
        <pt x="228" y="762" on="1"/>
      </contour>
    </TTGlyph>
    <TTGlyph name="hungarumlaut" xMin="2" yMin="620" xMax="530" yMax="825">
      <contour>
        <pt x="47" y="620" on="1"/>
        <pt x="2" y="692" on="1"/>
        <pt x="197" y="825" on="1"/>
        <pt x="257" y="729" on="1"/>
      </contour>
      <contour>
        <pt x="320" y="620" on="1"/>
        <pt x="275" y="692" on="1"/>
        <pt x="470" y="825" on="1"/>
        <pt x="530" y="729" on="1"/>
      </contour>
    </TTGlyph>
    <TTGlyph name="hyphen" xMin="62" yMin="272" xMax="414" yMax="364">
      <contour>
        <pt x="62" y="272" on="1"/>
        <pt x="62" y="364" on="1"/>
        <pt x="414" y="364" on="1"/>
        <pt x="414" y="272" on="1"/>
      </contour>
    </TTGlyph>
    <TTGlyph name="i" xMin="86" yMin="0" xMax="238" yMax="795">
      <contour>
        <pt x="94" y="572" on="1"/>
        <pt x="228" y="572" on="1"/>
        <pt x="228" y="0" on="1"/>
        <pt x="94" y="0" on="1"/>
      </contour>
      <contour>
        <pt x="161" y="640" on="1"/>
        <pt x="86" y="640" on="0"/>
        <pt x="86" y="795" on="0"/>
        <pt x="161" y="795" on="1"/>
        <pt x="238" y="795" on="0"/>
        <pt x="238" y="640" on="0"/>
      </contour>
    </TTGlyph>
    <TTGlyph name="iacute" xMin="54" yMin="0" xMax="309" yMax="825">
      <contour>
        <pt x="94" y="572" on="1"/>
        <pt x="228" y="572" on="1"/>
        <pt x="228" y="0" on="1"/>
        <pt x="94" y="0" on="1"/>
      </contour>
      <contour>
        <pt x="99" y="620" on="1"/>
        <pt x="54" y="692" on="1"/>
        <pt x="249" y="825" on="1"/>
        <pt x="309" y="729" on="1"/>
      </contour>
    </TTGlyph>
    <TTGlyph name="icircumflex" xMin="-7" yMin="0" xMax="310" yMax="821">
      <contour>
        <pt x="94" y="572" on="1"/>
        <pt x="228" y="572" on="1"/>
        <pt x="228" y="0" on="1"/>
        <pt x="94" y="0" on="1"/>
      </contour>
      <contour>
        <pt x="41" y="626" on="1"/>
        <pt x="-7" y="674" on="1"/>
        <pt x="121" y="821" on="1"/>
        <pt x="182" y="821" on="1"/>
        <pt x="310" y="674" on="1"/>
        <pt x="262" y="626" on="1"/>
        <pt x="151" y="710" on="1"/>
      </contour>
    </TTGlyph>
    <TTGlyph name="idieresis" xMin="-16" yMin="0" xMax="338" yMax="792">
      <contour>
        <pt x="94" y="572" on="1"/>
        <pt x="228" y="572" on="1"/>
        <pt x="228" y="0" on="1"/>
        <pt x="94" y="0" on="1"/>
      </contour>
      <contour>
        <pt x="74" y="643" on="0"/>
        <pt x="28" y="643" on="0"/>
        <pt x="0" y="655" on="0"/>
        <pt x="-6" y="667" on="1"/>
        <pt x="-16" y="687" on="0"/>
        <pt x="-16" y="733" on="0"/>
        <pt x="-12" y="754" on="0"/>
        <pt x="-6" y="766" on="1"/>
        <pt x="6" y="792" on="0"/>
        <pt x="51" y="792" on="1"/>
        <pt x="98" y="792" on="0"/>
        <pt x="110" y="766" on="1"/>
        <pt x="120" y="746" on="0"/>
        <pt x="120" y="700" on="0"/>
        <pt x="116" y="679" on="0"/>
        <pt x="104" y="655" on="0"/>
      </contour>
      <contour>
        <pt x="292" y="643" on="0"/>
        <pt x="246" y="643" on="0"/>
        <pt x="218" y="655" on="0"/>
        <pt x="212" y="667" on="1"/>
        <pt x="202" y="687" on="0"/>
        <pt x="202" y="733" on="0"/>
        <pt x="206" y="754" on="0"/>
        <pt x="212" y="766" on="1"/>
        <pt x="224" y="792" on="0"/>
        <pt x="269" y="792" on="1"/>
        <pt x="316" y="792" on="0"/>
        <pt x="328" y="766" on="1"/>
        <pt x="338" y="746" on="0"/>
        <pt x="338" y="700" on="0"/>
        <pt x="334" y="679" on="0"/>
        <pt x="322" y="655" on="0"/>
      </contour>
    </TTGlyph>
    <TTGlyph name="igrave" xMin="19" yMin="0" xMax="274" yMax="825">
      <contour>
        <pt x="94" y="572" on="1"/>
        <pt x="228" y="572" on="1"/>
        <pt x="228" y="0" on="1"/>
        <pt x="94" y="0" on="1"/>
      </contour>
      <contour>
        <pt x="274" y="692" on="1"/>
        <pt x="229" y="620" on="1"/>
        <pt x="19" y="729" on="1"/>
        <pt x="79" y="825" on="1"/>
      </contour>
    </TTGlyph>
    <TTGlyph name="infinity" xMin="24" yMin="128" xMax="582" yMax="509">
      <contour>
        <pt x="24" y="426" on="0"/>
        <pt x="102" y="509" on="0"/>
        <pt x="265" y="509" on="0"/>
        <pt x="301" y="455" on="1"/>
        <pt x="336" y="509" on="0"/>
        <pt x="504" y="509" on="0"/>
        <pt x="582" y="426" on="0"/>
        <pt x="582" y="211" on="0"/>
        <pt x="504" y="128" on="0"/>
        <pt x="340" y="128" on="0"/>
        <pt x="304" y="182" on="1"/>
        <pt x="268" y="128" on="0"/>
        <pt x="102" y="128" on="0"/>
        <pt x="24" y="211" on="0"/>
      </contour>
      <contour>
        <pt x="414" y="232" on="1"/>
        <pt x="450" y="232" on="0"/>
        <pt x="484" y="268" on="0"/>
        <pt x="484" y="368" on="0"/>
        <pt x="450" y="404" on="0"/>
        <pt x="385" y="404" on="0"/>
        <pt x="354" y="364" on="0"/>
        <pt x="347" y="326" on="1"/>
        <pt x="340" y="290" on="1"/>
        <pt x="361" y="232" on="0"/>
      </contour>
      <contour>
        <pt x="257" y="370" on="0"/>
        <pt x="218" y="404" on="0"/>
        <pt x="156" y="404" on="0"/>
        <pt x="122" y="368" on="0"/>
        <pt x="122" y="268" on="0"/>
        <pt x="156" y="232" on="0"/>
        <pt x="222" y="232" on="0"/>
        <pt x="252" y="273" on="0"/>
        <pt x="259" y="312" on="1"/>
        <pt x="265" y="345" on="1"/>
      </contour>
    </TTGlyph>
    <TTGlyph name="integral" xMin="-43" yMin="-261" xMax="528" yMax="744">
      <contour>
        <pt x="174" y="-33" on="1"/>
        <pt x="174" y="515" on="1"/>
        <pt x="174" y="631" on="0"/>
        <pt x="276" y="744" on="0"/>
        <pt x="386" y="744" on="1"/>
        <pt x="469" y="744" on="0"/>
        <pt x="528" y="707" on="1"/>
        <pt x="489" y="613" on="1"/>
        <pt x="450" y="638" on="0"/>
        <pt x="403" y="638" on="1"/>
        <pt x="310" y="638" on="0"/>
        <pt x="310" y="515" on="1"/>
        <pt x="310" y="-33" on="1"/>
        <pt x="310" y="-149" on="0"/>
        <pt x="209" y="-261" on="0"/>
        <pt x="99" y="-261" on="1"/>
        <pt x="18" y="-261" on="0"/>
        <pt x="-43" y="-224" on="1"/>
        <pt x="-4" y="-130" on="1"/>
        <pt x="33" y="-155" on="0"/>
        <pt x="83" y="-155" on="1"/>
        <pt x="174" y="-155" on="0"/>
      </contour>
    </TTGlyph>
    <TTGlyph name="j" xMin="-60" yMin="-209" xMax="238" yMax="795">
      <contour>
        <pt x="41" y="-104" on="1"/>
        <pt x="94" y="-104" on="0"/>
        <pt x="94" y="-45" on="1"/>
        <pt x="94" y="572" on="1"/>
        <pt x="228" y="572" on="1"/>
        <pt x="228" y="-45" on="1"/>
        <pt x="228" y="-209" on="0"/>
        <pt x="55" y="-209" on="1"/>
        <pt x="-9" y="-209" on="0"/>
        <pt x="-60" y="-192" on="1"/>
        <pt x="-27" y="-91" on="1"/>
        <pt x="6" y="-104" on="0"/>
      </contour>
      <contour>
        <pt x="161" y="640" on="1"/>
        <pt x="86" y="640" on="0"/>
        <pt x="86" y="795" on="0"/>
        <pt x="161" y="795" on="1"/>
        <pt x="238" y="795" on="0"/>
        <pt x="238" y="640" on="0"/>
      </contour>
    </TTGlyph>
    <TTGlyph name="k" xMin="94" yMin="0" xMax="583" yMax="762">
      <contour>
        <pt x="228" y="0" on="1"/>
        <pt x="94" y="0" on="1"/>
        <pt x="94" y="752" on="1"/>
        <pt x="228" y="762" on="1"/>
        <pt x="228" y="354" on="1"/>
        <pt x="269" y="354" on="1"/>
        <pt x="420" y="572" on="1"/>
        <pt x="565" y="572" on="1"/>
        <pt x="373" y="300" on="1"/>
        <pt x="583" y="0" on="1"/>
        <pt x="438" y="0" on="1"/>
        <pt x="256" y="264" on="1"/>
        <pt x="228" y="264" on="1"/>
      </contour>
    </TTGlyph>
    <TTGlyph name="l" xMin="94" yMin="0" xMax="228" yMax="770">
      <contour>
        <pt x="228" y="0" on="1"/>
        <pt x="94" y="0" on="1"/>
        <pt x="94" y="752" on="1"/>
        <pt x="228" y="770" on="1"/>
      </contour>
    </TTGlyph>
    <TTGlyph name="less" xMin="89" yMin="87" xMax="491" yMax="547">
      <contour>
        <pt x="89" y="259" on="1"/>
        <pt x="89" y="375" on="1"/>
        <pt x="491" y="547" on="1"/>
        <pt x="491" y="445" on="1"/>
        <pt x="173" y="317" on="1"/>
        <pt x="491" y="189" on="1"/>
        <pt x="491" y="87" on="1"/>
      </contour>
    </TTGlyph>
    <TTGlyph name="lessequal" xMin="86" yMin="0" xMax="494" yMax="617">
      <contour>
        <pt x="89" y="329" on="1"/>
        <pt x="89" y="445" on="1"/>
        <pt x="491" y="617" on="1"/>
        <pt x="491" y="515" on="1"/>
        <pt x="173" y="387" on="1"/>
        <pt x="491" y="259" on="1"/>
        <pt x="491" y="157" on="1"/>
      </contour>
      <contour>
        <pt x="86" y="0" on="1"/>
        <pt x="86" y="92" on="1"/>
        <pt x="494" y="92" on="1"/>
        <pt x="494" y="0" on="1"/>
      </contour>
    </TTGlyph>
    <TTGlyph name="logicalnot" xMin="86" yMin="134" xMax="494" yMax="364">
      <contour>
        <pt x="86" y="272" on="1"/>
        <pt x="86" y="364" on="1"/>
        <pt x="494" y="364" on="1"/>
        <pt x="494" y="134" on="1"/>
        <pt x="406" y="134" on="1"/>
        <pt x="406" y="272" on="1"/>
      </contour>
    </TTGlyph>
    <TTGlyph name="lozenge" xMin="18" yMin="-100" xMax="538" yMax="770">
      <contour>
        <pt x="204" y="770" on="1"/>
        <pt x="352" y="770" on="1"/>
        <pt x="538" y="335" on="1"/>
        <pt x="352" y="-100" on="1"/>
        <pt x="204" y="-100" on="1"/>
        <pt x="18" y="335" on="1"/>
      </contour>
      <contour>
        <pt x="278" y="26" on="1"/>
        <pt x="403" y="335" on="1"/>
        <pt x="278" y="644" on="1"/>
        <pt x="153" y="335" on="1"/>
      </contour>
    </TTGlyph>
    <TTGlyph name="lslash" xMin="20" yMin="0" xMax="302" yMax="770">
      <contour>
        <pt x="228" y="0" on="1"/>
        <pt x="94" y="0" on="1"/>
        <pt x="94" y="309" on="1"/>
        <pt x="20" y="280" on="1"/>
        <pt x="20" y="367" on="1"/>
        <pt x="94" y="396" on="1"/>
        <pt x="94" y="752" on="1"/>
        <pt x="228" y="770" on="1"/>
        <pt x="228" y="449" on="1"/>
        <pt x="302" y="479" on="1"/>
        <pt x="302" y="392" on="1"/>
        <pt x="228" y="362" on="1"/>
      </contour>
    </TTGlyph>
    <TTGlyph name="m" xMin="94" yMin="0" xMax="914" yMax="586">
      <contour>
        <pt x="371" y="586" on="1"/>
        <pt x="491" y="586" on="0"/>
        <pt x="539" y="517" on="1"/>
        <pt x="625" y="586" on="0"/>
        <pt x="820" y="586" on="0"/>
        <pt x="914" y="489" on="0"/>
        <pt x="914" y="404" on="1"/>
        <pt x="914" y="0" on="1"/>
        <pt x="780" y="0" on="1"/>
        <pt x="780" y="382" on="1"/>
        <pt x="780" y="434" on="0"/>
        <pt x="742" y="483" on="0"/>
        <pt x="694" y="483" on="1"/>
        <pt x="626" y="483" on="0"/>
        <pt x="569" y="436" on="1"/>
        <pt x="571" y="416" on="0"/>
        <pt x="571" y="404" on="1"/>
        <pt x="571" y="0" on="1"/>
        <pt x="437" y="0" on="1"/>
        <pt x="437" y="382" on="1"/>
        <pt x="437" y="434" on="0"/>
        <pt x="397" y="483" on="0"/>
        <pt x="284" y="483" on="0"/>
        <pt x="228" y="443" on="1"/>
        <pt x="228" y="0" on="1"/>
        <pt x="94" y="0" on="1"/>
        <pt x="94" y="572" on="1"/>
        <pt x="165" y="572" on="1"/>
        <pt x="200" y="525" on="1"/>
        <pt x="281" y="586" on="0"/>
      </contour>
    </TTGlyph>
    <TTGlyph name="macron" xMin="42" yMin="670" xMax="312" yMax="767">
      <contour>
        <pt x="42" y="670" on="1"/>
        <pt x="42" y="767" on="1"/>
        <pt x="312" y="767" on="1"/>
        <pt x="312" y="670" on="1"/>
      </contour>
    </TTGlyph>
    <TTGlyph name="minus" xMin="86" yMin="272" xMax="494" yMax="364">
      <contour>
        <pt x="86" y="272" on="1"/>
        <pt x="86" y="364" on="1"/>
        <pt x="494" y="364" on="1"/>
        <pt x="494" y="272" on="1"/>
      </contour>
    </TTGlyph>
    <TTGlyph name="mu" xMin="96" yMin="-227" xMax="584" yMax="572">
      <contour>
        <pt x="230" y="-227" on="1"/>
        <pt x="96" y="-227" on="1"/>
        <pt x="96" y="572" on="1"/>
        <pt x="230" y="572" on="1"/>
        <pt x="230" y="129" on="1"/>
        <pt x="292" y="89" on="0"/>
        <pt x="410" y="89" on="0"/>
        <pt x="450" y="137" on="0"/>
        <pt x="450" y="190" on="1"/>
        <pt x="450" y="572" on="1"/>
        <pt x="584" y="572" on="1"/>
        <pt x="584" y="168" on="1"/>
        <pt x="584" y="-14" on="0"/>
        <pt x="407" y="-14" on="1"/>
        <pt x="318" y="-14" on="0"/>
        <pt x="230" y="32" on="1"/>
      </contour>
    </TTGlyph>
    <TTGlyph name="multiply" xMin="95" yMin="123" xMax="485" yMax="513">
      <contour>
        <pt x="161" y="123" on="1"/>
        <pt x="95" y="189" on="1"/>
        <pt x="225" y="318" on="1"/>
        <pt x="95" y="447" on="1"/>
        <pt x="161" y="513" on="1"/>
        <pt x="290" y="383" on="1"/>
        <pt x="419" y="513" on="1"/>
        <pt x="485" y="447" on="1"/>
        <pt x="355" y="318" on="1"/>
        <pt x="485" y="189" on="1"/>
        <pt x="419" y="123" on="1"/>
        <pt x="290" y="253" on="1"/>
      </contour>
    </TTGlyph>
    <TTGlyph name="n" xMin="94" yMin="0" xMax="579" yMax="586">
      <contour>
        <pt x="200" y="520" on="1"/>
        <pt x="294" y="586" on="0"/>
        <pt x="491" y="586" on="0"/>
        <pt x="579" y="489" on="0"/>
        <pt x="579" y="404" on="1"/>
        <pt x="579" y="0" on="1"/>
        <pt x="445" y="0" on="1"/>
        <pt x="445" y="390" on="1"/>
        <pt x="445" y="441" on="0"/>
        <pt x="408" y="483" on="0"/>
        <pt x="362" y="483" on="1"/>
        <pt x="290" y="483" on="0"/>
        <pt x="228" y="438" on="1"/>
        <pt x="228" y="0" on="1"/>
        <pt x="94" y="0" on="1"/>
        <pt x="94" y="572" on="1"/>
        <pt x="157" y="572" on="1"/>
      </contour>
    </TTGlyph>
    <TTGlyph name="nine" xMin="51" yMin="-14" xMax="583" yMax="744">
      <contour>
        <pt x="308" y="91" on="1"/>
        <pt x="382" y="91" on="0"/>
        <pt x="442" y="192" on="0"/>
        <pt x="447" y="310" on="1"/>
        <pt x="374" y="291" on="0"/>
        <pt x="293" y="291" on="1"/>
        <pt x="165" y="291" on="0"/>
        <pt x="51" y="409" on="0"/>
        <pt x="51" y="609" on="0"/>
        <pt x="196" y="744" on="0"/>
        <pt x="464" y="744" on="0"/>
        <pt x="583" y="561" on="0"/>
        <pt x="583" y="390" on="1"/>
        <pt x="583" y="289" on="0"/>
        <pt x="559" y="148" on="0"/>
        <pt x="529" y="94" on="1"/>
        <pt x="470" y="-14" on="0"/>
        <pt x="309" y="-14" on="1"/>
        <pt x="74" y="-14" on="0"/>
        <pt x="63" y="194" on="1"/>
        <pt x="179" y="207" on="1"/>
        <pt x="185" y="91" on="0"/>
      </contour>
      <contour>
        <pt x="187" y="462" on="0"/>
        <pt x="252" y="393" on="0"/>
        <pt x="390" y="393" on="0"/>
        <pt x="447" y="408" on="1"/>
        <pt x="444" y="528" on="0"/>
        <pt x="389" y="638" on="0"/>
        <pt x="256" y="638" on="0"/>
        <pt x="187" y="568" on="0"/>
      </contour>
    </TTGlyph>
    <TTGlyph name="notequal" xMin="84" yMin="-66" xMax="492" yMax="735">
      <contour>
        <pt x="84" y="380" on="1"/>
        <pt x="84" y="472" on="1"/>
        <pt x="284" y="472" on="1"/>
        <pt x="355" y="735" on="1"/>
        <pt x="440" y="735" on="1"/>
        <pt x="369" y="472" on="1"/>
        <pt x="492" y="472" on="1"/>
        <pt x="492" y="380" on="1"/>
        <pt x="344" y="380" on="1"/>
        <pt x="311" y="256" on="1"/>
        <pt x="492" y="256" on="1"/>
        <pt x="492" y="164" on="1"/>
        <pt x="286" y="164" on="1"/>
        <pt x="225" y="-66" on="1"/>
        <pt x="141" y="-66" on="1"/>
        <pt x="202" y="164" on="1"/>
        <pt x="84" y="164" on="1"/>
        <pt x="84" y="256" on="1"/>
        <pt x="227" y="256" on="1"/>
        <pt x="260" y="380" on="1"/>
      </contour>
    </TTGlyph>
    <TTGlyph name="ntilde" xMin="94" yMin="0" xMax="579" yMax="802">
      <contour>
        <pt x="200" y="520" on="1"/>
        <pt x="294" y="586" on="0"/>
        <pt x="491" y="586" on="0"/>
        <pt x="579" y="489" on="0"/>
        <pt x="579" y="404" on="1"/>
        <pt x="579" y="0" on="1"/>
        <pt x="445" y="0" on="1"/>
        <pt x="445" y="390" on="1"/>
        <pt x="445" y="441" on="0"/>
        <pt x="408" y="483" on="0"/>
        <pt x="362" y="483" on="1"/>
        <pt x="290" y="483" on="0"/>
        <pt x="228" y="438" on="1"/>
        <pt x="228" y="0" on="1"/>
        <pt x="94" y="0" on="1"/>
        <pt x="94" y="572" on="1"/>
        <pt x="157" y="572" on="1"/>
      </contour>
      <contour>
        <pt x="511" y="715" on="0"/>
        <pt x="460" y="661" on="0"/>
        <pt x="400" y="661" on="0"/>
        <pt x="306" y="697" on="0"/>
        <pt x="291" y="697" on="1"/>
        <pt x="262" y="697" on="0"/>
        <pt x="249" y="653" on="1"/>
        <pt x="174" y="677" on="1"/>
        <pt x="191" y="740" on="0"/>
        <pt x="242" y="794" on="0"/>
        <pt x="302" y="794" on="0"/>
        <pt x="397" y="758" on="0"/>
        <pt x="412" y="758" on="1"/>
        <pt x="441" y="758" on="0"/>
        <pt x="454" y="802" on="1"/>
        <pt x="528" y="778" on="1"/>
      </contour>
    </TTGlyph>
    <TTGlyph name="numbersign" xMin="44" yMin="-76" xMax="770" yMax="805">
      <contour>
        <pt x="415" y="-76" on="1"/>
        <pt x="457" y="156" on="1"/>
        <pt x="282" y="156" on="1"/>
        <pt x="240" y="-76" on="1"/>
        <pt x="105" y="-76" on="1"/>
        <pt x="147" y="156" on="1"/>
        <pt x="44" y="156" on="1"/>
        <pt x="63" y="261" on="1"/>
        <pt x="166" y="261" on="1"/>
        <pt x="203" y="468" on="1"/>
        <pt x="100" y="468" on="1"/>
        <pt x="119" y="573" on="1"/>
        <pt x="222" y="573" on="1"/>
        <pt x="265" y="805" on="1"/>
        <pt x="400" y="805" on="1"/>
        <pt x="357" y="573" on="1"/>
        <pt x="532" y="573" on="1"/>
        <pt x="575" y="805" on="1"/>
        <pt x="710" y="805" on="1"/>
        <pt x="667" y="573" on="1"/>
        <pt x="770" y="573" on="1"/>
        <pt x="751" y="468" on="1"/>
        <pt x="648" y="468" on="1"/>
        <pt x="611" y="261" on="1"/>
        <pt x="715" y="261" on="1"/>
        <pt x="696" y="156" on="1"/>
        <pt x="592" y="156" on="1"/>
        <pt x="550" y="-76" on="1"/>
      </contour>
      <contour>
        <pt x="338" y="468" on="1"/>
        <pt x="301" y="261" on="1"/>
        <pt x="476" y="261" on="1"/>
        <pt x="513" y="468" on="1"/>
      </contour>
    </TTGlyph>
    <TTGlyph name="o" xMin="36" yMin="-14" xMax="556" yMax="586">
      <contour>
        <pt x="222" y="89" on="0"/>
        <pt x="370" y="89" on="0"/>
        <pt x="422" y="189" on="0"/>
        <pt x="422" y="383" on="0"/>
        <pt x="370" y="483" on="0"/>
        <pt x="222" y="483" on="0"/>
        <pt x="170" y="383" on="0"/>
        <pt x="170" y="189" on="0"/>
      </contour>
      <contour>
        <pt x="556" y="-14" on="0"/>
        <pt x="36" y="-14" on="0"/>
        <pt x="36" y="586" on="0"/>
        <pt x="556" y="586" on="0"/>
      </contour>
    </TTGlyph>
    <TTGlyph name="oacute" xMin="36" yMin="-14" xMax="556" yMax="825">
      <contour>
        <pt x="222" y="89" on="0"/>
        <pt x="370" y="89" on="0"/>
        <pt x="422" y="189" on="0"/>
        <pt x="422" y="383" on="0"/>
        <pt x="370" y="483" on="0"/>
        <pt x="222" y="483" on="0"/>
        <pt x="170" y="383" on="0"/>
        <pt x="170" y="189" on="0"/>
      </contour>
      <contour>
        <pt x="556" y="-14" on="0"/>
        <pt x="36" y="-14" on="0"/>
        <pt x="36" y="586" on="0"/>
        <pt x="556" y="586" on="0"/>
      </contour>
      <contour>
        <pt x="256" y="620" on="1"/>
        <pt x="211" y="692" on="1"/>
        <pt x="406" y="825" on="1"/>
        <pt x="466" y="729" on="1"/>
      </contour>
    </TTGlyph>
    <TTGlyph name="ocircumflex" xMin="36" yMin="-14" xMax="556" yMax="821">
      <contour>
        <pt x="222" y="89" on="0"/>
        <pt x="370" y="89" on="0"/>
        <pt x="422" y="189" on="0"/>
        <pt x="422" y="383" on="0"/>
        <pt x="370" y="483" on="0"/>
        <pt x="222" y="483" on="0"/>
        <pt x="170" y="383" on="0"/>
        <pt x="170" y="189" on="0"/>
      </contour>
      <contour>
        <pt x="556" y="-14" on="0"/>
        <pt x="36" y="-14" on="0"/>
        <pt x="36" y="586" on="0"/>
        <pt x="556" y="586" on="0"/>
      </contour>
      <contour>
        <pt x="185" y="626" on="1"/>
        <pt x="137" y="674" on="1"/>
        <pt x="265" y="821" on="1"/>
        <pt x="326" y="821" on="1"/>
        <pt x="454" y="674" on="1"/>
        <pt x="406" y="626" on="1"/>
        <pt x="295" y="710" on="1"/>
      </contour>
    </TTGlyph>
    <TTGlyph name="odieresis" xMin="36" yMin="-14" xMax="556" yMax="792">
      <contour>
        <pt x="222" y="89" on="0"/>
        <pt x="370" y="89" on="0"/>
        <pt x="422" y="189" on="0"/>
        <pt x="422" y="383" on="0"/>
        <pt x="370" y="483" on="0"/>
        <pt x="222" y="483" on="0"/>
        <pt x="170" y="383" on="0"/>
        <pt x="170" y="189" on="0"/>
      </contour>
      <contour>
        <pt x="556" y="-14" on="0"/>
        <pt x="36" y="-14" on="0"/>
        <pt x="36" y="586" on="0"/>
        <pt x="556" y="586" on="0"/>
      </contour>
      <contour>
        <pt x="209" y="643" on="0"/>
        <pt x="163" y="643" on="0"/>
        <pt x="135" y="655" on="0"/>
        <pt x="129" y="667" on="1"/>
        <pt x="119" y="687" on="0"/>
        <pt x="119" y="733" on="0"/>
        <pt x="123" y="754" on="0"/>
        <pt x="129" y="766" on="1"/>
        <pt x="141" y="792" on="0"/>
        <pt x="186" y="792" on="1"/>
        <pt x="233" y="792" on="0"/>
        <pt x="245" y="766" on="1"/>
        <pt x="255" y="746" on="0"/>
        <pt x="255" y="700" on="0"/>
        <pt x="251" y="679" on="0"/>
        <pt x="239" y="655" on="0"/>
      </contour>
      <contour>
        <pt x="427" y="643" on="0"/>
        <pt x="381" y="643" on="0"/>
        <pt x="353" y="655" on="0"/>
        <pt x="347" y="667" on="1"/>
        <pt x="337" y="687" on="0"/>
        <pt x="337" y="733" on="0"/>
        <pt x="341" y="754" on="0"/>
        <pt x="347" y="766" on="1"/>
        <pt x="359" y="792" on="0"/>
        <pt x="404" y="792" on="1"/>
        <pt x="451" y="792" on="0"/>
        <pt x="463" y="766" on="1"/>
        <pt x="473" y="746" on="0"/>
        <pt x="473" y="700" on="0"/>
        <pt x="469" y="679" on="0"/>
        <pt x="457" y="655" on="0"/>
      </contour>
    </TTGlyph>
    <TTGlyph name="oe" xMin="36" yMin="-14" xMax="922" yMax="586">
      <contour>
        <pt x="682" y="-14" on="1"/>
        <pt x="547" y="-14" on="0"/>
        <pt x="488" y="59" on="1"/>
        <pt x="425" y="-14" on="0"/>
        <pt x="296" y="-14" on="1"/>
        <pt x="36" y="-14" on="0"/>
        <pt x="36" y="586" on="0"/>
        <pt x="296" y="586" on="1"/>
        <pt x="426" y="586" on="0"/>
        <pt x="490" y="511" on="1"/>
        <pt x="552" y="586" on="0"/>
        <pt x="678" y="586" on="1"/>
        <pt x="823" y="586" on="0"/>
        <pt x="876" y="496" on="1"/>
        <pt x="922" y="419" on="0"/>
        <pt x="922" y="296" on="1"/>
        <pt x="922" y="260" on="1"/>
        <pt x="556" y="260" on="1"/>
        <pt x="558" y="166" on="0"/>
        <pt x="617" y="89" on="0"/>
        <pt x="686" y="89" on="1"/>
        <pt x="797" y="89" on="0"/>
        <pt x="804" y="169" on="1"/>
        <pt x="914" y="165" on="1"/>
        <pt x="898" y="-14" on="0"/>
      </contour>
      <contour>
        <pt x="422" y="193" on="0"/>
        <pt x="422" y="382" on="0"/>
        <pt x="371" y="483" on="0"/>
        <pt x="222" y="483" on="0"/>
        <pt x="170" y="383" on="0"/>
        <pt x="170" y="189" on="0"/>
        <pt x="222" y="89" on="0"/>
        <pt x="373" y="89" on="0"/>
      </contour>
      <contour>
        <pt x="784" y="418" on="0"/>
        <pt x="734" y="483" on="0"/>
        <pt x="621" y="483" on="0"/>
        <pt x="567" y="419" on="0"/>
        <pt x="560" y="351" on="1"/>
        <pt x="790" y="351" on="1"/>
      </contour>
    </TTGlyph>
    <TTGlyph name="ogonek" xMin="26" yMin="-232" xMax="283" yMax="49">
      <contour>
        <pt x="141" y="-232" on="1"/>
        <pt x="84" y="-232" on="0"/>
        <pt x="26" y="-181" on="0"/>
        <pt x="26" y="-92" on="0"/>
        <pt x="76" y="-38" on="0"/>
        <pt x="132" y="-3" on="1"/>
        <pt x="218" y="49" on="1"/>
        <pt x="247" y="6" on="1"/>
        <pt x="162" y="-47" on="1"/>
        <pt x="129" y="-67" on="0"/>
        <pt x="105" y="-98" on="0"/>
        <pt x="105" y="-117" on="1"/>
        <pt x="105" y="-161" on="0"/>
        <pt x="196" y="-161" on="0"/>
        <pt x="230" y="-102" on="1"/>
        <pt x="283" y="-137" on="1"/>
        <pt x="231" y="-232" on="0"/>
      </contour>
    </TTGlyph>
    <TTGlyph name="ograve" xMin="36" yMin="-14" xMax="556" yMax="825">
      <contour>
        <pt x="222" y="89" on="0"/>
        <pt x="370" y="89" on="0"/>
        <pt x="422" y="189" on="0"/>
        <pt x="422" y="383" on="0"/>
        <pt x="370" y="483" on="0"/>
        <pt x="222" y="483" on="0"/>
        <pt x="170" y="383" on="0"/>
        <pt x="170" y="189" on="0"/>
      </contour>
      <contour>
        <pt x="556" y="-14" on="0"/>
        <pt x="36" y="-14" on="0"/>
        <pt x="36" y="586" on="0"/>
        <pt x="556" y="586" on="0"/>
      </contour>
      <contour>
        <pt x="419" y="692" on="1"/>
        <pt x="374" y="620" on="1"/>
        <pt x="164" y="729" on="1"/>
        <pt x="224" y="825" on="1"/>
      </contour>
    </TTGlyph>
    <TTGlyph name="one" xMin="129" yMin="0" xMax="557" yMax="730">
      <contour>
        <pt x="129" y="596" on="1"/>
        <pt x="129" y="675" on="1"/>
        <pt x="246" y="688" on="0"/>
        <pt x="305" y="730" on="1"/>
        <pt x="412" y="730" on="1"/>
        <pt x="412" y="106" on="1"/>
        <pt x="557" y="106" on="1"/>
        <pt x="557" y="0" on="1"/>
        <pt x="131" y="0" on="1"/>
        <pt x="131" y="106" on="1"/>
        <pt x="276" y="106" on="1"/>
        <pt x="276" y="596" on="1"/>
      </contour>
    </TTGlyph>
    <TTGlyph name="onehalf" xMin="72" yMin="-36" xMax="897" yMax="765">
      <contour>
        <pt x="318" y="-36" on="1"/>
        <pt x="532" y="765" on="1"/>
        <pt x="617" y="765" on="1"/>
        <pt x="402" y="-36" on="1"/>
      </contour>
      <contour>
        <pt x="595" y="293" on="1"/>
        <pt x="605" y="414" on="0"/>
        <pt x="747" y="414" on="1"/>
        <pt x="818" y="414" on="0"/>
        <pt x="889" y="347" on="0"/>
        <pt x="889" y="241" on="0"/>
        <pt x="828" y="174" on="1"/>
        <pt x="749" y="86" on="1"/>
        <pt x="897" y="86" on="1"/>
        <pt x="897" y="0" on="1"/>
        <pt x="594" y="0" on="1"/>
        <pt x="594" y="67" on="1"/>
        <pt x="731" y="210" on="1"/>
        <pt x="776" y="258" on="0"/>
        <pt x="776" y="326" on="0"/>
        <pt x="737" y="326" on="1"/>
        <pt x="715" y="326" on="0"/>
        <pt x="694" y="306" on="0"/>
        <pt x="693" y="282" on="1"/>
      </contour>
      <contour>
        <pt x="72" y="635" on="1"/>
        <pt x="72" y="701" on="1"/>
        <pt x="141" y="708" on="0"/>
        <pt x="174" y="731" on="1"/>
        <pt x="269" y="731" on="1"/>
        <pt x="269" y="326" on="1"/>
        <pt x="154" y="326" on="1"/>
        <pt x="154" y="635" on="1"/>
      </contour>
    </TTGlyph>
    <TTGlyph name="onequarter" xMin="72" yMin="-36" xMax="898" yMax="765">
      <contour>
        <pt x="865" y="0" on="1"/>
        <pt x="760" y="0" on="1"/>
        <pt x="760" y="69" on="1"/>
        <pt x="567" y="69" on="1"/>
        <pt x="567" y="147" on="1"/>
        <pt x="698" y="405" on="1"/>
        <pt x="865" y="405" on="1"/>
        <pt x="865" y="155" on="1"/>
        <pt x="898" y="155" on="1"/>
        <pt x="898" y="69" on="1"/>
        <pt x="865" y="69" on="1"/>
      </contour>
      <contour>
        <pt x="760" y="155" on="1"/>
        <pt x="760" y="322" on="1"/>
        <pt x="677" y="155" on="1"/>
      </contour>
      <contour>
        <pt x="72" y="635" on="1"/>
        <pt x="72" y="701" on="1"/>
        <pt x="141" y="708" on="0"/>
        <pt x="174" y="731" on="1"/>
        <pt x="269" y="731" on="1"/>
        <pt x="269" y="326" on="1"/>
        <pt x="154" y="326" on="1"/>
        <pt x="154" y="635" on="1"/>
      </contour>
      <contour>
        <pt x="320" y="-36" on="1"/>
        <pt x="534" y="765" on="1"/>
        <pt x="619" y="765" on="1"/>
        <pt x="404" y="-36" on="1"/>
      </contour>
    </TTGlyph>
    <TTGlyph name="onesuperior" xMin="67" yMin="340" xMax="264" yMax="745">
      <contour>
        <pt x="67" y="649" on="1"/>
        <pt x="67" y="715" on="1"/>
        <pt x="136" y="722" on="0"/>
        <pt x="169" y="745" on="1"/>
        <pt x="264" y="745" on="1"/>
        <pt x="264" y="340" on="1"/>
        <pt x="149" y="340" on="1"/>
        <pt x="149" y="649" on="1"/>
      </contour>
    </TTGlyph>
    <TTGlyph name="ordfeminine" xMin="32" yMin="204" xMax="389" yMax="760">
      <contour>
        <pt x="221" y="760" on="1"/>
        <pt x="382" y="760" on="0"/>
        <pt x="382" y="621" on="1"/>
        <pt x="382" y="350" on="1"/>
        <pt x="304" y="350" on="1"/>
        <pt x="269" y="389" on="1"/>
        <pt x="218" y="340" on="0"/>
        <pt x="99" y="340" on="0"/>
        <pt x="39" y="402" on="0"/>
        <pt x="39" y="506" on="0"/>
        <pt x="104" y="570" on="0"/>
        <pt x="194" y="583" on="1"/>
        <pt x="261" y="592" on="1"/>
        <pt x="261" y="620" on="1"/>
        <pt x="261" y="669" on="0"/>
        <pt x="164" y="669" on="0"/>
        <pt x="156" y="618" on="1"/>
        <pt x="63" y="646" on="1"/>
        <pt x="78" y="704" on="0"/>
        <pt x="152" y="760" on="0"/>
      </contour>
      <contour>
        <pt x="155" y="460" on="1"/>
        <pt x="155" y="427" on="0"/>
        <pt x="227" y="427" on="0"/>
        <pt x="261" y="456" on="1"/>
        <pt x="261" y="520" on="1"/>
        <pt x="219" y="512" on="1"/>
        <pt x="155" y="500" on="0"/>
      </contour>
      <contour>
        <pt x="32" y="204" on="1"/>
        <pt x="32" y="281" on="1"/>
        <pt x="389" y="281" on="1"/>
        <pt x="389" y="204" on="1"/>
      </contour>
    </TTGlyph>
    <TTGlyph name="ordmasculine" xMin="16" yMin="204" xMax="393" yMax="760">
      <contour>
        <pt x="26" y="204" on="1"/>
        <pt x="26" y="281" on="1"/>
        <pt x="383" y="281" on="1"/>
        <pt x="383" y="204" on="1"/>
      </contour>
      <contour>
        <pt x="137" y="487" on="0"/>
        <pt x="164" y="431" on="0"/>
        <pt x="245" y="431" on="0"/>
        <pt x="272" y="487" on="0"/>
        <pt x="272" y="613" on="0"/>
        <pt x="245" y="669" on="0"/>
        <pt x="164" y="669" on="0"/>
        <pt x="137" y="613" on="0"/>
      </contour>
      <contour>
        <pt x="393" y="760" on="0"/>
        <pt x="393" y="340" on="0"/>
        <pt x="16" y="340" on="0"/>
        <pt x="16" y="760" on="0"/>
      </contour>
    </TTGlyph>
    <TTGlyph name="oslash" xMin="36" yMin="-115" xMax="556" yMax="686">
      <contour>
        <pt x="36" y="286" on="1"/>
        <pt x="36" y="586" on="0"/>
        <pt x="296" y="586" on="1"/>
        <pt x="309" y="586" on="0"/>
        <pt x="333" y="584" on="1"/>
        <pt x="361" y="686" on="1"/>
        <pt x="446" y="686" on="1"/>
        <pt x="414" y="566" on="1"/>
        <pt x="556" y="509" on="0"/>
        <pt x="556" y="286" on="1"/>
        <pt x="556" y="-14" on="0"/>
        <pt x="296" y="-14" on="1"/>
        <pt x="282" y="-14" on="0"/>
        <pt x="258" y="-12" on="1"/>
        <pt x="231" y="-115" on="1"/>
        <pt x="147" y="-115" on="1"/>
        <pt x="179" y="5" on="1"/>
        <pt x="36" y="62" on="0"/>
      </contour>
      <contour>
        <pt x="222" y="483" on="0"/>
        <pt x="170" y="383" on="0"/>
        <pt x="170" y="162" on="0"/>
        <pt x="210" y="120" on="1"/>
        <pt x="306" y="483" on="1"/>
        <pt x="296" y="483" on="1"/>
      </contour>
      <contour>
        <pt x="296" y="89" on="1"/>
        <pt x="370" y="89" on="0"/>
        <pt x="422" y="189" on="0"/>
        <pt x="422" y="407" on="0"/>
        <pt x="383" y="450" on="1"/>
        <pt x="286" y="89" on="1"/>
      </contour>
    </TTGlyph>
    <TTGlyph name="otilde" xMin="36" yMin="-14" xMax="556" yMax="802">
      <contour>
        <pt x="222" y="89" on="0"/>
        <pt x="370" y="89" on="0"/>
        <pt x="422" y="189" on="0"/>
        <pt x="422" y="383" on="0"/>
        <pt x="370" y="483" on="0"/>
        <pt x="222" y="483" on="0"/>
        <pt x="170" y="383" on="0"/>
        <pt x="170" y="189" on="0"/>
      </contour>
      <contour>
        <pt x="556" y="-14" on="0"/>
        <pt x="36" y="-14" on="0"/>
        <pt x="36" y="586" on="0"/>
        <pt x="556" y="586" on="0"/>
      </contour>
      <contour>
        <pt x="456" y="715" on="0"/>
        <pt x="405" y="661" on="0"/>
        <pt x="345" y="661" on="0"/>
        <pt x="251" y="697" on="0"/>
        <pt x="236" y="697" on="1"/>
        <pt x="207" y="697" on="0"/>
        <pt x="194" y="653" on="1"/>
        <pt x="119" y="677" on="1"/>
        <pt x="136" y="740" on="0"/>
        <pt x="187" y="794" on="0"/>
        <pt x="247" y="794" on="0"/>
        <pt x="342" y="758" on="0"/>
        <pt x="357" y="758" on="1"/>
        <pt x="386" y="758" on="0"/>
        <pt x="399" y="802" on="1"/>
        <pt x="473" y="778" on="1"/>
      </contour>
    </TTGlyph>
    <TTGlyph name="p" xMin="94" yMin="-223" xMax="592" yMax="586">
      <contour>
        <pt x="362" y="586" on="1"/>
        <pt x="592" y="586" on="0"/>
        <pt x="592" y="-14" on="0"/>
        <pt x="358" y="-14" on="1"/>
        <pt x="298" y="-14" on="0"/>
        <pt x="228" y="6" on="1"/>
        <pt x="228" y="-205" on="1"/>
        <pt x="94" y="-223" on="1"/>
        <pt x="94" y="572" on="1"/>
        <pt x="158" y="572" on="1"/>
        <pt x="193" y="529" on="1"/>
        <pt x="278" y="586" on="0"/>
      </contour>
      <contour>
        <pt x="325" y="483" on="1"/>
        <pt x="274" y="483" on="0"/>
        <pt x="228" y="455" on="1"/>
        <pt x="228" y="103" on="1"/>
        <pt x="275" y="89" on="0"/>
        <pt x="324" y="89" on="1"/>
        <pt x="396" y="89" on="0"/>
        <pt x="458" y="190" on="0"/>
        <pt x="458" y="286" on="1"/>
        <pt x="458" y="483" on="0"/>
      </contour>
    </TTGlyph>
    <TTGlyph name="paragraph" xMin="14" yMin="0" xMax="399" yMax="670">
      <contour>
        <pt x="399" y="0" on="1"/>
        <pt x="263" y="0" on="1"/>
        <pt x="263" y="269" on="1"/>
        <pt x="219" y="269" on="1"/>
        <pt x="117" y="269" on="0"/>
        <pt x="14" y="384" on="0"/>
        <pt x="14" y="554" on="0"/>
        <pt x="117" y="670" on="0"/>
        <pt x="219" y="670" on="1"/>
        <pt x="399" y="670" on="1"/>
      </contour>
    </TTGlyph>
    <TTGlyph name="parenleft" xMin="37" yMin="-66" xMax="309" yMax="735">
      <contour>
        <pt x="309" y="28" on="1"/>
        <pt x="309" y="-66" on="1"/>
        <pt x="188" y="-66" on="0"/>
        <pt x="130" y="-6" on="1"/>
        <pt x="71" y="54" on="0"/>
        <pt x="54" y="142" on="1"/>
        <pt x="37" y="226" on="0"/>
        <pt x="37" y="404" on="0"/>
        <pt x="46" y="506" on="0"/>
        <pt x="80" y="618" on="0"/>
        <pt x="137" y="689" on="0"/>
        <pt x="239" y="735" on="0"/>
        <pt x="309" y="735" on="1"/>
        <pt x="309" y="641" on="1"/>
        <pt x="250" y="641" on="0"/>
        <pt x="194" y="550" on="0"/>
        <pt x="181" y="445" on="0"/>
        <pt x="178" y="379" on="0"/>
        <pt x="178" y="291" on="0"/>
        <pt x="181" y="225" on="0"/>
        <pt x="190" y="149" on="0"/>
        <pt x="208" y="96" on="0"/>
        <pt x="222" y="74" on="1"/>
        <pt x="250" y="28" on="0"/>
      </contour>
    </TTGlyph>
    <TTGlyph name="parenright" xMin="9" yMin="-66" xMax="281" yMax="735">
      <contour>
        <pt x="9" y="641" on="1"/>
        <pt x="9" y="735" on="1"/>
        <pt x="130" y="735" on="0"/>
        <pt x="188" y="676" on="1"/>
        <pt x="247" y="615" on="0"/>
        <pt x="264" y="528" on="1"/>
        <pt x="281" y="443" on="0"/>
        <pt x="281" y="265" on="0"/>
        <pt x="272" y="163" on="0"/>
        <pt x="238" y="51" on="0"/>
        <pt x="181" y="-20" on="0"/>
        <pt x="79" y="-66" on="0"/>
        <pt x="9" y="-66" on="1"/>
        <pt x="9" y="28" on="1"/>
        <pt x="68" y="28" on="0"/>
        <pt x="124" y="119" on="0"/>
        <pt x="137" y="224" on="0"/>
        <pt x="140" y="290" on="0"/>
        <pt x="140" y="378" on="0"/>
        <pt x="137" y="444" on="0"/>
        <pt x="128" y="520" on="0"/>
        <pt x="110" y="573" on="0"/>
        <pt x="96" y="596" on="1"/>
        <pt x="68" y="641" on="0"/>
      </contour>
    </TTGlyph>
    <TTGlyph name="partialdiff" xMin="36" yMin="-14" xMax="562" yMax="764">
      <contour>
        <pt x="562" y="371" on="1"/>
        <pt x="562" y="171" on="0"/>
        <pt x="420" y="-14" on="0"/>
        <pt x="253" y="-14" on="1"/>
        <pt x="132" y="-14" on="0"/>
        <pt x="36" y="85" on="0"/>
        <pt x="36" y="169" on="1"/>
        <pt x="36" y="336" on="0"/>
        <pt x="176" y="506" on="0"/>
        <pt x="340" y="506" on="1"/>
        <pt x="396" y="506" on="0"/>
        <pt x="428" y="474" on="1"/>
        <pt x="413" y="593" on="0"/>
        <pt x="335" y="689" on="1"/>
        <pt x="410" y="764" on="1"/>
        <pt x="562" y="604" on="0"/>
      </contour>
      <contour>
        <pt x="271" y="85" on="1"/>
        <pt x="351" y="85" on="0"/>
        <pt x="421" y="196" on="0"/>
        <pt x="421" y="407" on="0"/>
        <pt x="323" y="407" on="1"/>
        <pt x="243" y="407" on="0"/>
        <pt x="172" y="295" on="0"/>
        <pt x="172" y="85" on="0"/>
      </contour>
    </TTGlyph>
    <TTGlyph name="percent" xMin="34" yMin="-66" xMax="916" yMax="740">
      <contour>
        <pt x="320" y="-66" on="1"/>
        <pt x="534" y="735" on="1"/>
        <pt x="619" y="735" on="1"/>
        <pt x="404" y="-66" on="1"/>
      </contour>
      <contour>
        <pt x="844" y="-8" on="0"/>
        <pt x="656" y="-8" on="0"/>
        <pt x="585" y="101" on="0"/>
        <pt x="585" y="303" on="0"/>
        <pt x="656" y="414" on="0"/>
        <pt x="844" y="414" on="0"/>
        <pt x="916" y="303" on="0"/>
        <pt x="916" y="101" on="0"/>
      </contour>
      <contour>
        <pt x="700" y="133" on="0"/>
        <pt x="720" y="77" on="0"/>
        <pt x="781" y="77" on="0"/>
        <pt x="801" y="133" on="0"/>
        <pt x="801" y="273" on="0"/>
        <pt x="781" y="328" on="0"/>
        <pt x="720" y="328" on="0"/>
        <pt x="700" y="273" on="0"/>
      </contour>
      <contour>
        <pt x="293" y="318" on="0"/>
        <pt x="105" y="318" on="0"/>
        <pt x="34" y="427" on="0"/>
        <pt x="34" y="629" on="0"/>
        <pt x="105" y="740" on="0"/>
        <pt x="293" y="740" on="0"/>
        <pt x="365" y="629" on="0"/>
        <pt x="365" y="427" on="0"/>
      </contour>
      <contour>
        <pt x="149" y="459" on="0"/>
        <pt x="169" y="403" on="0"/>
        <pt x="230" y="403" on="0"/>
        <pt x="250" y="459" on="0"/>
        <pt x="250" y="599" on="0"/>
        <pt x="230" y="654" on="0"/>
        <pt x="169" y="654" on="0"/>
        <pt x="149" y="599" on="0"/>
      </contour>
    </TTGlyph>
    <TTGlyph name="period" xMin="45" yMin="-8" xMax="189" yMax="149">
      <contour>
        <pt x="172" y="5" on="0"/>
        <pt x="141" y="-8" on="0"/>
        <pt x="85" y="-8" on="0"/>
        <pt x="52" y="18" on="0"/>
        <pt x="45" y="47" on="0"/>
        <pt x="45" y="87" on="0"/>
        <pt x="49" y="110" on="0"/>
        <pt x="56" y="123" on="1"/>
        <pt x="68" y="149" on="0"/>
        <pt x="116" y="149" on="1"/>
        <pt x="166" y="149" on="0"/>
        <pt x="178" y="123" on="1"/>
        <pt x="189" y="102" on="0"/>
        <pt x="189" y="53" on="0"/>
        <pt x="185" y="31" on="0"/>
      </contour>
    </TTGlyph>
    <TTGlyph name="periodcentered" xMin="45" yMin="257" xMax="189" yMax="414">
      <contour>
        <pt x="172" y="270" on="0"/>
        <pt x="141" y="257" on="0"/>
        <pt x="85" y="257" on="0"/>
        <pt x="52" y="283" on="0"/>
        <pt x="45" y="312" on="0"/>
        <pt x="45" y="352" on="0"/>
        <pt x="49" y="375" on="0"/>
        <pt x="56" y="388" on="1"/>
        <pt x="68" y="414" on="0"/>
        <pt x="116" y="414" on="1"/>
        <pt x="166" y="414" on="0"/>
        <pt x="178" y="388" on="1"/>
        <pt x="189" y="367" on="0"/>
        <pt x="189" y="318" on="0"/>
        <pt x="185" y="296" on="0"/>
      </contour>
    </TTGlyph>
    <TTGlyph name="perthousand" xMin="34" yMin="-66" xMax="1316" yMax="740">
      <contour>
        <pt x="320" y="-66" on="1"/>
        <pt x="534" y="735" on="1"/>
        <pt x="619" y="735" on="1"/>
        <pt x="404" y="-66" on="1"/>
      </contour>
      <contour>
        <pt x="1244" y="-8" on="0"/>
        <pt x="1056" y="-8" on="0"/>
        <pt x="985" y="101" on="0"/>
        <pt x="985" y="303" on="0"/>
        <pt x="1056" y="414" on="0"/>
        <pt x="1244" y="414" on="0"/>
        <pt x="1316" y="303" on="0"/>
        <pt x="1316" y="101" on="0"/>
      </contour>
      <contour>
        <pt x="1100" y="133" on="0"/>
        <pt x="1120" y="77" on="0"/>
        <pt x="1181" y="77" on="0"/>
        <pt x="1201" y="133" on="0"/>
        <pt x="1201" y="273" on="0"/>
        <pt x="1181" y="328" on="0"/>
        <pt x="1120" y="328" on="0"/>
        <pt x="1100" y="273" on="0"/>
      </contour>
      <contour>
        <pt x="293" y="318" on="0"/>
        <pt x="105" y="318" on="0"/>
        <pt x="34" y="427" on="0"/>
        <pt x="34" y="629" on="0"/>
        <pt x="105" y="740" on="0"/>
        <pt x="293" y="740" on="0"/>
        <pt x="365" y="629" on="0"/>
        <pt x="365" y="427" on="0"/>
      </contour>
      <contour>
        <pt x="149" y="459" on="0"/>
        <pt x="169" y="403" on="0"/>
        <pt x="230" y="403" on="0"/>
        <pt x="250" y="459" on="0"/>
        <pt x="250" y="599" on="0"/>
        <pt x="230" y="654" on="0"/>
        <pt x="169" y="654" on="0"/>
        <pt x="149" y="599" on="0"/>
      </contour>
      <contour>
        <pt x="844" y="-8" on="0"/>
        <pt x="656" y="-8" on="0"/>
        <pt x="585" y="101" on="0"/>
        <pt x="585" y="303" on="0"/>
        <pt x="656" y="414" on="0"/>
        <pt x="844" y="414" on="0"/>
        <pt x="916" y="303" on="0"/>
        <pt x="916" y="101" on="0"/>
      </contour>
      <contour>
        <pt x="700" y="133" on="0"/>
        <pt x="720" y="77" on="0"/>
        <pt x="781" y="77" on="0"/>
        <pt x="801" y="133" on="0"/>
        <pt x="801" y="273" on="0"/>
        <pt x="781" y="328" on="0"/>
        <pt x="720" y="328" on="0"/>
        <pt x="700" y="273" on="0"/>
      </contour>
    </TTGlyph>
    <TTGlyph name="pi" xMin="46" yMin="0" xMax="606" yMax="572">
      <contour>
        <pt x="46" y="485" on="1"/>
        <pt x="46" y="572" on="1"/>
        <pt x="606" y="572" on="1"/>
        <pt x="606" y="485" on="1"/>
        <pt x="545" y="485" on="1"/>
        <pt x="545" y="0" on="1"/>
        <pt x="411" y="0" on="1"/>
        <pt x="411" y="485" on="1"/>
        <pt x="240" y="485" on="1"/>
        <pt x="240" y="0" on="1"/>
        <pt x="106" y="0" on="1"/>
        <pt x="106" y="485" on="1"/>
      </contour>
    </TTGlyph>
    <TTGlyph name="plus" xMin="86" yMin="114" xMax="494" yMax="522">
      <contour>
        <pt x="86" y="272" on="1"/>
        <pt x="86" y="364" on="1"/>
        <pt x="244" y="364" on="1"/>
        <pt x="244" y="522" on="1"/>
        <pt x="336" y="522" on="1"/>
        <pt x="336" y="364" on="1"/>
        <pt x="494" y="364" on="1"/>
        <pt x="494" y="272" on="1"/>
        <pt x="336" y="272" on="1"/>
        <pt x="336" y="114" on="1"/>
        <pt x="244" y="114" on="1"/>
        <pt x="244" y="272" on="1"/>
      </contour>
    </TTGlyph>
    <TTGlyph name="plusminus" xMin="86" yMin="0" xMax="494" yMax="572">
      <contour>
        <pt x="86" y="322" on="1"/>
        <pt x="86" y="414" on="1"/>
        <pt x="244" y="414" on="1"/>
        <pt x="244" y="572" on="1"/>
        <pt x="336" y="572" on="1"/>
        <pt x="336" y="414" on="1"/>
        <pt x="494" y="414" on="1"/>
        <pt x="494" y="322" on="1"/>
        <pt x="336" y="322" on="1"/>
        <pt x="336" y="164" on="1"/>
        <pt x="244" y="164" on="1"/>
        <pt x="244" y="322" on="1"/>
      </contour>
      <contour>
        <pt x="86" y="0" on="1"/>
        <pt x="86" y="92" on="1"/>
        <pt x="494" y="92" on="1"/>
        <pt x="494" y="0" on="1"/>
      </contour>
    </TTGlyph>
    <TTGlyph name="product" xMin="54" yMin="-173" xMax="706" yMax="730">
      <contour>
        <pt x="54" y="642" on="1"/>
        <pt x="54" y="730" on="1"/>
        <pt x="706" y="730" on="1"/>
        <pt x="706" y="642" on="1"/>
        <pt x="640" y="642" on="1"/>
        <pt x="640" y="-173" on="1"/>
        <pt x="506" y="-173" on="1"/>
        <pt x="506" y="642" on="1"/>
        <pt x="253" y="642" on="1"/>
        <pt x="253" y="-173" on="1"/>
        <pt x="119" y="-173" on="1"/>
        <pt x="119" y="642" on="1"/>
      </contour>
    </TTGlyph>
    <TTGlyph name="q" xMin="36" yMin="-223" xMax="534" yMax="586">
      <contour>
        <pt x="269" y="586" on="1"/>
        <pt x="363" y="586" on="0"/>
        <pt x="439" y="534" on="1"/>
        <pt x="471" y="572" on="1"/>
        <pt x="534" y="572" on="1"/>
        <pt x="534" y="-205" on="1"/>
        <pt x="400" y="-223" on="1"/>
        <pt x="400" y="12" on="1"/>
        <pt x="329" y="-14" on="0"/>
        <pt x="269" y="-14" on="1"/>
        <pt x="36" y="-14" on="0"/>
        <pt x="36" y="586" on="0"/>
      </contour>
      <contour>
        <pt x="305" y="89" on="1"/>
        <pt x="354" y="89" on="0"/>
        <pt x="400" y="107" on="1"/>
        <pt x="400" y="459" on="1"/>
        <pt x="356" y="483" on="0"/>
        <pt x="305" y="483" on="1"/>
        <pt x="170" y="483" on="0"/>
        <pt x="170" y="89" on="0"/>
      </contour>
    </TTGlyph>
    <TTGlyph name="question" xMin="20" yMin="-8" xMax="460" yMax="744">
      <contour>
        <pt x="265" y="5" on="0"/>
        <pt x="234" y="-8" on="0"/>
        <pt x="178" y="-8" on="0"/>
        <pt x="145" y="18" on="0"/>
        <pt x="138" y="47" on="0"/>
        <pt x="138" y="87" on="0"/>
        <pt x="142" y="110" on="0"/>
        <pt x="148" y="123" on="1"/>
        <pt x="162" y="149" on="0"/>
        <pt x="209" y="149" on="1"/>
        <pt x="258" y="149" on="0"/>
        <pt x="272" y="123" on="1"/>
        <pt x="282" y="102" on="0"/>
        <pt x="282" y="53" on="0"/>
        <pt x="278" y="31" on="0"/>
      </contour>
      <contour>
        <pt x="28" y="653" on="0"/>
        <pt x="137" y="744" on="0"/>
        <pt x="341" y="744" on="0"/>
        <pt x="460" y="621" on="0"/>
        <pt x="460" y="454" on="0"/>
        <pt x="349" y="345" on="0"/>
        <pt x="261" y="319" on="1"/>
        <pt x="250" y="209" on="1"/>
        <pt x="166" y="209" on="1"/>
        <pt x="157" y="365" on="1"/>
        <pt x="248" y="393" on="0"/>
        <pt x="326" y="472" on="0"/>
        <pt x="326" y="576" on="0"/>
        <pt x="279" y="643" on="0"/>
        <pt x="231" y="643" on="1"/>
        <pt x="143" y="643" on="0"/>
        <pt x="135" y="555" on="1"/>
        <pt x="20" y="571" on="1"/>
      </contour>
    </TTGlyph>
    <TTGlyph name="questiondown" xMin="18" yMin="-166" xMax="458" yMax="586">
      <contour>
        <pt x="213" y="573" on="0"/>
        <pt x="244" y="586" on="0"/>
        <pt x="300" y="586" on="0"/>
        <pt x="333" y="560" on="0"/>
        <pt x="340" y="531" on="0"/>
        <pt x="340" y="491" on="0"/>
        <pt x="336" y="468" on="0"/>
        <pt x="330" y="455" on="1"/>
        <pt x="316" y="429" on="0"/>
        <pt x="269" y="429" on="1"/>
        <pt x="220" y="429" on="0"/>
        <pt x="206" y="455" on="1"/>
        <pt x="196" y="476" on="0"/>
        <pt x="196" y="525" on="0"/>
        <pt x="200" y="547" on="0"/>
      </contour>
      <contour>
        <pt x="450" y="-75" on="0"/>
        <pt x="341" y="-166" on="0"/>
        <pt x="137" y="-166" on="0"/>
        <pt x="18" y="-43" on="0"/>
        <pt x="18" y="124" on="0"/>
        <pt x="129" y="233" on="0"/>
        <pt x="217" y="259" on="1"/>
        <pt x="228" y="369" on="1"/>
        <pt x="312" y="369" on="1"/>
        <pt x="321" y="213" on="1"/>
        <pt x="230" y="185" on="0"/>
        <pt x="152" y="106" on="0"/>
        <pt x="152" y="2" on="0"/>
        <pt x="199" y="-65" on="0"/>
        <pt x="247" y="-65" on="1"/>
        <pt x="335" y="-65" on="0"/>
        <pt x="343" y="23" on="1"/>
        <pt x="458" y="7" on="1"/>
      </contour>
    </TTGlyph>
    <TTGlyph name="quotedbl" xMin="48" yMin="467" xMax="368" yMax="730">
      <contour>
        <pt x="240" y="730" on="1"/>
        <pt x="368" y="730" on="1"/>
        <pt x="368" y="664" on="1"/>
        <pt x="342" y="467" on="1"/>
        <pt x="266" y="467" on="1"/>
        <pt x="240" y="664" on="1"/>
      </contour>
      <contour>
        <pt x="48" y="730" on="1"/>
        <pt x="176" y="730" on="1"/>
        <pt x="176" y="664" on="1"/>
        <pt x="150" y="467" on="1"/>
        <pt x="74" y="467" on="1"/>
        <pt x="48" y="664" on="1"/>
      </contour>
    </TTGlyph>
</ttFont>
